<?xml version="1.0" encoding="utf-8"?>
<!-- Generator: Adobe Illustrator 15.0.0, SVG Export Plug-In . SVG Version: 6.00 Build 0)  -->
<!DOCTYPE svg PUBLIC "-//W3C//DTD SVG 1.1//EN" "http://www.w3.org/Graphics/SVG/1.1/DTD/svg11.dtd">
<svg version="1.1" id="图层_1" xmlns="http://www.w3.org/2000/svg" xmlns:xlink="http://www.w3.org/1999/xlink" x="0px" y="0px"
	 width="31px" height="52px" viewBox="0 0 31 52" enable-background="new 0 0 31 52" xml:space="preserve">
<path fill="#F3C908" d="M12.901,9.463c0,2.211-1.014,2.207-5.906,2.207s-5.906,0.004-5.906-2.207c0-2.412,2.645-7.226,5.906-7.226
	C10.257,2.237,12.901,7.051,12.901,9.463L12.901,9.463L12.901,9.463z M7.013,3.271c-1.386,0-2.509,1.13-2.509,2.524
	S5.627,8.32,7.013,8.32c1.386,0,2.51-1.13,2.51-2.524S8.398,3.271,7.013,3.271L7.013,3.271L7.013,3.271z M1.753,5.13
	c1.029-1.657,2.807-3.424,5.23-3.424c2.422,0,4.316,1.913,5.175,3.41c0.443,0.742,1.296,0.664,1.667,0
	c0.238-0.498,0.984-4.66-6.842-4.66c-7.914,0.011-7.096,4.301-6.818,4.66C0.658,5.868,1.585,5.484,1.753,5.13L1.753,5.13L1.753,5.13
	z"/>
<path fill="#65C1E8" d="M31.438,4.547c0,3.308-3.847,7.192-4.011,7.356c-0.147,0.147-0.342,0.222-0.536,0.222
	c-0.193,0-0.388-0.074-0.535-0.222c-0.164-0.164-4.012-4.049-4.012-7.356C22.344,2.04,24.384,0,26.891,0
	C29.398,0,31.438,2.04,31.438,4.547L31.438,4.547z M26.891,6.82c1.256,0,2.273-1.018,2.273-2.273s-1.018-2.273-2.273-2.273
	c-1.254,0-2.272,1.019-2.272,2.273C24.617,5.803,25.637,6.82,26.891,6.82L26.891,6.82z"/>
<path fill="#4B4B4B" d="M22.344,31.072l0.565,0.564l7.04-7.04l-7.04-7.04l-0.565,0.565l6.475,6.475L22.344,31.072z"/>
<path fill="#4B4B4B" d="M17.646,42.583l-0.565,0.564l7.04,7.04l7.04-7.04l-0.565-0.564l-6.475,6.475L17.646,42.583z"/>
<path fill="#FFFFFF" d="M10.782,38.081l-0.565-0.565l-7.04,7.04l7.04,7.041l0.565-0.566l-6.475-6.475L10.782,38.081z"/>
<path fill="#E84F4F" d="M7.724,24.233c1.727,0,3.127-1.4,3.127-3.126c0-1.727-1.4-3.127-3.127-3.127s-3.127,1.4-3.127,3.127
	C4.597,22.833,5.997,24.233,7.724,24.233z M7.724,31.637c3.201-0.008,5.364-0.008,5.455-1.926c0.09-1.92-1.179-3.562-2.157-4.362
	c-0.976-0.8-1.69-0.764-1.69-0.764l-1.607-0.006h0l-1.607,0.006c0,0-0.714-0.036-1.691,0.764s-2.247,2.442-2.156,4.362
	C2.36,31.629,4.522,31.629,7.724,31.637L7.724,31.637z"/>
</svg>
