<?xml version="1.0" standalone="no"?><!DOCTYPE svg PUBLIC "-//W3C//DTD SVG 1.1//EN" "http://www.w3.org/Graphics/SVG/1.1/DTD/svg11.dtd"><svg t="1489221874258" class="icon" style="" viewBox="0 0 1024 1024" version="1.1" xmlns="http://www.w3.org/2000/svg" p-id="2165" xmlns:xlink="http://www.w3.org/1999/xlink" width="16" height="16"><defs><style type="text/css"></style></defs><path d="M511.919159 955.708638c-127.532605 0-364.66949-194.176444-364.66949-377.74939V212.282824l33.523511-0.563841c0.88516-0.020466 83.22447-1.830695 167.776168-35.957957 85.156472-34.429137 141.135414-74.210166 143.469575-75.880201l19.860327-14.387685 20.262486 14.567787c5.955642 4.225231 60.526515 42.256406 143.228075 75.699076 84.874039 34.248012 167.313633 35.93749 168.138418 35.957956l33.08042 0.583285 0.160659 365.6754c-0.019443 183.574992-237.256612 377.731994-364.830149 377.731994zM188.459233 252.627694v325.331554c0 154.85795 213.795271 336.539826 323.459926 336.539826 109.704564 0 323.601142-181.660386 323.620585-336.51936l-0.160659-325.35202c-23.502273-1.287319-98.67844-7.687076-175.442778-38.654368-77.972862-31.510668-131.496893-66.381873-147.996682-77.750805-15.292288 10.44284-70.50682 46.441729-147.956773 77.731362-77.067236 31.127951-152.24238 37.446867-175.523619 38.673811z" p-id="2166" fill="#ffffff"></path><path d="M491.616764 658.849556L355.028922 522.261715l29.136598-29.136598 107.451244 107.451244 198.844767-198.844767 29.136597 29.136597z" p-id="2167" fill="#ffffff"></path></svg>