<?xml version="1.0" encoding="utf-8"?>
<!-- Generator: Adobe Illustrator 15.0.0, SVG Export Plug-In . SVG Version: 6.00 Build 0)  -->
<!DOCTYPE svg PUBLIC "-//W3C//DTD SVG 1.1//EN" "http://www.w3.org/Graphics/SVG/1.1/DTD/svg11.dtd">
<svg version="1.1" id="图层_1" xmlns="http://www.w3.org/2000/svg" xmlns:xlink="http://www.w3.org/1999/xlink" x="0px" y="0px"
	 width="845.25px" height="338.5px" viewBox="0 0 845.25 338.5" enable-background="new 0 0 845.25 338.5" xml:space="preserve">
<g>
	<g transform="scale(0.1953125, 0.1953125)">
		<path fill="#FFFFFF" d="M533.93,739.586c-12.69,12.69-33.19,12.77-45.78,0.18L74.381,325.999
			c-12.59-12.59-12.505-33.085,0.185-45.777l0,0c12.69-12.692,33.19-12.775,45.78-0.185l413.769,413.769
			C546.705,706.396,546.62,726.886,533.93,739.586L533.93,739.586z M947.844,281.262c12.69,12.692,12.775,33.187,0.185,45.78
			L534.265,740.806c-12.595,12.59-33.09,12.51-45.78-0.18l0,0c-12.695-12.7-12.775-33.19-0.185-45.78l413.764-413.766
			C914.659,268.489,935.154,268.569,947.844,281.262L947.844,281.262z"/>
	</g>
</g>
<g>
	<g transform="scale(0.1953125, 0.1953125)">
		<path fill="#FFFFFF" d="M2016.776,526.624c-8.575,212.352-182.81,382.014-397.259,382.014
			c-219.934,0-398.224-178.292-398.224-398.214c0-219.932,178.29-398.221,398.224-398.221c137.925,0,258.519,70.792,329.949,177.357
			V134.958c0-12.56,10.17-22.755,22.76-22.755c12.58,0,22.75,10.195,22.75,22.755v204.797c0,12.585-10.17,22.755-22.75,22.755
			h-204.794c-12.59,0-22.76-10.17-22.76-22.755c0-12.56,10.17-22.755,22.76-22.755h145.86
			c-63.055-95.615-170.67-159.285-293.774-159.285c-194.799,0-352.699,157.9-352.699,352.702
			c0,194.789,157.9,352.709,352.699,352.709c190.964,0,346.064-151.85,352.144-341.309h0.59
			c0.045-12.537,10.195-22.687,22.73-22.687c12.585,0,22.76,10.2,22.76,22.757C2017.736,523.574,2017.146,525.054,2016.776,526.624z
			 M1949.466,317.002v-5.325l-9.08,5.325H1949.466z"/>
	</g>
</g>
<g>
	<g transform="scale(0.1953125, 0.1953125)">
		<path fill="#FFFFFF" d="M3220.833,256.602c11.87,11.137,23.025,22.93,33.33,35.33c0.325,0.377,2.29,2.327,2.16,2.657
			c0-0.098-3.275-4.135-0.85-1.05c1.18,1.425,2.295,2.87,3.41,4.297c2.495,3.232,4.985,6.51,7.35,9.825
			c4.79,6.607,9.38,13.417,13.775,20.32c8.66,13.712,16.405,27.917,23.16,42.58c0.395,0.788,0.72,1.658,1.115,2.492
			c0.395,0.772,1.97,3.265,0.325,0.622c-1.77-3,0.335,0.74,0.53,1.28c0.395,0.852,0.785,1.672,1.115,2.527
			c1.57,3.805,3.15,7.61,4.59,11.445c2.885,7.725,5.64,15.55,8.07,23.455c4.785,15.55,8.465,31.38,11.09,47.385
			c0.26,2.07,0.585,4.167,0.915,6.252c0.46,2.87-0.525-4.252-0.13-1.365c0.13,0.935,0.195,1.855,0.325,2.807
			c0.59,4.425,1.055,8.87,1.38,13.35c0.79,8.295,1.245,16.615,1.445,24.93c0.325,14.83-0.2,29.67-1.71,44.415
			c-0.325,3.38-0.72,6.76-1.115,10.135c-0.13,0.79-0.195,1.61-0.325,2.395c-0.395,2.69,0.66-4.69,0.265-2
			c-0.265,2-0.59,3.935-0.92,5.9c-1.115,6.865-2.36,13.65-3.935,20.455c-3.02,13.765-6.89,27.375-11.415,40.76
			c-2.23,6.23-4.53,12.465-7.02,18.57c-0.66,1.645-1.38,3.245-2.1,4.855c-0.59,1.475-3.285,7.085-0.265,0.885
			c-1.575,3.145-2.885,6.39-4.465,9.515c-11.805,24.66-26.435,48.12-43.425,69.8c-0.985,1.245-2.035,2.395-2.955,3.645
			c4.07-5.215,0.785-0.955-0.195,0.26c-2.425,2.85-4.79,5.645-7.285,8.4c-4.395,5.115-9.05,10.035-13.78,14.955
			c-9.64,9.845-19.81,19.19-30.435,28.015c-5.32,4.395-10.83,8.4-16.21,12.66c5.58-4.36,0.46-0.29-0.785,0.565
			c-1.445,1.045-2.885,2.06-4.33,3.045c-2.89,2.035-5.77,4.005-8.79,6.005c-11.485,7.58-23.36,14.6-35.63,21
			c-6.36,3.31-12.79,6.455-19.35,9.44c-3.02,1.38-6.165,2.76-9.25,4.065c-1.645,0.695-3.41,1.415-5.05,2.105
			c-1.185,0.52-3.81,1.38,1.9-0.75c-1.115,0.39-2.23,0.91-3.41,1.305c-13.12,5.115-26.505,9.61-40.22,13.32
			c-14.035,3.875-28.275,6.955-42.71,9.315c-3.475,0.59-6.955,1.08-10.495,1.58c-0.85,0.13-1.575,0.195-2.43,0.325
			c6.235-0.985,3.475-0.46,2.035-0.265c-2.035,0.23-4.135,0.46-6.23,0.69c-7.48,0.785-15.095,1.345-22.705,1.805
			c-14.89,0.755-29.85,0.72-44.675-0.1c-7.615-0.425-15.155-1.015-22.7-1.835c-1.64-0.165-3.28-0.365-4.925-0.56
			c-3.67-0.455,1.775,0.23,2.04,0.265c-0.985-0.165-2.04-0.265-3.085-0.43c-3.675-0.49-7.415-1.08-11.09-1.67
			c-28.605-4.755-56.55-12.625-83.45-23.095c-0.79-0.325-3.41-1.38-0.13-0.065c3.61,1.475-0.13-0.035-0.79-0.295
			c-1.51-0.625-2.885-1.25-4.395-1.87c-3.345-1.405-6.56-2.885-9.84-4.36c-6.565-3.02-12.925-6.175-19.29-9.485
			c-12.27-6.43-24.145-13.51-35.625-21.125c-2.95-1.935-5.835-3.965-8.725-5.97c-1.315-0.915-2.56-1.84-3.87-2.75
			c-0.655-0.465-1.245-0.925-1.9-1.38c-3.545-2.56,4.13,3.145,0.655,0.455c-5.45-4.13-10.83-8.325-16.075-12.695
			c-10.63-8.855-20.795-18.265-30.44-28.115c-4.66-4.915-9.25-9.87-13.78-14.985c-2.165-2.46-4.265-4.99-6.36-7.515
			c-0.525-0.585-0.985-1.18-1.51-1.77c-2.695-3.215,2.625,3.28,0.85,1.05c-1.05-1.375-2.165-2.725-3.28-4.135
			c-8.53-10.95-16.535-22.405-23.815-34.21c-7.085-11.55-13.645-23.52-19.48-35.69c-0.595-1.415-1.255-2.83-1.975-4.235
			c-0.325-0.69-2.82-6.365-1.245-2.815c1.57,3.57-0.85-1.975-1.18-2.825c-0.785-1.84-1.51-3.61-2.295-5.415
			c-2.495-6.33-4.855-12.695-7.155-19.15c-4.46-13.23-8.2-26.66-11.155-40.27c-1.44-6.775-2.755-13.58-3.8-20.44
			c-0.33-1.785-0.525-3.54-0.85-5.345c0.06,0.265,0.78,5.495,0.325,2c-0.135-0.8-0.195-1.59-0.325-2.365
			c-0.465-3.59-0.86-7.195-1.185-10.755c-1.44-14.845-1.965-29.755-1.575-44.63c0.195-8.35,0.725-16.665,1.445-24.93
			c0.39-4.25,0.85-8.462,1.445-12.68c0.125-0.918,0.325-1.87,0.325-2.77c0,0.44-0.72,5.05-0.13,1.34
			c0.325-2.295,0.72-4.625,1.05-6.92c2.75-16.22,6.625-32.245,11.545-47.99c2.295-7.66,4.985-15.237,7.87-22.732
			c1.45-3.64,2.825-7.247,4.4-10.842c0.395-1.015,0.92-2.065,1.315-3.115c1.245-2.905-0.79,0.723-0.53,1.215
			c-0.39-0.64,2.56-5.545,2.82-6.235c6.76-14.385,14.5-28.39,23.1-41.855c4.39-6.907,8.985-13.68,13.84-20.29
			c2.165-2.938,4.33-5.822,6.555-8.707c1.255-1.628,2.5-3.233,3.81-4.84c1.835-2.395-3.415,4.1-0.46,0.508
			c0.785-0.85,1.445-1.723,2.23-2.62c10.105-12.04,20.925-23.455,32.475-34.28c8.075-7.662,8.6-21.945,0-29.507
			c-8.855-7.71-22.24-8.2-30.965,0c-50.78,47.73-88.63,107.595-108.845,172.89c-19.745,63.74-22.105,132.02-8,197.017
			c12.135,56.145,37.655,110.2,73.74,155.995c36.675,46.415,82.73,85.55,136.27,113.37c55.045,28.605,116.19,45.005,178.775,48.29
			c61.54,3.245,124.26-6.695,181.205-29.265c56.36-22.375,107.53-55.605,148.995-98.41c41.595-42.91,73.085-94.145,92.05-149.71
			c20.86-61.145,25.125-126.645,14.435-189.984c-11.42-67.97-42.39-131.705-87.265-185.402
			c-10.17-12.22-21.125-23.832-32.865-34.807c-8.07-7.675-22.83-8.347-30.9,0C3212.958,235.363,3212.108,248.42,3220.833,256.602
			L3220.833,256.602L3220.833,256.602z M2935.639,133.098c0,12.677,0,25.342,0,37.985c0,30.28,0,60.507,0,90.752
			c0,36.74,0,73.46,0,110.205c0,31.62,0,63.24,0,94.865c0,15.35-0.39,30.805,0,46.155c0.065,0.23,0,0.46,0,0.655
			c0,10.94,10.035,21.367,21.85,20.892c11.87-0.52,21.91-9.18,21.91-20.892c0-12.63,0-25.29,0-37.985c0-30.21,0-60.487,0-90.767
			c0-36.707,0-73.447,0-110.187c0-31.59,0-63.21,0-94.832c0-15.385,0.33-30.805,0-46.172c0-0.215,0-0.443,0-0.673
			c0-10.922-10.04-21.387-21.91-20.877C2945.674,112.743,2935.639,121.405,2935.639,133.098L2935.639,133.098L2935.639,133.098z"/>
	</g>
</g>
<g>
	<g transform="scale(0.1953125, 0.1953125)">
		<path fill="#FFFFFF" d="M4249.946,500.194h-659.908c-12.585,0-22.755-10.17-22.755-22.755s10.17-22.755,22.755-22.755h659.908
			c12.585,0,22.755,10.17,22.755,22.755S4262.531,500.194,4249.946,500.194z M4249.946,249.885h-659.908
			c-12.585,0-22.755-10.172-22.755-22.755c0-12.585,10.17-22.757,22.755-22.757h659.908c12.585,0,22.755,10.172,22.755,22.757
			C4272.701,239.712,4262.531,249.885,4249.946,249.885z M3590.037,704.994h659.908c12.585,0,22.755,10.175,22.755,22.755
			c0,12.585-10.17,22.76-22.755,22.76h-659.908c-12.585,0-22.755-10.175-22.755-22.76
			C3567.282,715.169,3577.452,704.994,3590.037,704.994z"/>
	</g>
</g>
</svg>
