<?xml version="1.0" encoding="utf-8"?>
<!-- Generator: Adobe Illustrator 15.0.0, SVG Export Plug-In . SVG Version: 6.00 Build 0)  -->
<!DOCTYPE svg PUBLIC "-//W3C//DTD SVG 1.1//EN" "http://www.w3.org/Graphics/SVG/1.1/DTD/svg11.dtd">
<svg version="1.1" id="图层_1" xmlns="http://www.w3.org/2000/svg" xmlns:xlink="http://www.w3.org/1999/xlink" x="0px" y="0px"
	 width="200px" height="200px" viewBox="0 0 200 200" enable-background="new 0 0 200 200" xml:space="preserve">
<g>
	<g transform="scale(0.1953125, 0.1953125)">
		<path fill="#FFFFFF" d="M59.32,46.23h130.96c11.882,0,21.602,9.722,21.602,21.605v80.245c0,11.882-9.72,21.602-21.602,21.602
			H59.32c-11.882,0-21.605-9.72-21.605-21.602V67.835C37.715,55.952,47.437,46.23,59.32,46.23z M204.404,86.425H44.515v62.625
			c0,7.535,6.162,13.697,13.697,13.697H190.71c7.532,0,13.697-6.162,13.697-13.697V86.425H204.404z M44.512,79.177h159.892V66.865
			c0-7.532-6.162-13.697-13.695-13.697H58.21c-7.532,0-13.697,6.165-13.697,13.697V79.177L44.512,79.177z M62.847,100.495h65.237
			c2.003,0,3.62,1.625,3.62,3.625l0,0c0,2.002-1.62,3.625-3.62,3.625H62.847c-2,0-3.625-1.622-3.625-3.625l0,0
			C59.222,102.12,60.847,100.495,62.847,100.495z M172.38,118.83h13.857c2,0,3.625,1.622,3.625,3.625l0,0
			c0,2.002-1.625,3.622-3.625,3.622H172.38c-2.002,0-3.625-1.62-3.625-3.622l0,0C168.755,120.452,170.377,118.83,172.38,118.83z
			 M172.38,133.115h13.857c2,0,3.625,1.622,3.625,3.622l0,0c0,2.002-1.625,3.625-3.625,3.625H172.38
			c-2.002,0-3.625-1.622-3.625-3.625l0,0C168.755,134.737,170.377,133.115,172.38,133.115z"/>
	</g>
</g>
<g>
	<g transform="scale(0.1953125, 0.1953125)">
		<path fill="#FFFFFF" d="M425.159,87.465c-2.07,0-3.74,1.677-3.74,3.735v71.03h-18.685v-48.597c0-2.062-1.68-3.735-3.742-3.735
			c-2.06,0-3.737,1.672-3.737,3.735v48.597h-18.69v-22.432c0-2.062-1.677-3.735-3.74-3.735c-2.068,0-3.74,1.673-3.74,3.735v22.432
			h-22.43v-41.122c0-2.062-1.673-3.735-3.737-3.735c-2.063,0-3.737,1.673-3.737,3.735v41.122h-22.425v-52.332
			c0-2.065-1.67-3.74-3.735-3.74s-3.74,1.675-3.74,3.74v52.332h-18.69v-33.642c0-2.065-1.675-3.737-3.74-3.737
			c-2.065,0-3.74,1.672-3.74,3.737v37.38c0,2.06,1.675,3.737,3.74,3.737h138.32c2.06,0,3.735-1.677,3.735-3.737V91.2
			C428.894,89.142,427.224,87.465,425.159,87.465z M428.619,48.695c-0.552-1.37-1.885-2.355-3.457-2.355h-22.427
			c-2.065,0-3.742,1.677-3.742,3.74c0,2.06,1.675,3.735,3.742,3.735h14.742l-47.562,47.562l-36.182-36.18
			c-1.457-1.467-3.822-1.467-5.287,0l-38.825,38.82c-1.46,1.46-1.46,3.825,0,5.285c0.735,0.735,1.687,1.097,2.645,1.097
			c0.952,0,1.915-0.362,2.645-1.097l36.18-36.18l36.182,36.18c0.73,0.735,1.685,1.097,2.643,1.097c0.955,0,1.915-0.362,2.645-1.097
			l48.862-48.855v12.065c0,2.063,1.672,3.74,3.732,3.74c2.065,0,3.74-1.677,3.74-3.74V52.68
			C429.594,51.41,429.504,49.88,428.619,48.695z"/>
	</g>
</g>
<g>
	<g transform="scale(0.1953125, 0.1953125)">
		<path fill="#FFFFFF" d="M639.108,126.202c-1.77,0-2.17,1.442-2.17,3.22v32.19c0,1.783-2.49,3.522-4.26,3.522h-96.59
			c-1.77,0-4.11-1.74-4.11-3.522l-0.15-32.19c0-1.777-0.4-3.22-2.18-3.22c-1.77,0-2.17,1.442-2.17,3.22v32.19
			c0,5.327,3.29,7.87,8.61,7.87h96.59c5.32,0,8.61-2.542,8.61-7.87v-32.19C641.288,127.645,640.888,126.202,639.108,126.202
			L639.108,126.202z M646.498,79.162c-0.04-1.332-0.37-2.647-0.98-3.907l0.03-0.025c0,0-13.76-26.057-13.88-26.262
			c-1.4-2.715-2.17-2.737-8.75-2.737h-77.07c-5.41,0-5.61-0.005-7.63,3.347l-14.75,25.18l-0.02,0.063v0.052
			c-0.73,1.382-1.14,2.827-1.19,4.325c-0.01,0.03-0.02,0.073-0.02,0.125v22.502c0,10.715,6.06,17.187,16.27,17.187
			c6.14,0,11.83-3.167,15.29-8.49c3.46,5.32,9.16,8.49,15.29,8.49c6.13,0,11.83-3.167,15.29-8.49c3.46,5.32,9.16,8.49,15.29,8.49
			c6.14,0,11.84-3.167,15.29-8.49c3.47,5.32,9.16,8.49,15.3,8.49c10.21,0,16.27-6.47,16.27-17.187V79.322
			C646.528,79.272,646.518,79.227,646.498,79.162L646.498,79.162z M541.768,53.047c0.99-1.645,2.19-2.315,4.08-2.315h77.07
			c1.96,0,3.56,0.2,4.83,2.312c2.32,3.87,8.16,14.855,9.23,16.63h-105.19C532.854,67.9,539.428,56.885,541.768,53.047
			L541.768,53.047z M642.328,101.827c0,6.992-5.41,12.682-12.07,12.682c-6.66,0-12.07-4.2-12.07-11.19v-3.21
			c0-1.86-1.45-3.375-3.22-3.375c-1.78,0-3.22,1.515-3.22,3.375v3.21c0,6.99-5.42,11.19-12.08,11.19c-6.65,0-12.06-4.2-12.06-11.19
			v-3.21c0-1.86-1.45-3.375-3.23-3.375c-1.78,0-3.21,1.515-3.21,3.375v3.21c0,6.99-5.41,11.19-12.07,11.19
			c-6.66,0-12.08-4.2-12.08-11.19v-3.21c0-1.86-1.44-3.375-3.21-3.375c-1.78,0-3.23,1.515-3.23,3.375v3.21
			c0,6.99-5.41,11.19-12.07,11.19c-6.65,0-12.06-5.692-12.06-12.682v-22.46c0.06-1.652,1.39-5.185,3.02-5.185h109.85
			c1.63,0,2.96,3.532,3.01,5.175v22.467l0,0V101.827z"/>
	</g>
</g>
<g>
	<g transform="scale(0.1953125, 0.1953125)">
		<path fill="#FFFFFF" d="M912.148,108.905h0.12V56.03c0-5.345-4.82-9.69-10.75-9.69h-135.45c-5.93,0-10.75,4.345-10.75,9.69v95.495
			c0,5.34,4.82,9.687,10.75,9.687h82.5c6.93,4.497,15.01,6.912,23.46,6.912c11.53,0,22.38-4.492,30.53-12.65
			c8.16-8.152,12.65-18.997,12.65-30.532C915.208,119.357,914.158,113.94,912.148,108.905z M760.818,56.03
			c0-2.317,2.35-4.195,5.25-4.195h135.45c2.9,0,5.25,1.877,5.25,4.195v16.475h-145.95V56.03z M766.068,155.719
			c-2.9,0-5.25-1.885-5.25-4.195V78.112h145.95v21.172c-1.27-1.715-2.67-3.342-4.21-4.88c-8.16-8.157-19-12.65-30.53-12.65
			s-22.38,4.49-30.54,12.65s-12.65,19.005-12.65,30.535c0,11.535,4.49,22.38,12.65,30.53c0.08,0.085,0.17,0.165,0.25,0.245h-75.67
			V155.719z M872.028,162.629c-20.79,0-37.69-16.907-37.69-37.687c0-20.785,16.9-37.687,37.69-37.687
			c20.78,0,37.69,16.902,37.69,37.687C909.718,145.722,892.808,162.629,872.028,162.629z M884.318,99.98l-8.27,15.235
			c-2.2,4.132-3.55,6.875-4.04,8.237h-0.15c-1.45-3.307-5.55-11.137-12.31-23.472h-7.78l14.46,24.845h-11.85v5.487h13.9v7.565h-13.9
			v5.557h13.9v11.015h6.89v-11.015h13.41v-5.557h-13.41v-7.565h13.41v-5.487h-11.51l14.61-24.845H884.318z"/>
	</g>
</g>
<g>
	<g transform="scale(0.1953125, 0.1953125)">
		<path fill="#FFFFFF" d="M142.484,301.607H87.54c-9.41,0-17.04,7.48-17.04,16.71v87.71c0,9.232,7.63,16.71,17.04,16.71h74.525
			c9.41,0,17.03-7.478,17.03-16.71v-66.96L142.484,301.607z M140.465,307.082l31.395,32.117h-31.395V307.082z M173.779,406.024
			c0,6.34-5.26,11.49-11.715,11.49H87.54c-6.46,0-11.715-5.15-11.715-11.49v-87.71c0-6.335,5.255-11.49,11.715-11.49h47.705v32.37
			v5.22h5.22h33.315V406.024L173.779,406.024z M96.605,349.644h56.39v4.17h-56.39V349.644z M96.605,368.434h56.39v4.175h-56.39
			V368.434z M96.605,385.144h56.39v4.175h-56.39V385.144z"/>
	</g>
</g>
<g>
	<g transform="scale(0.1953125, 0.1953125)">
		<path fill="#FFFFFF" d="M344.054,408.349c-0.65,0-1.28-0.26-1.745-0.725l-24.845-24.845c-0.96-0.96-0.96-2.525,0-3.485
			c0.965-0.962,2.53-0.962,3.485,0l23.105,23.1l49.92-49.915c0.96-0.965,2.525-0.965,3.49,0c0.96,0.96,0.96,2.52,0,3.49
			l-51.665,51.655C345.339,408.089,344.714,408.349,344.054,408.349z M407.989,424.094h-103.53c-5.6,0-10.16-4.56-10.16-10.16
			v-90.95c0-5.6,4.56-10.162,10.16-10.162h19.975c1.365,0,2.47,1.103,2.47,2.467c0,1.36-1.105,2.465-2.47,2.465h-19.975
			c-2.88,0-5.23,2.345-5.23,5.23v90.95c0,2.885,2.35,5.23,5.23,5.23h103.53c2.885,0,5.235-2.345,5.235-5.23v-48.167
			c0-1.362,1.1-2.47,2.46-2.47s2.47,1.107,2.47,2.47v48.167C418.154,419.534,413.589,424.094,407.989,424.094z M371.999,317.669
			h-30.68c-1.36,0-2.47-1.105-2.47-2.47c0-1.36,1.11-2.465,2.47-2.465h30.68c1.36,0,2.465,1.105,2.465,2.465
			C374.464,316.564,373.359,317.669,371.999,317.669z M415.779,341.017H296.677c-1.365,0-2.47-1.102-2.47-2.465
			c0-1.365,1.105-2.467,2.47-2.467h116.55v-13.1c0-2.885-2.35-5.23-5.235-5.23h-20.3c-1.36,0-2.47-1.103-2.47-2.465
			c0-1.365,1.11-2.467,2.47-2.467h20.3c5.6,0,10.165,4.563,10.165,10.162v14.887c0.06,0.215,0.095,0.443,0.095,0.68
			C418.249,339.914,417.139,341.017,415.779,341.017z M332.777,330.017c-4.895,0-8.87-3.98-8.87-8.867v-12.037
			c0-4.887,3.975-8.862,8.87-8.862c4.88,0,8.86,3.975,8.86,8.862v12.037C341.637,326.037,337.654,330.017,332.777,330.017z
			 M332.777,305.184c-2.175,0-3.935,1.76-3.935,3.925v12.035c0,2.165,1.76,3.93,3.935,3.93c2.16,0,3.92-1.765,3.92-3.93v-12.035
			C336.697,306.944,334.937,305.184,332.777,305.184z M379.684,330.017c-4.89,0-8.865-3.98-8.865-8.867v-12.037
			c0-4.887,3.975-8.862,8.865-8.862c4.885,0,8.865,3.975,8.865,8.862v12.037C388.549,326.037,384.569,330.017,379.684,330.017z
			 M379.684,305.184c-2.17,0-3.93,1.76-3.93,3.925v12.035c0,2.165,1.76,3.93,3.93,3.93s3.925-1.765,3.925-3.93v-12.035
			C383.609,306.944,381.854,305.184,379.684,305.184z M418.259,352.107c0,1.365-1.115,2.475-2.48,2.475s-2.475-1.11-2.475-2.475
			c0-1.368,1.11-2.478,2.475-2.478S418.259,350.739,418.259,352.107"/>
	</g>
</g>
<g>
	<g transform="scale(0.1953125, 0.1953125)">
		<path fill="#FFFFFF" d="M648.148,326.452c-5.27-0.365-10.57-1.355-15.11-2.81c-1.47-0.443-2.94-0.932-4.42-1.462
			c-3.13-0.92-7.37-2.745-12.2-5.342c-0.05-0.025-0.1-0.052-0.15-0.08c-1.13-0.613-2.29-1.268-3.47-1.96
			c-1.59-0.913-3.17-1.883-4.74-2.895c-0.06-0.042-0.12-0.077-0.18-0.12c-1.13-0.727-2.26-1.482-3.38-2.262
			c-0.72-0.5-1.45-1.03-2.18-1.555c-0.54-0.405-1.09-0.78-1.64-1.195c-4-2.99-7.95-6.345-11.65-9.96
			c-3.71,3.615-7.66,6.97-11.66,9.96c-0.55,0.415-1.1,0.79-1.65,1.195c-0.72,0.525-1.45,1.055-2.18,1.555
			c-1.12,0.78-2.24,1.535-3.37,2.262c-0.06,0.043-0.12,0.078-0.18,0.12c-1.57,1.013-3.15,1.983-4.74,2.895
			c-1.18,0.692-2.34,1.347-3.47,1.96c-0.05,0.027-0.1,0.055-0.15,0.08c-4.83,2.598-9.07,4.422-12.2,5.342
			c-1.48,0.53-2.95,1.02-4.42,1.462c-4.54,1.455-9.84,2.445-15.11,2.81h-0.01c0.15,2.36,0.31,5.495,0.49,8.887
			c0.03,0,0.07,0,0.1-0.005c0.89,12.66,3.43,30.67,7.26,41.25c0.17,0.46,0.31,0.945,0.49,1.4c0.08,0.215,0.17,0.415,0.25,0.63
			c9.16,23.655,25.08,40.87,44.2,47.175v0.065c2.53,0.835,4.66,1.35,6.35,1.675c1.68-0.325,3.81-0.84,6.34-1.675v-0.065
			c19.12-6.305,35.04-23.52,44.2-47.175c0.08-0.21,0.17-0.41,0.25-0.63c0.18-0.455,0.32-0.94,0.49-1.4
			c3.83-10.58,6.37-28.59,7.26-41.25c0.03,0.005,0.07,0.005,0.1,0.005c0.18-3.395,0.34-6.527,0.49-8.887H648.148z M641.238,332.564
			l-0.08,1.39c-0.07,0.313-0.12,0.64-0.15,0.965c-0.82,11.785-3.15,29.255-6.9,39.61c-0.1,0.28-0.2,0.57-0.3,0.855
			c-0.06,0.18-0.12,0.36-0.21,0.59c-0.07,0.18-0.15,0.36-0.2,0.495c-8.52,21.99-23.17,37.825-40.2,43.44
			c-0.27,0.092-0.53,0.2-0.79,0.325c-1.16,0.36-2.29,0.665-3.39,0.92c-1.08-0.25-2.21-0.56-3.37-0.915
			c-0.25-0.125-0.52-0.235-0.8-0.325c-17.03-5.615-31.68-21.45-40.18-43.405c-0.07-0.175-0.14-0.345-0.25-0.605
			c-0.07-0.17-0.12-0.355-0.18-0.53c-0.1-0.285-0.2-0.575-0.29-0.815c-3.76-10.39-6.08-27.865-6.91-39.645
			c-0.02-0.33-0.07-0.655-0.15-0.973l-0.07-1.355c-0.02-0.217-0.03-0.435-0.04-0.65c3.6-0.555,7.06-1.36,10.21-2.37
			c1.48-0.443,2.99-0.938,4.59-1.51c3.68-1.107,8.24-3.1,13.21-5.772c0.08-0.04,0.17-0.085,0.24-0.128
			c1.2-0.647,2.43-1.337,3.62-2.04c1.57-0.895,3.21-1.902,5.04-3.075c0.05-0.033,0.14-0.09,0.19-0.123
			c1.19-0.775,2.39-1.575,3.52-2.365c0.66-0.455,1.32-0.935,1.99-1.42l0.36-0.255l0.59-0.425c0.37-0.27,0.75-0.54,1.1-0.805
			c2.61-1.95,5.15-4.005,7.59-6.145c2.43,2.14,4.96,4.19,7.56,6.125c0.37,0.285,0.75,0.552,1.12,0.825l0.62,0.445l0.23,0.165
			c0.7,0.51,1.4,1.015,2.04,1.453c1.18,0.83,2.38,1.63,3.46,2.33l0.3,0.197c1.81,1.165,3.46,2.17,4.98,3.04
			c1.25,0.735,2.48,1.425,3.65,2.06c0.06,0.033,0.14,0.073,0.22,0.115c4.99,2.69,9.57,4.69,13.26,5.8
			c1.61,0.57,3.11,1.065,4.47,1.475c3.23,1.035,6.72,1.845,10.33,2.405C641.258,332.147,641.248,332.357,641.238,332.564z
			 M617.948,347.469l-34.21,35.06l-17.51-17.95c-1.21-1.245-3.18-1.245-4.39,0c-1.22,1.243-1.22,3.26,0,4.505l19.71,20.2
			c0.61,0.62,1.4,0.93,2.19,0.93c0.8,0,1.59-0.31,2.2-0.93l36.41-37.315c1.21-1.245,1.21-3.26,0-4.505
			C621.128,346.227,619.168,346.227,617.948,347.469z"/>
	</g>
</g>
<path fill="#FFFFFF" d="M170.471,63.989l-0.92,0.421l-0.412-3.083l-0.587,0.269l0.31,1.865c0.086,0.504,0.152,0.835,0.199,0.993
	l-0.012,0.005c-0.326-0.287-1.15-0.938-2.477-1.958l-0.62,0.285l2.733,2.02l-0.945,0.433l0.347,0.563l1.11-0.508l0.482,0.776
	l-1.111,0.508l0.354,0.57l1.107-0.508l0.701,1.13l0.552-0.252l-0.7-1.13l1.068-0.49l-0.353-0.57l-1.071,0.49l-0.479-0.776l1.07-0.49
	L170.471,63.989z"/>
<path fill="#FFFFFF" d="M164.621,67.033c-0.036-0.013-0.083-0.022-0.139-0.025c-0.215-0.011-0.481,0.069-0.599,0.181
	c-0.188,0.183-0.438,0.368-0.724,0.552c-0.557,0.356-1.268,0.71-2.027,1.042c-1.637,0.715-3.494,1.325-4.512,1.641
	c-0.465,0.144-0.756,0.228-0.77,0.232c-0.129,0.038-0.228,0.092-0.281,0.148c-0.047,0.047-0.064,0.096-0.034,0.137
	C155.59,71.022,155.79,71.045,156,71c0.021-0.005,0.048-0.01,0.072-0.018c0.056-0.015,0.367-0.105,0.848-0.253
	c1.862-0.578,6.244-2.045,7.742-3.496C164.748,67.148,164.727,67.073,164.621,67.033L164.621,67.033z"/>
<path fill="#FFFFFF" d="M162.74,71.208c-0.021-0.016-0.049-0.029-0.08-0.039c-0.129-0.037-0.292-0.003-0.367,0.074
	c-0.122,0.129-0.281,0.25-0.464,0.367c-0.353,0.226-0.794,0.43-1.269,0.609c-1.018,0.385-2.158,0.657-2.783,0.791
	c-0.285,0.061-0.463,0.093-0.473,0.095c-0.078,0.014-0.141,0.047-0.177,0.087c-0.028,0.034-0.043,0.071-0.028,0.109
	c0.027,0.074,0.146,0.118,0.273,0.108c0.016-0.001,0.029-0.003,0.044-0.005c0.034-0.006,0.228-0.042,0.521-0.104
	c1.144-0.243,3.838-0.906,4.813-1.922C162.811,71.319,162.798,71.253,162.74,71.208L162.74,71.208L162.74,71.208z"/>
<path fill="#FFFFFF" d="M163.852,65.224c0.086-0.083,0.062-0.159-0.043-0.197v-0.001c-0.035-0.014-0.082-0.022-0.139-0.026
	c-0.213-0.011-0.48,0.07-0.596,0.182c-0.189,0.183-0.438,0.368-0.725,0.552c-0.558,0.356-1.268,0.71-2.027,1.042
	c-1.637,0.714-3.495,1.326-4.512,1.641c-0.465,0.144-0.756,0.228-0.771,0.232c-0.126,0.037-0.225,0.09-0.277,0.148
	c-0.048,0.047-0.066,0.095-0.037,0.136c0.055,0.081,0.256,0.104,0.465,0.058c0.022-0.004,0.049-0.01,0.072-0.017
	c0.055-0.016,0.37-0.106,0.848-0.254C157.973,68.142,162.353,66.674,163.852,65.224z"/>
<path fill="#FFFFFF" d="M171.127,58.469l-0.184-0.034c-3.594-0.658-5.229,0.518-7.932,2.469c-0.638,0.458-1.335,0.962-2.139,1.497
	c-4.047,2.697-10.105,4.085-10.168,4.1l-0.439,0.1l1.853,3.889c-1.999,0.672-3.5,1.017-3.532,1.025l-0.439,0.1l5.438,11.413
	l0.191,0.027c0.06,0.008,0.488,0.064,1.166,0.064c1.814,0,5.416-0.398,8.563-3.161c6.719-5.899,10.383-4.524,10.415-4.509
	l0.865,0.365l-2.382-5.082c2.365-0.771,3.615-0.304,3.637-0.296l0.863,0.364L171.127,58.469z M173.419,74.603
	c-1.479-0.177-5.021,0.091-10.394,4.811c-3.623,3.179-8.01,3.021-8.963,2.943l-4.879-10.245c0.61-0.154,1.811-0.475,3.25-0.962
	l3.27,6.864l0.191,0.027c0.061,0.007,0.485,0.064,1.168,0.064c1.812,0,5.414-0.397,8.56-3.161c2.448-2.15,4.489-3.332,6.099-3.966
	L173.419,74.603z M172.09,70.063l-0.68,0.252c-1.682,0.674-3.773,1.897-6.266,4.086c-3.621,3.18-8.008,3.018-8.961,2.942
	l-3.064-6.433l-0.313-0.662l-1.502-3.15c1.488-0.373,6.403-1.721,9.971-4.099c0.813-0.541,1.525-1.056,2.158-1.512
	c2.586-1.865,4.028-2.908,7.196-2.375l4.908,10.477C174.84,69.507,173.68,69.53,172.09,70.063z"/>
<path fill="#FFFFFF" d="M39.061,113.352c-0.178,0-0.355-0.066-0.488-0.205L24.507,98.882l-14.335,14.271
	c-0.268,0.269-0.702,0.268-0.969-0.002c-0.265-0.27-0.265-0.7,0.002-0.969L24.03,97.425c0.127-0.127,0.302-0.199,0.482-0.199
	c0.001,0,0.003,0,0.003,0c0.182,0,0.356,0.073,0.485,0.204l14.547,14.755c0.266,0.27,0.263,0.703-0.006,0.967
	C39.409,113.284,39.234,113.352,39.061,113.352z"/>
<path fill="#FFFFFF" d="M18.21,125.025c-0.736,0-1.562-0.002-2.389-0.006c-0.926-0.006-1.657-0.3-2.168-0.871
	c-0.777-0.865-0.735-2.031-0.715-2.291v-13.108c0-0.379,0.306-0.685,0.685-0.685c0.378,0,0.685,0.306,0.685,0.685v13.137
	c0,0.026-0.001,0.042-0.003,0.068c-0.004,0.044-0.057,0.813,0.372,1.287c0.248,0.272,0.625,0.405,1.153,0.407
	c1.68,0.011,3.362,0.007,4.267,0.004v-6.322c0-0.377,0.306-0.686,0.684-0.686h7.972c0.378,0,0.686,0.309,0.686,0.686
	c0,0.379-0.307,0.686-0.686,0.686h-7.288v6.32c0,0.374-0.304,0.682-0.681,0.684C20.769,125.021,19.67,125.025,18.21,125.025z"/>
<path fill="#FFFFFF" d="M33.252,125.025H27.67c-0.377,0-0.685-0.309-0.685-0.687s0.307-0.685,0.685-0.685h5.582
	c0.348,0,0.843-0.059,1.123-0.567c0.177-0.321,0.19-0.67,0.191-0.694v-8.803c0-0.379,0.306-0.685,0.684-0.685
	c0.379,0,0.685,0.306,0.685,0.685v8.809c0,0.064-0.008,0.668-0.325,1.283C35.165,124.549,34.327,125.025,33.252,125.025z"/>
<path fill="#FFFFFF" d="M67.39,98.978h-9.455c-0.661,0-1.186,0.524-1.186,1.185v9.455c0,0.662,0.524,1.187,1.186,1.187h9.455
	c0.661,0,1.186-0.522,1.186-1.187v-9.455C68.575,99.502,68.051,98.978,67.39,98.978z M67.55,109.617c0,0.091-0.068,0.16-0.16,0.16
	h-9.455c-0.091,0-0.16-0.069-0.16-0.16v-9.455c0-0.091,0.069-0.159,0.16-0.159h9.455c0.091,0,0.16,0.068,0.16,0.159V109.617z"/>
<path fill="#FFFFFF" d="M64.315,102.486h-3.281c-0.41,0-0.751,0.342-0.751,0.752v3.279c0,0.412,0.342,0.754,0.751,0.754h3.281
	c0.41,0,0.751-0.342,0.751-0.754v-3.279C65.066,102.828,64.725,102.486,64.315,102.486z M64.041,106.246h-2.734v-2.734h2.734
	V106.246z M64.315,116.521h-3.281c-0.41,0-0.751,0.343-0.751,0.752v3.281c0,0.408,0.342,0.752,0.751,0.752h3.281
	c0.41,0,0.751-0.344,0.751-0.752v-3.281C65.066,116.84,64.725,116.521,64.315,116.521z M64.041,120.258h-2.734v-2.734h2.734V120.258
	z M74.84,107.271h3.28c0.411,0,0.752-0.342,0.752-0.754v-3.279c0-0.41-0.342-0.752-0.752-0.752h-3.28
	c-0.411,0-0.751,0.342-0.751,0.752v3.279C74.089,106.93,74.43,107.271,74.84,107.271z M75.114,103.512h2.733v2.734h-2.733V103.512z"
	/>
<path fill="#FFFFFF" d="M67.39,112.898h-9.455c-0.661,0-1.186,0.522-1.186,1.185v9.456c0,0.66,0.524,1.186,1.186,1.186h9.455
	c0.661,0,1.186-0.523,1.186-1.186v-9.456C68.575,113.445,68.051,112.898,67.39,112.898z M67.55,123.539
	c0,0.091-0.068,0.159-0.16,0.159h-9.455c-0.091,0-0.16-0.068-0.16-0.159v-9.456c0-0.091,0.069-0.16,0.16-0.16h9.455
	c0.091,0,0.16,0.069,0.16,0.16V123.539z M71.811,112.945c-0.661,0-1.185,0.521-1.185,1.184v5.444c0,0.274,0.228,0.524,0.523,0.524
	c0.274,0,0.523-0.229,0.523-0.524v-5.444c0-0.091,0.069-0.159,0.16-0.159h5.719c0.273,0,0.523-0.229,0.523-0.524
	c0-0.295-0.228-0.521-0.523-0.521H71.81L71.811,112.945L71.811,112.945z M71.742,110.803h9.455c0.661,0,1.184-0.521,1.184-1.186
	v-9.455c0-0.661-0.523-1.185-1.184-1.185h-9.455c-0.661,0-1.186,0.524-1.186,1.185v9.455
	C70.557,110.255,71.104,110.803,71.742,110.803z M71.582,100.14c0-0.091,0.069-0.16,0.16-0.16h9.455c0.091,0,0.159,0.069,0.159,0.16
	v9.456c0,0.09-0.068,0.158-0.159,0.158h-9.455c-0.091,0-0.16-0.068-0.16-0.158V100.14z M82.404,113.468
	c0-0.272-0.228-0.522-0.523-0.522h-1.892c-0.273,0-0.523,0.229-0.523,0.522c0,0.298,0.227,0.524,0.523,0.524h1.367v1.98h-4.283
	c-0.274,0-0.524,0.229-0.524,0.524s0.228,0.521,0.524,0.521h4.784c0.274,0,0.523-0.227,0.523-0.521v-3.031L82.404,113.468
	L82.404,113.468z M72.904,123.721h-1.253v-1.437c0-0.271-0.228-0.523-0.524-0.523c-0.272,0-0.523,0.229-0.523,0.523v1.961
	c0,0.272,0.228,0.524,0.523,0.524h1.778c0.272,0,0.523-0.229,0.523-0.524C73.428,123.949,73.201,123.721,72.904,123.721z
	 M78.6,119.732c0-0.271-0.227-0.523-0.524-0.523h-3.258c-0.273,0-0.523,0.229-0.523,0.523v4.559c0,0.273,0.227,0.523,0.523,0.523
	s0.524-0.229,0.524-0.523v-4.033h2.734C78.373,120.234,78.6,120.007,78.6,119.732z M81.88,117.842c-0.272,0-0.523,0.229-0.523,0.525
	v5.422h-4.671c-0.274,0-0.524,0.229-0.524,0.523c0,0.293,0.228,0.522,0.524,0.522h5.172c0.273,0,0.523-0.229,0.523-0.522v-5.945
	C82.381,118.093,82.154,117.842,81.88,117.842z"/>
<path fill="#FFFFFF" d="M73.633,115.063c-0.273,0-0.524,0.228-0.524,0.523v1.663c0,0.272,0.229,0.524,0.524,0.524
	c0.296,0,0.524-0.229,0.524-0.524v-1.663C74.134,115.291,73.906,115.063,73.633,115.063z"/>
<path fill="#FFFFFF" d="M126.902,103.188h-3.256l-1.865-2.407c-0.439-0.665-0.879-1.127-1.506-1.127h-7.918
	c-0.625,0-1.012,0.418-1.481,1.127l-1.886,2.407h-3.26c-1.869,0-2.98,1.625-2.98,3.965v12.695c0,2.342,1.521,4.235,3.393,4.235
	H126.5c1.871,0,3.393-1.896,3.393-4.235v-12.703C129.885,104.813,128.773,103.188,126.902,103.188L126.902,103.188z
	 M128.707,119.617c0,1.834-1.125,3.316-2.505,3.316h-19.771c-1.379,0-2.504-1.49-2.504-3.316v-12.331
	c0-1.476,0.551-3.058,2.109-3.058h3.16c0.246,0,0.47-0.109,0.619-0.305l1.832-2.333c0.016-0.016,0.031-0.036,0.039-0.053
	c0.446-0.679,0.617-0.737,0.773-0.737h7.688c0.156,0,0.371,0.09,0.806,0.737c0.006,0.017,0.021,0.03,0.036,0.053l1.813,2.333
	c0.148,0.194,0.381,0.305,0.627,0.305h3.16c0.625,0,1.133,0.256,1.49,0.754c0.395,0.537,0.611,1.356,0.611,2.313L128.707,119.617
	L128.707,119.617z"/>
<path fill="#FFFFFF" d="M116.316,106.443c-3.75,0-6.782,3.041-6.782,6.785c0,3.75,3.041,6.782,6.782,6.782
	c3.75,0,6.783-3.042,6.783-6.782C123.102,109.479,120.066,106.443,116.316,106.443L116.316,106.443z M116.316,118.818
	c-3.086,0-5.59-2.506-5.59-5.59c0-3.088,2.504-5.593,5.59-5.593c3.088,0,5.593,2.505,5.593,5.593
	C121.909,116.313,119.404,118.818,116.316,118.818L116.316,118.818z"/>
<path fill="#FFFFFF" d="M175.126,124.774h-20.819c-1.119,0-2.027-0.866-2.027-1.932v-19.568c0-1.066,0.908-1.932,2.027-1.932h20.819
	c1.114,0,2.025,0.869,2.025,1.932v19.568C177.151,123.908,176.24,124.774,175.126,124.774z M154.307,102.256
	c-0.616,0-1.114,0.458-1.114,1.019v19.568c0,0.561,0.501,1.018,1.114,1.018h20.819c0.613,0,1.11-0.457,1.11-1.018v-19.568
	c0-0.561-0.497-1.019-1.11-1.019H154.307z"/>
<path fill="#FFFFFF" d="M157.701,105.072c-0.253,0-0.455-0.204-0.455-0.457v-5.736c0-0.252,0.202-0.455,0.455-0.455
	c0.252,0,0.456,0.203,0.456,0.455v5.738C158.156,104.868,157.953,105.072,157.701,105.072z"/>
<path fill="#FFFFFF" d="M171.895,105.072c-0.249,0-0.453-0.204-0.453-0.457v-5.736c0-0.252,0.204-0.455,0.453-0.455
	c0.255,0,0.457,0.203,0.457,0.455v5.738C172.352,104.868,172.149,105.072,171.895,105.072z"/>
<path fill="#FFFFFF" d="M164.714,121.677c-4.015,0-7.28-3.282-7.28-7.314c0-0.253,0.204-0.457,0.457-0.457
	c0.252,0,0.456,0.204,0.456,0.457c0,3.529,2.857,6.399,6.367,6.399c3.515,0,6.371-2.87,6.371-6.399s-2.856-6.399-6.371-6.399
	c-2.13,0-4.107,1.062-5.292,2.843c-0.139,0.209-0.423,0.266-0.633,0.128c-0.207-0.14-0.268-0.424-0.126-0.631
	c1.352-2.038,3.614-3.255,6.051-3.255c4.016,0,7.283,3.282,7.283,7.314S168.729,121.677,164.714,121.677z"/>
<path fill="#FFFFFF" d="M164.714,114.819c-0.252,0-0.456-0.204-0.456-0.457v-3.81c0-0.25,0.204-0.456,0.456-0.456
	c0.251,0,0.457,0.202,0.457,0.456v3.81C165.171,114.615,164.965,114.819,164.714,114.819z"/>
<path fill="#FFFFFF" d="M166.987,117.104c-0.117,0-0.231-0.042-0.323-0.132l-2.272-2.288c-0.18-0.181-0.18-0.467,0.002-0.645
	c0.178-0.179,0.466-0.179,0.644,0l2.275,2.288c0.177,0.179,0.177,0.465-0.001,0.643C167.222,117.06,167.106,117.104,166.987,117.104
	z"/>
<path fill="#FFFFFF" d="M161.68,111.008h-3.031c-0.255,0-0.457-0.204-0.457-0.457v-3.046c0-0.251,0.202-0.457,0.457-0.457
	c0.249,0,0.455,0.204,0.455,0.457v2.592h2.576c0.255,0,0.457,0.202,0.457,0.456C162.141,110.806,161.935,111.008,161.68,111.008z"/>
</svg>
