<?xml version="1.0" encoding="utf-8"?>
<!-- Generator: Adobe Illustrator 15.0.0, SVG Export Plug-In . SVG Version: 6.00 Build 0)  -->
<!DOCTYPE svg PUBLIC "-//W3C//DTD SVG 1.1//EN" "http://www.w3.org/Graphics/SVG/1.1/DTD/svg11.dtd">
<svg version="1.1" id="图层_1" xmlns="http://www.w3.org/2000/svg" xmlns:xlink="http://www.w3.org/1999/xlink" x="0px" y="0px"
	 width="200px" height="200px" viewBox="0 0 200 200" enable-background="new 0 0 200 200" xml:space="preserve">
<g>
	<g transform="scale(0.1953125, 0.1953125)">
		<path fill="#FFFFFF" d="M881.578,735.908l-38.63-41.415c-5.365-5.755-9.125-10.065-11.27-12.94c-4.29-4.03-9.92-7.335-16.9-9.925
			c-6.975-2.585-12.88-1-17.71,4.75c-4.29,6.33-5.36,12.51-3.22,18.55c2.14,6.045,4.55,10.79,7.245,14.24l12.075,12.08
			c5.89,6.9,12.33,14.37,19.315,22.435c8.045,9.205,16.895,18.98,26.545,29.335l-0.8,18.12h-54.715
			c-4.835,0-8.985,2.01-12.475,6.045c-3.48,4.02-5.23,8.33-5.23,12.94c0,4.595,1.61,8.625,4.83,12.075
			c3.22,3.45,7.51,5.18,12.875,5.18h54.715v30.2h-54.715c-4.835,0-8.985,1.585-12.475,4.75c-3.48,3.165-5.23,7.345-5.23,12.51
			c-0.53,4.6,0.94,8.48,4.43,11.645c3.49,3.165,7.91,4.75,13.28,4.75h54.72v17.255c0.54,8.055,2.95,13.66,7.245,16.825
			c4.295,3.165,9.655,4.745,16.095,4.745c6.43,0.57,11.665-1.58,15.685-6.47c4.035-4.885,6.045-9.92,6.045-15.1v-17.265h56.33
			c5.36,0,9.79-1.295,13.28-3.885c3.49-2.585,4.96-6.755,4.43-12.51c0-12.07-7.51-18.115-22.535-18.115h-51.505l0.8-29.345
			l52.305-0.85c7.515,0.575,12.885-1.01,16.095-4.75c3.22-3.74,4.83-8.2,4.83-13.38c0-4.6-1.75-8.775-5.23-12.51
			c-3.49-3.74-8.98-5.61-16.495-5.61h-52.305v-16.395c9.12-9.195,17.43-18.115,24.945-26.745c6.445-6.91,12.875-13.955,19.315-21.14
			c6.445-7.2,11.27-12.225,14.49-15.1c12.33-11.51,15.02-21.57,8.05-30.2c-3.76-5.185-8.58-7.77-14.485-7.77
			s-11.265,2.305-16.095,6.905c-2.68,2.3-7.24,6.47-13.685,12.51c-6.445,6.045-12.875,12.225-19.315,18.555
			C899.013,718.363,890.693,726.703,881.578,735.908L881.578,735.908L881.578,735.908L881.578,735.908z M379.597,530.889v-0.14
			c0-12.55-10.147-22.687-22.827-22.687c-82.627,0-149.772-71.81-149.772-159.922c0-88.23,67.145-159.92,149.772-159.92
			c12.55,0,22.827-10.137,22.827-22.685c0-12.55-10.147-22.827-22.827-22.827c-107.725,0-195.294,92.245-195.294,205.432
			c0,75.425,38.847,141.37,96.517,177.145C135.177,568.664,46.545,691.338,46.545,835.368c0,12.55,10.147,22.695,22.695,22.695
			c12.55,0,22.687-10.145,22.687-22.695c0-155.38,118.802-281.794,264.704-281.794C369.319,553.574,379.597,543.439,379.597,530.889
			z M835.648,593.583c-8.73-6.025-18.35-11.205-28-15.995c-4.97-2.64-10.04-5.145-15.185-7.465c-1.63-0.735-3.25-1.45-4.86-2.15
			c-0.01,0-0.015-0.01-0.015-0.01l0,0c-22.82-9.96-43.925-17.035-61.88-22.125c78.71-38.96,132.96-120.097,132.96-213.709
			c0-131.352-106.915-238.274-238.404-238.274c-131.482,0-238.404,106.922-238.404,238.274c0,90.762,51.125,169.927,126.007,210.104
			c-156.04,48.055-269.637,193.555-269.637,365.214c0,12.55,10.145,22.695,22.825,22.695c12.547,0,22.685-10.145,22.685-22.695
			c0-185.54,150.975-336.514,334.914-336.654c2.4,0.27,4.805,0.135,7.075-0.4c3.845-0.085,7.67-0.27,11.48-0.54
			c0.13,0,0.26,0.01,0.4,0.01c33.63,0.8,97.445,20.825,135.76,38.315c5.605,2.55,11.02,5.32,16.255,8.22v0.02
			c7.15,4.08,14.195,8.49,21.115,13.255c9.98,6.89,23.615,4.385,30.495-5.595C848.118,614.108,845.618,600.468,835.648,593.583z
			 M620.263,525.014c-106.245,0-192.885-86.5-192.885-192.885s86.5-192.885,192.885-192.885c106.395,0,192.894,86.5,192.894,192.885
			C813.148,438.514,726.658,525.014,620.263,525.014z"/>
	</g>
</g>
</svg>
