<?xml version="1.0" encoding="utf-8"?>
<!-- Generator: Adobe Illustrator 15.0.0, SVG Export Plug-In . SVG Version: 6.00 Build 0)  -->
<!DOCTYPE svg PUBLIC "-//W3C//DTD SVG 1.1//EN" "http://www.w3.org/Graphics/SVG/1.1/DTD/svg11.dtd">
<svg version="1.1" id="图层_1" xmlns="http://www.w3.org/2000/svg" xmlns:xlink="http://www.w3.org/1999/xlink" x="0px" y="0px"
	 width="873px" height="451.5px" viewBox="0 0 873 451.5" enable-background="new 0 0 873 451.5" xml:space="preserve">
<path fill="#ECAD03" d="M136.024,35.372l-5.601,2.563l-2.513-18.78l-3.579,1.638l1.875,11.365c0.522,3.072,0.932,5.088,1.219,6.048
	l-0.068,0.031c-1.985-1.744-7.017-5.719-15.084-11.927l-3.785,1.731l16.66,12.307l-5.771,2.641l2.125,3.431l6.766-3.096l2.93,4.729
	l-6.766,3.095l2.154,3.475l6.765-3.096l4.268,6.884l3.354-1.536l-4.266-6.884l6.522-2.985l-2.149-3.475l-6.525,2.985l-2.93-4.729
	l6.522-2.985L136.024,35.372z"/>
<path fill="#ECAD03" d="M100.383,53.913c-0.224-0.078-0.506-0.136-0.84-0.153c-1.309-0.069-2.939,0.425-3.642,1.105
	c-1.149,1.114-2.658,2.238-4.409,3.362c-3.388,2.171-7.718,4.326-12.353,6.346c-9.976,4.35-21.297,8.071-27.494,9.996
	c-2.826,0.877-4.6,1.387-4.685,1.412c-0.777,0.224-1.37,0.557-1.71,0.902c-0.279,0.288-0.396,0.585-0.216,0.835
	c0.328,0.49,1.55,0.629,2.836,0.355c0.137-0.029,0.292-0.063,0.435-0.107c0.338-0.094,2.255-0.648,5.166-1.547
	c11.346-3.517,38.042-12.458,47.164-21.299c0.521-0.501,0.377-0.965-0.255-1.199L100.383,53.913L100.383,53.913z"/>
<path fill="#ECAD03" d="M88.92,79.349c-0.129-0.093-0.294-0.177-0.492-0.233c-0.775-0.225-1.777-0.021-2.232,0.455
	c-0.75,0.781-1.714,1.523-2.819,2.236c-2.145,1.375-4.849,2.616-7.728,3.707c-6.193,2.349-13.155,4.004-16.962,4.816
	c-1.732,0.371-2.819,0.568-2.874,0.579c-0.476,0.088-0.849,0.288-1.067,0.532c-0.186,0.204-0.271,0.437-0.18,0.667
	c0.168,0.449,0.892,0.72,1.671,0.656c0.083-0.007,0.18-0.015,0.268-0.034c0.208-0.035,1.382-0.252,3.168-0.63
	c6.965-1.482,23.392-5.524,29.333-11.716c0.339-0.352,0.279-0.755-0.084-1.03L88.92,79.349L88.92,79.349z"/>
<path fill="#ECAD03" d="M95.689,42.89c0.521-0.501,0.377-0.965-0.254-1.199l-0.002-0.007c-0.224-0.078-0.505-0.136-0.84-0.153
	c-1.306-0.069-2.939,0.425-3.638,1.104c-1.153,1.114-2.662,2.239-4.414,3.363c-3.388,2.171-7.714,4.326-12.352,6.346
	c-9.977,4.35-21.297,8.071-27.495,9.996c-2.823,0.877-4.6,1.387-4.684,1.412c-0.778,0.224-1.37,0.556-1.71,0.901
	c-0.279,0.288-0.395,0.585-0.217,0.835c0.329,0.49,1.55,0.628,2.837,0.354c0.137-0.029,0.292-0.062,0.435-0.107
	c0.339-0.094,2.256-0.648,5.166-1.547C59.872,60.672,86.568,51.731,95.689,42.89z"/>
<path fill="#ECAD03" d="M140.02,1.738l-1.115-0.204c-21.899-4.008-31.852,3.16-48.325,15.04c-3.875,2.79-8.133,5.859-13.021,9.12
	c-24.654,16.436-61.58,24.895-61.95,24.979l-2.687,0.606l11.284,23.692c-12.181,4.1-21.332,6.201-21.518,6.242L0,81.818
	l33.122,69.54l1.173,0.163c0.363,0.053,2.973,0.392,7.112,0.392c11.051,0,32.992-2.425,52.149-19.257
	c40.926-35.948,63.26-27.563,63.458-27.475l5.275,2.223l-14.5-30.958c14.401-4.697,22.024-1.853,22.143-1.804l5.276,2.223
	L140.02,1.738z M153.984,100.039c-9.007-1.078-30.596,0.559-63.329,29.313c-22.053,19.37-48.783,18.399-54.603,17.927L6.324,84.861
	c3.733-0.934,11.025-2.891,19.799-5.858l19.917,41.815l1.173,0.164c0.363,0.051,2.973,0.391,7.112,0.391
	c11.051,0,32.992-2.425,52.15-19.257c14.919-13.103,27.354-20.299,37.159-24.169L153.984,100.039z M145.887,72.381l-4.141,1.531
	c-10.241,4.105-22.99,11.564-38.176,24.9c-22.055,19.373-48.786,18.396-54.604,17.928L30.304,77.547l-1.919-4.029l-9.143-19.196
	c9.083-2.271,39.027-10.486,60.752-24.968c4.946-3.299,9.307-6.442,13.149-9.213C108.9,8.781,117.7,2.421,137.001,5.666
	L166.901,69.5C162.648,68.989,155.572,69.126,145.887,72.381z"/>
<path fill="#CF7FC3" d="M438.695,88.114c-0.966,0-1.932-0.373-2.663-1.114L359.229,9.104l-78.286,77.921
	c-1.464,1.458-3.83,1.452-5.288-0.012c-1.453-1.466-1.448-3.832,0.016-5.288l80.946-80.572c0.701-0.697,1.649-1.089,2.641-1.089
	c0.006,0,0.013,0,0.018,0c0.995,0.004,1.946,0.405,2.646,1.114l79.438,80.57c1.45,1.472,1.437,3.838-0.037,5.288
	C440.592,87.756,439.644,88.114,438.695,88.114z"/>
<path fill="#CF7FC3" d="M324.845,151.863c-4.02,0-8.531-0.009-13.045-0.035c-5.061-0.029-9.044-1.628-11.847-4.754
	c-4.238-4.727-4.013-11.092-3.897-12.52V62.985c0-2.065,1.674-3.739,3.739-3.739c2.063,0,3.739,1.674,3.739,3.739v71.733
	c0,0.141-0.007,0.236-0.021,0.373c-0.021,0.242-0.31,4.443,2.029,7.018c1.354,1.492,3.415,2.225,6.297,2.241
	c9.17,0.053,18.352,0.034,23.295,0.016v-34.522c0-2.065,1.673-3.74,3.736-3.74h43.535c2.065,0,3.739,1.675,3.739,3.74
	c0,2.064-1.674,3.738-3.739,3.738H342.61v34.508c0,2.057-1.662,3.728-3.718,3.738C338.809,151.83,332.812,151.863,324.845,151.863z"
	/>
<path fill="#CF7FC3" d="M406.978,151.865h-30.475c-2.065,0-3.739-1.675-3.739-3.739c0-2.065,1.674-3.739,3.739-3.739h30.475
	c1.899,0,4.603-0.321,6.132-3.103c0.966-1.756,1.039-3.658,1.042-3.792V89.428c0-2.066,1.674-3.739,3.739-3.739
	c2.063,0,3.739,1.673,3.739,3.739v48.09c0,0.363-0.052,3.653-1.778,7.013C417.42,149.26,412.848,151.865,406.978,151.865z"/>
<path fill="#EC4B3F" d="M604.848,0.207h-55.7c-3.892,0-6.979,3.087-6.979,6.979v55.699c0,3.893,3.087,6.979,6.979,6.979h55.7
	c3.892,0,6.979-3.086,6.979-6.979V7.187C611.823,3.294,608.739,0.207,604.848,0.207z M605.784,62.885c0,0.538-0.4,0.94-0.938,0.94
	h-55.7c-0.537,0-0.938-0.402-0.938-0.94V7.187c0-0.537,0.4-0.94,0.938-0.94h55.7c0.536,0,0.938,0.404,0.938,0.94V62.885z"/>
<path fill="#EC4B3F" d="M586.729,20.876H567.4c-2.415,0-4.429,2.014-4.429,4.429v19.327c0,2.417,2.014,4.43,4.429,4.43h19.328
	c2.416,0,4.429-2.013,4.429-4.43V25.305C591.156,22.89,589.145,20.876,586.729,20.876z M585.115,43.022h-16.104V26.916h16.104
	V43.022z M586.729,103.552H567.4c-2.415,0-4.429,2.014-4.429,4.429v19.327c0,2.417,2.014,4.43,4.429,4.43h19.328
	c2.416,0,4.429-2.013,4.429-4.43V107.98C591.156,105.432,589.145,103.552,586.729,103.552z M585.115,125.563h-16.104v-16.105h16.104
	V125.563z M648.735,49.062h19.326c2.416,0,4.43-2.013,4.43-4.43V25.305c0-2.416-2.014-4.429-4.43-4.429h-19.326
	c-2.417,0-4.43,2.014-4.43,4.429v19.327C644.306,47.048,646.318,49.062,648.735,49.062z M650.345,26.916h16.104v16.106h-16.104
	V26.916z"/>
<path fill="#EC4B3F" d="M604.848,82.213h-55.7c-3.892,0-6.979,3.086-6.979,6.978v55.7c0,3.893,3.087,6.978,6.979,6.978h55.7
	c3.892,0,6.979-3.085,6.979-6.978v-55.7C611.823,85.433,608.739,82.213,604.848,82.213z M605.784,144.891
	c0,0.537-0.4,0.938-0.938,0.938h-55.7c-0.537,0-0.938-0.401-0.938-0.938v-55.7c0-0.536,0.4-0.938,0.938-0.938h55.7
	c0.536,0,0.938,0.402,0.938,0.938V144.891z M630.884,82.48c-3.895,0-6.979,3.087-6.979,6.979v32.077
	c0,1.611,1.342,3.088,3.086,3.088c1.611,0,3.087-1.343,3.087-3.088V89.459c0-0.536,0.402-0.94,0.939-0.94h33.688
	c1.61,0,3.087-1.342,3.087-3.086c0-1.744-1.343-3.086-3.087-3.086h-33.819L630.884,82.48L630.884,82.48z M630.481,69.865h55.7
	c3.892,0,6.979-3.086,6.979-6.979V7.187c0-3.893-3.087-6.979-6.979-6.979h-55.7c-3.892,0-6.979,3.087-6.979,6.979v55.699
	C623.503,66.643,626.724,69.865,630.481,69.865z M629.541,7.052c0-0.537,0.401-0.939,0.938-0.939h55.7
	c0.537,0,0.938,0.402,0.938,0.939v55.7c0,0.536-0.399,0.938-0.938,0.938h-55.7c-0.536,0-0.938-0.402-0.938-0.938V7.052z
	 M693.294,85.568c0-1.611-1.345-3.087-3.087-3.087h-11.143c-1.607,0-3.087,1.342-3.087,3.087c0,1.745,1.343,3.086,3.087,3.086h8.054
	v11.677h-25.229c-1.611,0-3.087,1.342-3.087,3.086c0,1.745,1.342,3.087,3.087,3.087h28.185c1.611,0,3.087-1.342,3.087-3.087v-17.85
	L693.294,85.568L693.294,85.568z M637.325,145.965h-7.383v-8.458c0-1.609-1.342-3.085-3.088-3.085c-1.609,0-3.086,1.342-3.086,3.085
	v11.544c0,1.611,1.342,3.087,3.086,3.087h10.471c1.609,0,3.086-1.342,3.086-3.087C640.411,147.307,639.072,145.965,637.325,145.965z
	 M670.881,122.477c0-1.611-1.345-3.088-3.088-3.088h-19.192c-1.611,0-3.087,1.343-3.087,3.088v26.844
	c0,1.609,1.342,3.085,3.087,3.085c1.744,0,3.086-1.342,3.086-3.085v-23.758h16.106C669.536,125.429,670.881,124.086,670.881,122.477
	z M690.204,111.337c-1.607,0-3.086,1.342-3.086,3.088v31.941h-27.515c-1.61,0-3.087,1.342-3.087,3.088
	c0,1.743,1.343,3.085,3.087,3.085h30.467c1.611,0,3.087-1.342,3.087-3.085v-35.029C693.157,112.813,691.818,111.337,690.204,111.337
	z"/>
<path fill="#EC4B3F" d="M641.618,94.963c-1.606,0-3.086,1.342-3.086,3.086v9.797c0,1.61,1.345,3.087,3.086,3.087
	c1.746,0,3.091-1.343,3.091-3.087V98.05C644.573,96.306,643.232,94.963,641.618,94.963z"/>
<path fill="#4C8EED" d="M143.701,284.654H62.284v-15.657c0.157-1.056,1.182-6.92,5.064-12.815
	c5.646-8.572,14.432-12.919,26.116-12.919c13.11,0,22.677,3.361,28.436,9.991c7.649,8.809,6.063,20.751,6.045,20.87
	c-0.259,1.798,0.984,3.469,2.783,3.733c1.802,0.266,3.478-0.979,3.743-2.78c0.09-0.604,2.077-14.946-7.535-26.08
	c-7.062-8.183-18.324-12.33-33.472-12.33c-17.49,0-26.853,8.64-31.625,15.887c-5.111,7.763-6.089,15.497-6.128,15.822
	c-0.017,0.131-0.023,0.263-0.023,0.396v15.883h-7.376c-6.82,0-12.371,5.551-12.371,12.373v70.746c0,6.82,5.551,12.371,12.371,12.371
	h95.39c6.821,0,12.37-5.551,12.37-12.371v-70.746C156.072,290.205,150.523,284.654,143.701,284.654z M149.477,367.771
	c0,3.187-2.591,5.776-5.775,5.776H48.313c-3.185,0-5.775-2.591-5.775-5.776v-70.746c0-3.185,2.591-5.775,5.775-5.775h95.389
	c3.185,0,5.775,2.592,5.775,5.775V367.771L149.477,367.771z"/>
<path fill="#4C8EED" d="M97.082,314.133c-11.877,0-21.54,9.663-21.54,21.54c0,10.203,7.246,19.078,17.229,21.104l1.091,0.222v15.317
	c0,1.773,1.443,3.218,3.219,3.218c0.082,0,0.164-0.003,0.246-0.009c1.666-0.123,2.971-1.573,2.971-3.303v-15.225l1.092-0.223
	c9.984-2.024,17.229-10.899,17.229-21.104C118.62,323.796,108.958,314.133,97.082,314.133z M107.886,346.227
	c-2.866,2.935-6.704,4.551-10.805,4.551c-8.328,0-15.104-6.776-15.104-15.104c0-8.329,6.775-15.104,15.104-15.104
	c0.121,0,0.241,0.002,0.361,0.005c8.074,0.188,14.546,6.663,14.736,14.735C112.277,339.415,110.753,343.293,107.886,346.227z"/>
<path fill="#40D358" d="M367.753,398.145c-23.458,0-67.077-35.731-67.077-69.485v-67.278l6.168-0.092
	c0.161-0.012,15.308-0.346,30.863-6.622c15.664-6.323,25.959-13.646,26.39-13.957l3.65-2.644l3.73,2.679
	c1.092,0.771,11.123,7.771,26.345,13.922c15.612,6.301,30.776,6.61,30.925,6.622l6.093,0.104l0.023,67.267
	C434.865,362.425,391.223,398.145,367.753,398.145z M308.258,268.809v59.851c0,28.477,39.324,61.898,59.495,61.898
	c20.182,0,59.523-33.411,59.523-61.898l-0.022-59.851c-4.323-0.229-18.153-1.414-32.271-7.105
	c-14.337-5.794-24.189-12.209-27.224-14.302c-2.811,1.908-12.968,8.53-27.219,14.29
	C326.365,267.428,312.541,268.579,308.258,268.809z"/>
<path fill="#40D358" d="M364.022,343.535l-25.125-25.131l5.358-5.357l19.768,19.764l36.583-36.572l5.357,5.357L364.022,343.535z"/>
</svg>
