<?xml version="1.0" encoding="utf-8"?>
<!-- Generator: Adobe Illustrator 15.0.0, SVG Export Plug-In . SVG Version: 6.00 Build 0)  -->
<!DOCTYPE svg PUBLIC "-//W3C//DTD SVG 1.1//EN" "http://www.w3.org/Graphics/SVG/1.1/DTD/svg11.dtd">
<svg version="1.1" id="图层_1" xmlns="http://www.w3.org/2000/svg" xmlns:xlink="http://www.w3.org/1999/xlink" x="0px" y="0px"
	 width="200px" height="458.426px" viewBox="0 0 200 458.426" enable-background="new 0 0 200 458.426" xml:space="preserve">
<g>
	<g transform="scale(0.1953125, 0.1953125)">
		<path fill="#FFFFFF" d="M832.438,668.581c-9.53-9.585-24.95-9.585-34.47,0c-9.49,9.575-9.49,25.13,0.03,34.7
			c73.66,74.145,114.22,172.7,114.22,277.527c0,13.555,10.9,24.53,24.38,24.53s24.37-10.975,24.37-24.53
			C960.968,862.878,915.318,751.988,832.438,668.581L832.438,668.581z M522.239,0.005c-161.29,0-292.487,132.042-292.487,294.364
			c0,115.785,66.762,216.139,163.57,264.179c-67.747,20.86-129.812,58.22-181.305,110.05c-82.88,83.39-128.51,194.28-128.51,312.214
			c0,13.555,10.897,24.525,24.375,24.525c13.475,0,24.372-10.975,24.372-24.525c0-104.835,40.56-203.384,114.235-277.534
			c70.99-71.47,164.585-111.96,264.572-114.78c3.707,0.135,7.437,0.23,11.177,0.23c161.29,0,292.489-132.045,292.489-294.359
			C814.728,132.047,683.528,0.005,522.239,0.005L522.239,0.005z M526.179,539.624c-1.3-0.22-2.625-0.355-3.99-0.355
			c-3.7,0-7.39,0.045-11.08,0.135c-129.24-5.87-232.609-113.532-232.609-245.034c0-135.257,109.345-245.297,243.739-245.297
			c134.39,0,243.739,110.045,243.739,245.297C765.978,428.294,658.758,537.494,526.179,539.624L526.179,539.624z"/>
	</g>
</g>
<g>
	<g transform="scale(0.1953125, 0.1953125)">
		<path fill="#FFFFFF" d="M887.638,1799.02H234.729v-131.68c0-158.06,128.61-286.639,286.699-286.639
			s286.689,128.58,286.689,286.639c0,14.41,11.68,26.1,26.1,26.1c14.42,0,26.1-11.69,26.1-26.1
			c0-186.839-152.03-338.839-338.889-338.839c-186.865,0-338.899,152-338.899,338.839v131.68h-29.892
			c-43.705,0-79.252,35.565-79.252,79.275v389.644c0,43.675,35.547,79.19,79.252,79.19h735.001c43.69,0,79.23-35.515,79.23-79.19
			v-389.644C966.867,1834.59,931.328,1799.02,887.638,1799.02z M914.668,2267.939c0,14.89-12.12,26.99-27.03,26.99H152.637
			c-14.915,0-27.052-12.1-27.052-26.99v-389.644c0-14.94,12.142-27.075,27.052-27.075h735.001c14.91,0,27.03,12.135,27.03,27.075
			V2267.939L914.668,2267.939z M520.949,1966.275c-27.455,0-49.785,22.32-49.785,49.81c0,19.715,11.59,36.625,28.22,44.69v95.32
			c0,11.985,9.635,21.625,21.565,21.625c11.97,0,21.61-9.64,21.61-21.625v-95.32c16.65-8.055,28.22-24.975,28.22-44.69
			C570.779,1988.595,548.489,1966.275,520.949,1966.275z"/>
	</g>
</g>
</svg>
