<?xml version="1.0" encoding="utf-8"?>
<!-- Generator: Adobe Illustrator 15.0.0, SVG Export Plug-In . SVG Version: 6.00 Build 0)  -->
<!DOCTYPE svg PUBLIC "-//W3C//DTD SVG 1.1//EN" "http://www.w3.org/Graphics/SVG/1.1/DTD/svg11.dtd">
<svg version="1.1" id="图层_1" xmlns="http://www.w3.org/2000/svg" xmlns:xlink="http://www.w3.org/1999/xlink" x="0px" y="0px"
	 width="282.5px" height="2156.465px" viewBox="0 0 282.5 2156.465" enable-background="new 0 0 282.5 2156.465"
	 xml:space="preserve">
<g>
	<g transform="scale(0.1953125, 0.1953125)">
		<path fill="#55ADE8" d="M424.259,338.157H118.942V109.165h305.317V338.157z M126.575,330.522h290.052V116.797H126.575V330.522z
			 M122.76,154.962h297.687v7.635H122.76V154.962z M228.857,289.302l-30.53-82.435l6.87-2.29l27.48,72.515l26.71-72.515l7.635,2.29
			l-30.53,82.435H228.857z M276.182,206.105h7.635v84.725h-7.635V206.105z M308.242,290.827h-7.635v-86.25l3.055-0.762
			c0.765,0,26.715-6.107,41.22,5.342c6.105,4.58,8.395,11.45,8.395,19.845c0,0,0.765,12.977-9.16,22.135
			c-7.63,6.872-19.845,9.16-35.875,6.11V290.827z M308.242,248.85c14.5,3.052,24.425,1.525,31.295-3.817
			c6.87-6.105,6.87-16.03,6.87-16.03c0-6.105-1.525-10.685-6.11-13.737c-8.395-6.87-25.185-5.345-32.055-4.58V248.85z"/>
	</g>
</g>
<g>
	<g transform="scale(0.1953125, 0.1953125)">
		<path fill="#479AEF" d="M423.199,1355.477c0.005,38.745-25.94,69.565-62.47,74.65c-11.85,1.652-23.455-0.48-34.615-4.875
			c-3.84-1.51-5.4-4.485-4.315-7.655c1.16-3.385,4.225-4.73,8.31-3.25c14.18,5.135,28.37,6.145,42.75,0.83
			c21.94-8.11,38.46-31.62,38.9-55.595c0.085-4.6,0.28-9.22-0.775-13.755c-0.215-0.935,0.14-2.28-1.045-2.58
			c-1.07-0.265-1.655,0.91-2.325,1.595c-8.44,8.635-16.755,17.4-25.315,25.905c-11.87,11.81-29.575,12.715-42.615,2.415
			c-15.175-11.99-17.13-34.99-3.95-49.26c8.1-8.765,16.595-17.145,24.865-25.745c0.935-0.965,2.725-1.72,2.265-3.305
			c-0.415-1.425-2.195-0.875-3.37-1.095c-36.965-6.795-71.555,24.225-69.915,62.77c0.285,6.78,1.68,13.42,4.085,19.765
			c1.405,3.7,0.7,6.565-2.09,9.315c-5.655,5.58-11.095,11.4-16.675,17.06c-3.285,3.33-6.73,3.64-9.17,0.995
			c-2.4-2.605-2.07-5.71,1.15-9.1c4.205-4.43,8.395-8.885,12.795-13.105c2.05-1.965,2.34-3.77,1.555-6.46
			c-12.985-44.59,15.43-83.935,53.915-92.21c13.425-2.885,26.73-2.03,39.695,2.825c6.365,2.385,7.35,6.715,2.555,11.68
			c-10.555,10.945-21.205,21.78-31.745,32.73c-6.54,6.79-9.18,14.76-5.845,24.045c5.09,14.2,21.72,19.085,33.11,9.465
			c5.715-4.825,10.72-10.535,15.995-15.9c6.375-6.48,12.645-13.065,19.055-19.51c4.47-4.505,8.85-3.53,10.905,2.5
			c1.335,3.925,2.345,7.99,3.245,12.045C423.119,1347.172,423.399,1351.777,423.199,1355.477z M172.647,1366.492
			c-5.182,0-10.365-0.075-15.547,0.025c-3.262,0.065-5.68-1.2-7.35-4.06c-9.22-15.805-18.445-31.605-27.672-47.405
			c-1.762-3.02-1.377-5.815,0.973-8.26c6.01-6.245,12.062-12.45,18.12-18.645c2.4-2.455,5.08-2.77,8.017-0.96
			c15.49,9.555,30.985,19.105,46.495,28.63c2.747,1.685,3.575,4.325,3.607,7.335c0.07,5.325,0.133,10.655-0.005,15.98
			c-0.123,4.73-2.452,7.505-5.902,7.48c-3.425-0.03-5.602-2.835-5.86-7.565c-0.02-0.43-0.092-0.875-0.012-1.29
			c1.975-10.13-2.355-16.03-11.195-20.43c-9.285-4.63-17.89-10.725-26.7-16.335c-2.18-1.39-3.675-1.42-5.405,0.62
			c-3.115,3.675-8.585,6.34-9.35,10.71c-0.773,4.445,3.97,8.485,6.335,12.67c4.992,8.84,10.275,17.5,15.27,26.34
			c1.447,2.555,3.165,3.56,6.062,3.51c9.38-0.17,18.77,0.075,28.155-0.13c3.83-0.085,6.615,1.27,9.26,4.01
			c16.77,17.385,33.675,34.625,50.445,52.005c2.45,2.54,5.17,4.23,8.445,5.335c16.1,5.427,32.145,11.007,48.24,16.45
			c2.74,0.925,5.01,2.35,7.05,4.45c30.775,31.695,61.605,63.337,92.39,95.022c6.695,6.885,11.315,14.96,12.92,24.688
			c0.62,3.79,0.225,7.48-0.865,11.09c-1.015,3.348-3.325,5.045-6.735,4.305c-3.245-0.71-4.83-3.22-4.24-6.44
			c2.045-11.11-3.16-19.11-10.25-26.4c-29.715-30.54-59.455-61.065-89.135-91.65c-2.24-2.305-4.695-3.92-7.72-4.94
			c-15.965-5.385-31.875-10.94-47.84-16.32c-3.425-1.157-6.235-2.995-8.775-5.625c-16.485-17.06-33.087-33.995-49.565-51.075
			c-2.135-2.22-4.302-3.32-7.37-3.18C182.179,1366.652,177.412,1366.497,172.647,1366.492z M387.914,1592.974
			c-10.835-0.295-19.72-5.315-27.15-12.902c-31.29-31.952-62.42-64.082-93.615-96.137c-1.625-1.667-2.735-3.618-3.455-5.843
			c-2.785-8.6-5.64-17.175-8.37-25.795c-1.42-4.48-0.145-7.755,3.235-8.92c3.285-1.135,6.065,0.775,7.61,5.387
			c2.51,7.48,5.005,14.967,7.385,22.485c0.845,2.675,2.165,4.89,4.105,6.885c30.135,30.91,60.235,61.855,90.325,92.805
			c2.19,2.26,4.575,4.24,7.215,5.895c5.27,3.305,10.745,5.375,17.135,3.795c3.475-0.86,6.49,1.235,7.02,4.46
			c0.59,3.58-1.225,5.743-4.39,6.84C392.694,1592.729,390.344,1593.092,387.914,1592.974z M119.975,1559.489
			c0.013-9.585,3.745-17.695,10.157-24.325c31.975-33.055,64.082-65.967,96.155-98.915c0.785-0.81,1.615-1.67,2.6-2.155
			c2.495-1.24,4.955-1.04,6.89,1.165c1.94,2.21,2.025,4.715,0.295,7.09c-1,1.37-2.26,2.545-3.44,3.765
			c-30.575,31.44-61.15,62.877-91.74,94.302c-6.762,6.94-11.232,14.615-8.797,25.05c0.738,3.165-0.905,5.745-4.082,6.545
			c-3.335,0.845-5.755-0.675-6.907-4.013C120.162,1565.269,119.827,1562.414,119.975,1559.489z M288.982,1452.852
			c2.74,0.24,4.51,2.115,6.3,3.955c15.635,16.06,31.27,32.135,46.9,48.2c14.55,14.95,29.1,29.89,43.635,44.85
			c4.7,4.835,5.355,8.005,2.365,11.01c-2.875,2.885-5.73,2.21-10.305-2.49c-30.18-31.01-60.36-62.035-90.53-93.062
			c-1.18-1.21-2.465-2.425-3.305-3.875C281.867,1457.664,284.762,1452.767,288.982,1452.852z M152.327,1593.009
			c-2.855,0.137-5.635-0.24-8.277-1.26c-3.057-1.175-4.4-3.615-3.692-6.855c0.725-3.295,3.175-5.105,6.257-4.345
			c10.527,2.585,18.085-2.375,25.037-9.545c24.025-24.78,48.105-49.49,72.175-74.225c1.09-1.12,2.125-2.325,3.345-3.26
			c2.62-2,5.31-1.845,7.595,0.51c2.215,2.28,2.07,4.91,0.26,7.42c-0.66,0.925-1.485,1.73-2.275,2.54
			c-25.245,25.96-50.482,51.93-75.765,77.865C170.192,1588.824,162.125,1593.004,152.327,1593.009z"/>
	</g>
</g>
<g>
	<g transform="scale(0.1953125, 0.1953125)">
		<path fill="#FF7376" d="M324.727,3898.496h-106.24c-4.56,0-7.595,1.465-7.595,3.665c0,2.21,3.035,3.68,7.595,3.68h106.24
			c4.55,0,7.585-1.47,7.585-3.68C332.312,3899.961,329.277,3898.496,324.727,3898.496z M389.354,3833.352l-19.88-69.58
			c-3.82-13-20.185-22.175-29.06-22.175h-137.63c-13.76,0-25.995,9.175-29.055,22.175l-19.88,69.58
			c-19.88,2.29-35.175,18.35-35.175,38.23v68.815c0,8.415,6.885,15.295,15.29,15.295v15.29c0,8.415,6.88,15.295,15.29,15.295h30.585
			c8.41,0,15.295-6.88,15.295-15.295v-15.29h152.92v15.29c0,8.415,6.88,15.295,15.295,15.295h30.585c8.41,0,15.29-6.88,15.29-15.295
			v-15.29c8.415,0,15.295-6.88,15.295-15.295v-68.815C424.529,3851.706,409.234,3835.646,389.354,3833.352z M182.269,3762.177
			c1.02-4.085,8.27-12.405,15.72-12.405h145.24c5.75,0,16.15,7.88,17.55,12.405l19.855,73.99H162.414L182.269,3762.177z
			 M156.909,3840.841c16.855,0,29.745,13.32,29.745,30.74s-12.89,30.735-29.745,30.735s-29.745-13.315-29.745-30.735
			S140.055,3840.841,156.909,3840.841z M187.189,3978.321h-45.267v-22.63h45.267V3978.321z M403.114,3978.321h-47.095v-22.63h47.095
			V3978.321z M414.204,3945.906h-66.14H195.142h-64.727v-47.485c6.652,8.6,18.085,11.395,26.495,11.395
			c21.41,0,38.232-16.82,38.232-38.235c0-8.41-5.355-24.62-13.765-28.44h180.91c-10.17,4.965-14.22,20.03-14.22,28.44
			c0,21.41,16.825,37.95,38.23,38.235c11.855,0.155,21.87-7.035,27.985-11.62L414.204,3945.906z M386.294,3902.551
			c-16.835,0-29.705-13.415-29.705-30.97c0-17.55,12.87-30.97,29.705-30.97s29.705,13.42,29.705,30.97
			C415.999,3889.136,403.129,3902.551,386.294,3902.551z"/>
	</g>
</g>
<g>
	<g transform="scale(0.1953125, 0.1953125)">
		<path fill="#D5AF18" d="M271.607,2499.675c-83.165,0-150.847,67.67-150.847,150.835s67.682,150.84,150.847,150.84
			c83.17,0,150.84-67.66,150.84-150.84C422.444,2567.335,354.784,2499.675,271.607,2499.675z M271.607,2790.949
			c-77.44,0-140.432-62.985-140.432-140.429c0-77.43,62.992-140.435,140.432-140.435c77.445,0,140.435,63.005,140.435,140.435
			C412.049,2727.95,349.049,2790.949,271.607,2790.949z M316.497,2590.4l-33.12,60.97h26.23v13.46h-30.79v18.705h30.8v13.535h-30.8
			v26.915h-16.815v-26.905h-31.745v-13.535h31.745v-18.7h-31.745v-13.465h26.745l-32.69-60.97h19.23l22.86,47.52
			c1.265,2.645,2.7,6.005,4.315,10.09h0.345c1.14-3.275,2.635-6.785,4.48-10.53l22.925-47.09H316.497L316.497,2590.4z"/>
	</g>
</g>
<g>
	<g transform="scale(0.1953125, 0.1953125)">
		<path fill="#EEC82F" d="M218.412,3400.103c-12.165,0-21.945-9.78-21.945-21.945v-164.585c0-12.165,9.78-21.945,21.945-21.945
			h183.905c12.165,0,21.945,9.78,21.945,21.945v164.585c0,12.165-9.78,21.945-21.945,21.945H218.412z M218.412,3206.178
			c-4.055,0-7.397,3.34-7.397,7.395v164.585c0,4.055,3.342,7.395,7.397,7.395h183.905c3.34,0,5.965-2.145,6.92-5.01h0.475v-2.385
			v-164.585c0-4.055-3.34-7.395-7.395-7.395H218.412L218.412,3206.178z M164.979,3346.678c-4.055,0-7.155-3.345-7.155-7.16v-164.584
			c0-12.165,9.78-21.945,21.945-21.945h164.345c4.055,0,7.155,3.34,7.155,7.155c0,4.05-3.34,7.15-7.155,7.15H179.529
			c-4.055,0-7.392,3.345-7.392,7.395v164.589C172.137,3343.573,169.034,3346.678,164.979,3346.678z M126.1,3308.033
			c-4.057,0-7.157-3.34-7.157-7.155v-164.589c0-12.16,9.78-21.94,21.945-21.94h164.35c4.055,0,7.155,3.34,7.155,7.155
			c0,4.055-3.34,7.155-7.155,7.155H140.65c-4.055,0-7.395,3.34-7.395,7.395v164.584
			C133.492,3304.693,130.152,3308.033,126.1,3308.033z"/>
	</g>
</g>
<g>
	<g transform="scale(0.1953125, 0.1953125)">
		<path fill="#DF4E3B" d="M284.537,2116.821h-56.055c-2.38,0-4.31,1.925-4.31,4.31v4.31c0,2.38,1.93,4.315,4.31,4.315h56.055
			c2.38,0,4.305-1.935,4.305-4.315v-4.31C288.842,2118.746,286.917,2116.821,284.537,2116.821z M366.454,2034.896H228.482
			c-2.38,0-4.31,1.935-4.31,4.31v4.315c0,2.38,1.93,4.31,4.31,4.31h137.975c2.375,0,4.305-1.93,4.305-4.31v-4.315
			C370.759,2036.827,368.829,2034.896,366.454,2034.896z M422.504,2060.766v-163.839c0-11.9-9.655-21.555-21.56-21.555H142.249
			c-11.905,0-21.557,9.655-21.557,21.555v293.189c0,11.905,9.652,21.56,21.557,21.56h133.655h0.69c0.66,0.105,0.6-0.05,0.69-0.05
			c0.26-0.005,0.515,0.05,0.78,0.05c3.575,0,6.47-1.54,6.47-5.11c0-3.575-2.895-5.45-6.47-5.45c-0.76,0-0.785-0.015-1.035-0.005
			l-0.825,0.005h-123.4c-6.567,0-13.94,1.255-17.707-3.285c-3.065-3.69-3.17-12.59-3.17-17.93v-270.039
			c0-6.225-0.3-15.79,4.36-20.255c4.257-4.08,13.215-3.34,18.895-3.34h232.822c5.39,0,15.01-0.67,19.09,3.05
			c4.945,4.505,3.83,14.025,3.83,20.545v150.905v2.16c0,3.57,2.215,6.465,5.79,6.465s5.785-2.895,5.785-6.465
			c0-0.76,0.015-1.165,0.015-1.87L422.504,2060.766z M370.759,1952.984c0-2.383-1.93-4.315-4.305-4.315H228.482
			c-2.38,0-4.31,1.93-4.31,4.315v4.305c0,2.385,1.93,4.315,4.31,4.315h137.975c2.375,0,4.305-1.925,4.305-4.315v-4.305H370.759z
			 M172.432,2108.191c-7.142,0-12.935,5.795-12.935,12.94c0,7.14,5.792,12.935,12.935,12.935c7.142,0,12.932-5.795,12.932-12.935
			C185.364,2113.986,179.574,2108.191,172.432,2108.191z M172.432,2026.271c-7.142,0-12.935,5.792-12.935,12.935
			c0,7.145,5.792,12.94,12.935,12.94c7.142,0,12.932-5.795,12.932-12.94C185.364,2032.069,179.574,2026.271,172.432,2026.271z
			 M172.432,1944.359c-7.142,0-12.935,5.79-12.935,12.93c0,7.145,5.792,12.935,12.935,12.935c7.142,0,12.932-5.79,12.932-12.935
			C185.364,1950.149,179.574,1944.359,172.432,1944.359z M406.804,2137.331l-60.745,60.745l-31.26-31.255
			c-2.355-2.365-5.895-2.365-8.255,0c-2.355,2.355-2.355,5.895,0,8.25l35.385,35.385c1.18,1.175,2.365,1.77,4.13,1.77
			c1.77,0,2.95-0.595,4.125-1.77l64.88-64.87c2.355-2.36,2.355-5.895,0-8.255C412.699,2134.971,409.164,2134.971,406.804,2137.331z"
			/>
	</g>
</g>
<g>
	<g transform="scale(0.1953125, 0.1953125)">
		<path fill="#E48835" d="M200.039,771.547c0-2.64,2.13-4.775,4.77-4.775h133.58c2.635,0,4.77,2.14,4.77,4.775
			c0,2.63-2.135,4.77-4.77,4.77h-133.58C202.177,776.317,200.039,774.18,200.039,771.547z M233.457,687.26h76.3
			c2.635,0,4.765-2.14,4.765-4.77c0-2.635-2.13-4.77-4.765-4.77h-76.3c-2.64,0-4.77,2.135-4.77,4.77
			C228.687,685.12,230.817,687.26,233.457,687.26z M204.812,833.602h133.58c2.635,0,4.77-2.14,4.77-4.77
			c0-2.635-2.135-4.77-4.77-4.77h-133.58c-2.64,0-4.772,2.135-4.772,4.77C200.039,831.46,202.177,833.602,204.812,833.602z
			 M204.812,890.884h133.58c2.635,0,4.77-2.14,4.77-4.77c0-2.64-2.135-4.77-4.77-4.77h-133.58c-2.64,0-4.772,2.135-4.772,4.77
			C200.039,888.744,202.177,890.884,204.812,890.884z M376.574,687.265h-28.64c-2.635,0-4.765,2.135-4.765,4.77
			s2.13,4.77,4.765,4.77h28.64c18.41,0,33.395,14.98,33.395,33.395v209.902c0,18.41-14.985,33.39-33.395,33.39H166.632
			c-18.41,0-33.397-14.98-33.397-33.39V730.2c0-18.415,14.982-33.395,33.397-33.395h28.632c2.635,0,4.77-2.135,4.77-4.77
			s-2.135-4.77-4.77-4.77h-28.632c-23.677,0-42.937,19.26-42.937,42.935v209.902c0,23.675,19.26,42.935,42.937,42.935h209.942
			c23.675,0,42.935-19.26,42.935-42.935V730.2C419.509,706.53,400.249,687.265,376.574,687.265z"/>
	</g>
</g>
<g>
	<g transform="scale(0.1953125, 0.1953125)">
		<path fill="#D87DE3" d="M350.779,4590.15c0,5.805-4.72,10.525-10.525,10.525H143.222c-5.8,0-10.52-4.72-10.52-10.525v-239.004
			c0-5.8,4.72-10.525,10.52-10.525h197.045c5.8,0,10.525,4.725,10.525,10.525h12.625c0-12.77-10.385-23.15-23.15-23.15H143.222
			c-12.762,0-23.15,10.38-23.15,23.15v239.004c0,12.77,10.387,23.15,23.15,23.15h197.045c12.765,0,23.15-10.38,23.15-23.15v-51.94
			h-12.625v51.94H350.779z M418.959,4376.646c-0.365-0.52-0.81-0.975-1.31-1.365c-0.36-0.28-9.075-6.965-18.715-11.66
			c-2.88-1.4-5.79-2.12-8.655-2.12c-8.42,0-13.02,5.98-13.62,6.795l-11.22,16.205c-0.03,0.045-0.035,0.1-0.06,0.135
			c-0.025,0.035-0.065,0.055-0.085,0.095l-77.015,121.81c-0.36,0.58-0.535,1.205-0.7,1.835c-0.03,0.125-0.14,0.22-0.165,0.355
			l-8.815,46.08c-0.47,2.47,0.575,5.005,2.67,6.42c1.06,0.71,2.3,1.075,3.525,1.075c1.19,0,2.38-0.335,3.42-1l38.94-25.085
			c0.405-0.26,0.635-0.685,0.96-1.02c0.29-0.29,0.65-0.445,0.885-0.8l81.12-122.12l0,0c2.8-4.09,8.92-13.11,11.2-16.845
			C426.209,4387.396,419.714,4377.726,418.959,4376.646z M386.844,4375.735c0.08-0.09,2.86-2.565,6.565-0.765
			c6.845,3.33,13.39,7.98,15.68,9.66c0.84,1.47,1.605,3.54,1.45,4.19c-1.645,2.695-5.705,8.73-8.7,13.16l-22.43-15.5
			L386.844,4375.735z M394.819,4412.476l-72.755,109.53l-19.885-13.85l70.27-111.145L394.819,4412.476z M293.772,4542.67
			l4.215-22.04l14.42,10.035L293.772,4542.67z M320.022,4392.266c0-3.49-2.83-6.315-6.315-6.315H155.572
			c-3.482,0-6.312,2.825-6.312,6.315c0,3.48,2.83,6.315,6.312,6.315h158.135C317.202,4398.581,320.022,4395.75,320.022,4392.266z
			 M274.967,4454.956c0-3.485-2.83-6.31-6.315-6.31h-113.08c-3.482,0-6.312,2.825-6.312,6.31c0,3.485,2.83,6.315,6.312,6.315h113.08
			C272.137,4461.271,274.967,4458.45,274.967,4454.956z M155.572,4511.74c-3.482,0-6.312,2.825-6.312,6.315
			c0,3.485,2.83,6.315,6.312,6.315h68.03c3.49,0,6.315-2.83,6.315-6.315c0-3.49-2.825-6.315-6.315-6.315H155.572z"/>
	</g>
</g>
<g>
	<g transform="scale(0.1953125, 0.1953125)">
		<path fill="#768CE8" d="M408.839,4918.584h-51.195c-4.53,0.455-6.44,5.625-6.44,5.625l-16.19,26.555c0,0-1.2,1.645-1.8,1.975
			c-0.515,0.295-1.995,0.37-1.995,0.37H211.384c0,0-1.13-0.13-1.545-0.37c-0.305-0.17-1.092-0.825-1.092-0.825l-16.895-27.7
			c0,0-1.91-5.17-6.44-5.625h-51.05c-8.027,0-14.535,6.505-14.535,14.535v288.705c0,8.03,6.507,14.535,14.535,14.535h274.477
			c8.025,0,14.535-6.505,14.535-14.535v-288.705C423.374,4925.089,416.864,4918.584,408.839,4918.584z M411.379,5221.829
			c0,1.405-1.14,2.54-2.54,2.54H134.362c-1.4,0-2.542-1.135-2.542-2.54v-288.709c0-1.4,1.142-2.545,2.542-2.545h47.32l16.827,27.585
			l1.025,1.67l1.505,1.26c1.645,1.39,2.55,1.9,2.93,2.11c0.62,0.35,2.515,1.41,6.04,1.82l0.685,0.08h0.69h119.835h0.3l0.3-0.015
			c4.295-0.215,6.535-1.475,7.265-1.885c1.35-0.75,3.205-2.05,5.635-5.395l0.275-0.395l0.255-0.405l16.125-26.43h47.465
			c1.4,0,2.54,1.145,2.54,2.545V5221.829L411.379,5221.829z M225.722,4930.349h91.73c2.41,0,4.365-1.95,4.365-4.36v-3.27
			c0-2.41-1.955-4.36-4.365-4.36h-91.73c-2.405,0-4.365,1.95-4.365,4.36v3.27C221.357,4928.399,223.317,4930.349,225.722,4930.349z
			 M353.789,5031.019H189.384c-2.412,0-4.367,1.95-4.367,4.36v3.27c0,2.41,1.955,4.36,4.367,4.36h164.405
			c2.41,0,4.365-1.95,4.365-4.36v-3.27C358.154,5032.969,356.199,5031.019,353.789,5031.019z M353.789,5090.979H189.384
			c-2.412,0-4.367,1.955-4.367,4.36v3.27c0,2.41,1.955,4.365,4.367,4.365h164.405c2.41,0,4.365-1.955,4.365-4.365v-3.27
			C358.154,5092.934,356.199,5090.979,353.789,5090.979z M353.789,5150.943H189.384c-2.412,0-4.367,1.95-4.367,4.365v3.27
			c0,2.405,1.955,4.36,4.367,4.36h164.405c2.41,0,4.365-1.955,4.365-4.36v-3.27C358.154,5152.894,356.199,5150.943,353.789,5150.943
			z"/>
	</g>
</g>
<g>
	<g transform="scale(0.1953125, 0.1953125)">
		<path fill="#FC2B10" d="M382.944,5866.752H151.467c-9.537,0-17.297-7.765-17.297-17.3v-151.004c0-9.54,7.76-17.3,17.297-17.3
			h231.477c9.535,0,17.295,7.76,17.295,17.3v151.004C400.239,5858.987,392.479,5866.752,382.944,5866.752z M151.467,5688.912
			c-5.25,0-9.522,4.275-9.522,9.53v151.009c0,5.255,4.272,9.525,9.522,9.525h231.477c5.25,0,9.52-4.27,9.52-9.525v-151.009
			c0-5.255-4.27-9.53-9.52-9.53H151.467z M396.354,5688.722H138.057c-9.537,0-17.297-7.76-17.297-17.3v-8.16
			c0-9.54,7.76-17.3,17.297-17.3h258.297c9.535,0,17.295,7.76,17.295,17.3v8.16C413.649,5680.962,405.889,5688.722,396.354,5688.722
			z M138.057,5653.742c-5.25,0-9.522,4.265-9.522,9.52v8.16c0,5.255,4.272,9.525,9.522,9.525h258.297
			c5.253,0,9.525-4.27,9.525-9.525v-8.16c0-5.255-4.272-9.52-9.525-9.52H138.057z M255.724,5651.392
			c-13.445,0-35.272-1.84-46.207-12.77c-7.877-7.88-12.847-17.785-13.987-27.88c-1.178-10.42,1.83-19.815,8.467-26.459
			c6.64-6.64,16.037-9.645,26.46-8.47c10.097,1.14,19.997,6.11,27.877,13.99l0,0c16.125,16.125,12.47,55.94,12.305,57.625
			l-0.31,3.19l-3.185,0.31C266.602,5650.972,262.107,5651.392,255.724,5651.392z M226.152,5583.337c-6.397,0-12.31,2.1-16.657,6.445
			c-10.427,10.43-7.95,29.875,5.522,43.345c11.165,11.16,38.627,10.78,48.105,10.285c0.495-9.475,0.88-36.945-10.285-48.104
			C244.982,5587.447,235.097,5583.337,226.152,5583.337z M278.689,5651.392c-6.385,0-10.88-0.42-11.42-0.47l-3.19-0.305l-0.31-3.19
			c-0.163-1.685-3.818-41.505,12.305-57.625l0,0c7.882-7.88,17.782-12.85,27.877-13.99c10.425-1.18,19.822,1.83,26.46,8.47
			c6.64,6.64,9.647,16.04,8.467,26.459c-1.14,10.095-6.11,20-13.987,27.88C313.962,5649.552,292.134,5651.392,278.689,5651.392z
			 M271.289,5643.407c9.47,0.495,36.94,0.885,48.105-10.285c13.472-13.47,15.947-32.915,5.52-43.345
			c-4.93-4.93-12.065-7.145-20.09-6.235c-8.355,0.94-16.61,5.12-23.25,11.76C270.409,5606.467,270.794,5633.932,271.289,5643.407z
			 M263.887,5649.272l7.775,0.02l-0.555,213.574l-7.775-0.02L263.887,5649.272z"/>
	</g>
</g>
<path fill="#5DCE72" d="M77.605,1269.196H29.722c-2.567,0-4.658-1.99-4.658-4.441v-45.004c0-2.452,2.091-4.441,4.658-4.441h47.884
	c2.563,0,4.656,1.998,4.656,4.441v45.004C82.262,1267.205,80.168,1269.196,77.605,1269.196z M29.722,1217.411
	c-1.412,0-2.559,1.05-2.559,2.34v45.004c0,1.289,1.151,2.341,2.559,2.341h47.884c1.41,0,2.554-1.052,2.554-2.341v-45.004
	c0-1.29-1.144-2.34-2.554-2.34H29.722z"/>
<path fill="#5DCE72" d="M37.534,1223.886c-0.581,0-1.049-0.47-1.049-1.051v-13.189c0-0.582,0.468-1.048,1.049-1.048
	c0.576,0,1.05,0.466,1.05,1.048v13.193C38.578,1223.416,38.11,1223.886,37.534,1223.886z"/>
<path fill="#5DCE72" d="M70.173,1223.886c-0.573,0-1.042-0.47-1.042-1.051v-13.189c0-0.582,0.47-1.048,1.042-1.048
	c0.585,0,1.05,0.466,1.05,1.048v13.193C71.224,1223.416,70.759,1223.886,70.173,1223.886z"/>
<path fill="#5DCE72" d="M53.661,1262.071c-9.232,0-16.744-7.546-16.744-16.82c0-0.58,0.468-1.05,1.051-1.05
	c0.581,0,1.048,0.47,1.048,1.05c0,8.116,6.569,14.719,14.645,14.719c8.082,0,14.65-6.603,14.65-14.719
	c0-8.115-6.569-14.719-14.65-14.719c-4.899,0-9.448,2.443-12.174,6.54c-0.318,0.482-0.97,0.61-1.452,0.295
	c-0.481-0.32-0.615-0.976-0.292-1.451c3.109-4.687,8.316-7.485,13.918-7.485c9.234,0,16.748,7.549,16.748,16.82
	C70.408,1254.525,62.895,1262.071,53.661,1262.071z"/>
<path fill="#5DCE72" d="M53.661,1246.302c-0.581,0-1.051-0.47-1.051-1.052v-8.76c0-0.575,0.47-1.051,1.051-1.051
	c0.577,0,1.05,0.465,1.05,1.051v8.76C54.711,1245.832,54.237,1246.302,53.661,1246.302z"/>
<path fill="#5DCE72" d="M58.889,1251.556c-0.27,0-0.534-0.098-0.744-0.304l-5.228-5.262c-0.408-0.415-0.408-1.073,0.004-1.481
	c0.41-0.412,1.072-0.412,1.482,0l5.232,5.261c0.406,0.41,0.406,1.068-0.004,1.478C59.426,1251.453,59.162,1251.556,58.889,1251.556z
	"/>
<path fill="#5DCE72" d="M46.684,1237.537h-6.976c-0.583,0-1.05-0.47-1.05-1.051v-7.005c0-0.577,0.467-1.052,1.05-1.052
	c0.577,0,1.049,0.47,1.049,1.052v5.958h5.927c0.583,0,1.051,0.465,1.051,1.051C47.738,1237.072,47.267,1237.537,46.684,1237.537z"/>
</svg>
