<?xml version="1.0" encoding="utf-8"?>
<!-- Generator: Adobe Illustrator 15.0.0, SVG Export Plug-In . SVG Version: 6.00 Build 0)  -->
<!DOCTYPE svg PUBLIC "-//W3C//DTD SVG 1.1//EN" "http://www.w3.org/Graphics/SVG/1.1/DTD/svg11.dtd">
<svg version="1.1" id="图层_1" xmlns="http://www.w3.org/2000/svg" xmlns:xlink="http://www.w3.org/1999/xlink" x="0px" y="0px"
	 width="200px" height="200px" viewBox="0 0 200 200" enable-background="new 0 0 200 200" xml:space="preserve">
<g>
	<g transform="scale(0.1953125, 0.1953125)">
		<path fill="#FFB400" d="M88.762,85.2c-4.54,0-8.212,3.675-8.212,8.212s3.672,8.21,8.212,8.21c4.532,0,8.21-3.672,8.21-8.21
			S93.295,85.2,88.762,85.2z M88.762,97.517c-2.272,0-4.107-1.84-4.107-4.105c0-2.272,1.835-4.107,4.107-4.107
			c2.265,0,4.105,1.835,4.105,4.107C92.867,95.677,91.025,97.517,88.762,97.517z M45.647,85.2c-4.532,0-8.21,3.675-8.21,8.212
			s3.672,8.21,8.21,8.21c4.535,0,8.212-3.672,8.212-8.21S50.182,85.2,45.647,85.2z M45.647,97.517c-2.27,0-4.105-1.84-4.105-4.105
			c0-2.272,1.835-4.107,4.105-4.107c2.272,0,4.107,1.835,4.107,4.107C49.755,95.677,47.915,97.517,45.647,97.517z M100.502,62.875
			c0,0,4.68-26.825,4.68-26.947c0-4.537-3.675-8.212-8.21-8.212H28.017l-1.23-6.452c-1.015-3.382-4.115-5.865-7.83-5.865h-6.16
			c-1.13,0-2.05,0.922-2.05,2.052c0,1.135,0.92,2.052,2.05,2.052h6.162c1.967,0,3.607,1.39,4.01,3.232l9.037,51.252
			c0.035,0.29,0.237,1.137,0.237,1.137c0.927,3.245,3.77,5.705,7.245,5.967h57.482c1.132,0,2.05-0.92,2.05-2.052
			c0-1.137-0.917-2.052-2.05-2.052H40.105c-1.87,0-3.427-1.257-3.925-2.962l-0.927-5.25h57.41
			C96.387,68.775,99.5,66.28,100.502,62.875z M101.075,35.927c0,0.75-4.51,25.85-4.51,25.85c-0.525,1.667-2.06,2.892-3.902,2.892
			h-58.13L28.74,31.82h68.232C99.24,31.82,101.075,33.657,101.075,35.927z"/>
	</g>
</g>
<path fill="#F64C4C" d="M74.145,7.855"/>
<path fill="#F64C4C" d="M62.506,12.688c-0.498,0-0.94-0.088-1.315-0.26h-0.006l-0.123-0.063c-1.007-0.54-1.631-1.586-1.631-2.73
	c0-0.34,0.056-0.68,0.167-1.008l0.024-0.084l1.79-4.266c0.168-0.492,0.615-0.787,1.217-0.787h11.839
	c0.68,0.04,1.101,0.321,1.278,0.839l1.701,4.305c0.105,0.31,0.161,0.647,0.161,0.985c0.002,1.129-0.608,2.169-1.597,2.714l0,0
	c-0.406,0.226-0.9,0.341-1.468,0.345c-1.074,0-2.051-0.552-2.617-1.474l-0.025-0.046c-0.028-0.059-0.057-0.124-0.106-0.178
	c-0.046-0.052-0.117-0.109-0.277-0.109c-0.121,0-0.223,0.047-0.26,0.093c-0.063,0.072-0.093,0.132-0.12,0.19l-0.028,0.05
	c-0.562,0.917-1.525,1.468-2.579,1.475c-1.07-0.006-2.039-0.558-2.602-1.478l-0.026-0.051c-0.023-0.044-0.054-0.109-0.087-0.146
	c-0.053-0.063-0.158-0.114-0.301-0.114c-0.134,0-0.226,0.045-0.247,0.07c-0.07,0.078-0.101,0.146-0.121,0.193l-0.03,0.057
	C64.544,12.137,63.57,12.685,62.506,12.688z M61.397,11.751l0.03,0.015c0.294,0.147,0.656,0.223,1.077,0.223
	c0.82-0.002,1.573-0.427,2.011-1.136c0.024-0.056,0.088-0.201,0.218-0.343c0.165-0.197,0.457-0.317,0.78-0.317
	c0.334,0,0.642,0.131,0.826,0.353c0.094,0.105,0.154,0.227,0.189,0.299c0.43,0.704,1.179,1.131,1.997,1.136
	c0.81-0.006,1.553-0.432,1.987-1.141c0.029-0.063,0.091-0.193,0.203-0.319c0.174-0.217,0.477-0.349,0.8-0.349
	c0.324,0,0.6,0.119,0.799,0.342c0.119,0.133,0.183,0.273,0.213,0.341c0.429,0.698,1.184,1.124,2.011,1.124
	c0.447-0.003,0.829-0.089,1.133-0.257l0,0c0.763-0.421,1.237-1.227,1.236-2.102c0-0.263-0.043-0.524-0.13-0.778
	c-0.011-0.04-0.019-0.067-0.024-0.09l-1.665-4.181c-0.1-0.294-0.326-0.364-0.635-0.382H62.627c-0.448,0-0.533,0.245-0.565,0.336
	l-1.784,4.258c-0.007,0.025-0.011,0.042-0.017,0.058c-0.089,0.265-0.134,0.528-0.134,0.792c0.002,0.887,0.483,1.696,1.259,2.112
	L61.397,11.751z"/>
<path fill="#F64C4C" d="M73.696,8.589H63.34c-0.193,0-0.349-0.156-0.349-0.349c0-0.193,0.156-0.349,0.349-0.349h10.356
	c0.193,0,0.35,0.156,0.35,0.349C74.046,8.433,73.889,8.589,73.696,8.589z"/>
<path fill="#F64C4C" d="M74.471,21.365H62.565c-0.794,0-1.442-0.646-1.442-1.441v-5.755c0-0.193,0.156-0.351,0.35-0.351
	c0.193,0,0.349,0.158,0.349,0.351v5.755c0,0.409,0.334,0.743,0.744,0.743h11.905c0.411,0,0.744-0.334,0.744-0.743v-5.755
	c0-0.193,0.157-0.351,0.348-0.351c0.193,0,0.352,0.158,0.352,0.351v5.755C75.915,20.719,75.266,21.365,74.471,21.365z"/>
<path fill="#41ACF0" d="M121.1,12.619h-5.381c-0.743,0-1.346,0.604-1.346,1.348v5.395c0,0.744,0.603,1.349,1.346,1.349h5.381
	c0.742,0,1.345-0.605,1.345-1.349v-5.394C122.444,13.223,121.842,12.619,121.1,12.619z M121.77,18.959
	c0,0.595-0.481,1.079-1.075,1.079h-4.572c-0.596,0-1.077-0.484-1.077-1.079v-4.585c0-0.596,0.482-1.079,1.077-1.079h4.574
	c0.594,0,1.073,0.483,1.073,1.079V18.959L121.77,18.959z M125.294,11.251c1.099,1.102,2.879,1.102,3.979,0l1.492-1.495
	c1.098-1.102,1.098-2.887,0-3.988l-1.492-1.496c-1.099-1.101-2.88-1.101-3.979,0l-1.493,1.496c-1.097,1.101-1.097,2.887,0,3.989
	L125.294,11.251z M124.398,6.167l1.293-1.296c0.881-0.88,2.305-0.88,3.185,0l1.295,1.296c0.879,0.88,0.879,2.309,0,3.19
	l-1.295,1.296c-0.88,0.88-2.304,0.88-3.185,0l-1.293-1.296C123.52,8.477,123.52,7.048,124.398,6.167z M129.977,12.619h-5.382
	c-0.741,0-1.345,0.604-1.345,1.348v5.395c0,0.744,0.604,1.349,1.345,1.349h5.382c0.741,0,1.344-0.605,1.344-1.349v-5.394
	C131.32,13.223,130.718,12.619,129.977,12.619z M130.647,18.959c0,0.595-0.482,1.079-1.076,1.079H125
	c-0.595,0-1.076-0.484-1.076-1.079v-4.585c0-0.596,0.482-1.079,1.076-1.079h4.571c0.594,0,1.076,0.483,1.076,1.079V18.959z
	 M121.1,3.718h-5.381c-0.743,0-1.346,0.604-1.346,1.35v5.394c0,0.745,0.603,1.349,1.346,1.349h5.381
	c0.742,0,1.345-0.604,1.345-1.349V5.067C122.444,4.322,121.842,3.718,121.1,3.718z M121.77,10.057c0,0.596-0.481,1.079-1.075,1.079
	h-4.572c-0.596,0-1.077-0.483-1.077-1.079V5.472c0-0.596,0.482-1.079,1.077-1.079h4.574c0.594,0,1.073,0.483,1.073,1.079V10.057
	L121.77,10.057z"/>
<path fill="#E086D9" d="M174.291,14.11c-0.873,0-1.574-0.705-1.574-1.574c0-0.87,0.701-1.573,1.574-1.573
	c0.866,0,1.572,0.704,1.572,1.573C175.86,13.405,175.157,14.11,174.291,14.11z M169.311,14.11c-0.866,0-1.574-0.705-1.574-1.574
	c0-0.87,0.708-1.573,1.574-1.573c0.869,0,1.572,0.704,1.572,1.573C170.88,13.405,170.18,14.11,169.311,14.11z M164.33,14.11
	c-0.866,0-1.572-0.705-1.572-1.574c0-0.87,0.706-1.573,1.572-1.573c0.87,0,1.573,0.704,1.573,1.573
	C165.903,13.405,165.2,14.11,164.33,14.11z"/>
</svg>
