<?xml version="1.0" encoding="utf-8"?>
<!-- Generator: Adobe Illustrator 15.0.0, SVG Export Plug-In . SVG Version: 6.00 Build 0)  -->
<!DOCTYPE svg PUBLIC "-//W3C//DTD SVG 1.1//EN" "http://www.w3.org/Graphics/SVG/1.1/DTD/svg11.dtd">
<svg version="1.1" id="图层_1" xmlns="http://www.w3.org/2000/svg" xmlns:xlink="http://www.w3.org/1999/xlink" x="0px" y="0px"
	 width="641.988px" height="200px" viewBox="0 0 641.988 200" enable-background="new 0 0 641.988 200" xml:space="preserve">
<g>
	<g transform="scale(0.1953125, 0.1953125)">
		<path fill="#FFFFFF" d="M876.712,222.932l-33.145,114.677h-13.257l-33.145-114.677h15.91l23.202,86.837h1.325l23.2-86.837H876.712
			z M929.739,336.284h-15.245V222.932h15.245V336.284z M1043.759,257.404c0,10.605-3.095,19.002-9.282,25.187
			c-6.222,6.19-14.837,9.285-25.852,9.285h-19.222v44.412h-15.25V222.932h34.472c11.015,0,19.63,3.095,25.852,9.282
			C1040.666,238.402,1043.759,246.799,1043.759,257.404z M1028.511,257.404c0-8.4-1.99-14.14-5.965-17.235
			c-3.98-3.095-9.945-4.64-17.9-4.64h-15.245v43.75h15.245c7.958,0,13.92-1.547,17.9-4.64
			C1026.521,271.542,1028.511,265.797,1028.511,257.404z M1105.183,373.504c0,13.965-11.323,25.285-25.285,25.285H760.504
			c-13.965,0-25.285-11.32-25.285-25.285V129.735c0-13.965,11.32-25.285,25.285-25.285h319.394c13.962,0,25.285,11.32,25.285,25.285
			V373.504z M1093.756,172.219H746.644v202.154c0,7.285,5.907,13.187,13.192,13.187h320.732c7.285,0,13.188-5.902,13.188-13.187
			V172.219L1093.756,172.219z M1093.756,160.974v-32.107c0-7.287-5.902-13.192-13.188-13.192H759.837
			c-7.285,0-13.192,5.905-13.192,13.192v32.107H1093.756z"/>
	</g>
</g>
<g>
	<g transform="scale(0.1953125, 0.1953125)">
		<path fill="#FFFFFF" d="M1806.774,394.669h-326.579c-20.007,0-36.287-16.28-36.287-36.28V140.73c0-20,16.28-36.28,36.287-36.28
			h326.579c20.005,0,36.285,16.28,36.285,36.28v217.659C1843.059,378.389,1826.779,394.669,1806.774,394.669z M1480.195,118.967
			c-12.005,0-21.77,9.765-21.77,21.762v217.659c0,12.012,9.765,21.777,21.77,21.777h326.579c12.005,0,21.77-9.765,21.77-21.777
			V140.73c0-11.997-9.765-21.762-21.77-21.762H1480.195z M1768.074,242.304h-24.2c-17.345,0-31.445-14.1-31.445-31.44v-24.18
			c0-17.335,14.105-31.442,31.445-31.442h24.2c17.34,0,31.44,14.107,31.44,31.442v24.18
			C1799.514,228.204,1785.414,242.304,1768.074,242.304z M1743.874,169.757c-9.335,0-16.93,7.592-16.93,16.927v24.18
			c0,9.34,7.595,16.93,16.93,16.93h24.2c9.33,0,16.925-7.59,16.925-16.93v-24.18c0-9.335-7.595-16.927-16.925-16.927H1743.874z
			 M1632.597,300.352h-137.89c-4.008,0-7.255-3.247-7.255-7.252c0-4.01,3.247-7.267,7.255-7.267h137.89
			c4.01,0,7.257,3.257,7.257,7.267C1639.855,297.104,1636.607,300.352,1632.597,300.352z M1632.597,336.632h-137.89
			c-4.008,0-7.255-3.247-7.255-7.255c0-4.005,3.247-7.26,7.255-7.26h137.89c4.01,0,7.257,3.255,7.257,7.26
			C1639.855,333.384,1636.607,336.632,1632.597,336.632z"/>
	</g>
</g>
<g>
	<g transform="scale(0.1953125, 0.1953125)">
		<path fill="#FFFFFF" d="M292.676,192.902c9.05,0,15.1-6.06,15.1-15.092c0-9.127-6.037-15.035-15.1-15.035
			c-9.065,0-18.16,5.907-18.16,15.035C274.526,186.842,283.623,192.902,292.676,192.902z M208.213,162.774
			c-9.052,0-18.205,5.907-18.205,15.035c0,9.032,9.152,15.092,18.205,15.092c9.017,0,15.057-6.06,15.057-15.092
			C223.258,168.682,217.231,162.774,208.213,162.774z M473.193,289.507c0-47.737-44.282-88.412-98.64-92.645
			c0.078-0.595,0.11-1.21-0.022-1.827c-10.9-50.815-65.545-89.125-127.117-89.125c-69.58,0-126.192,48.517-126.192,108.155
			c0,31.995,16.335,60.825,47.285,83.562l-10.79,32.432c-0.692,2.115-0.065,4.435,1.618,5.9c1.022,0.877,2.31,1.34,3.607,1.34
			c0.835,0,1.682-0.2,2.462-0.585l40.51-20.267l4.995,1.007c12.472,2.565,23.24,4.785,36.505,4.785
			c3.905,0,7.865-0.175,11.747-0.505c1.572-0.13,2.902-0.925,3.805-2.07c14.607,36.552,54.862,62.94,102.237,62.94
			c12.132,0,24.417-2.925,35.44-5.69l31.225,17.075c0.825,0.45,1.737,0.68,2.64,0.68c1.232,0,2.465-0.415,3.455-1.22
			c1.737-1.41,2.452-3.73,1.802-5.85l-7.975-26.522C458.53,339.949,473.193,314.674,473.193,289.507z M258.226,310.772
			c-3.575,0.305-7.205,0.46-10.802,0.46c-12.142,0-22.415-2.103-34.295-4.555l-6.907-1.397c-1.188-0.253-2.44-0.087-3.53,0.473
			l-30.347,15.192l7.887-23.692c0.77-2.32-0.077-4.85-2.068-6.25c-30.49-21.247-45.942-47.142-45.942-76.937
			c0-53.567,51.672-97.155,115.192-97.155c56.15,0,105.867,34.162,116.127,79.6c-58.877,0.77-106.515,42.16-106.515,92.997
			c0,7.39,1.122,14.555,3.015,21.46C259.468,310.824,258.863,310.714,258.226,310.772z M422.133,354.621
			c-1.837,1.385-2.617,3.775-1.957,5.975l5.202,17.3l-21.347-11.68c-0.815-0.45-1.728-0.685-2.64-0.685
			c-0.452,0-0.902,0.055-1.342,0.177c-11.45,2.892-23.295,5.872-34.835,5.872c-53.587,0-97.177-36.825-97.177-82.085
			c0-45.262,43.59-82.077,97.177-82.077c52.565,0,96.98,37.585,96.98,82.077C462.193,312.064,447.97,335.199,422.133,354.621z
			 M331.918,250.272c-6.037,0-12.075,6.083-12.075,12.112c0,6.07,6.037,12.065,12.075,12.065c9.075,0,15.07-5.995,15.07-12.065
			C346.988,256.344,340.993,250.272,331.918,250.272z M398.265,250.272c-5.95,0-11.99,6.083-11.99,12.112
			c0,6.07,6.04,12.065,11.99,12.065c9.042,0,15.147-5.995,15.147-12.065C413.413,256.344,407.318,250.272,398.265,250.272z"/>
	</g>
</g>
</svg>
