<?xml version="1.0" standalone="no"?><!DOCTYPE svg PUBLIC "-//W3C//DTD SVG 1.1//EN" "http://www.w3.org/Graphics/SVG/1.1/DTD/svg11.dtd"><svg t="1487906193599" class="icon" style="" viewBox="0 0 1024 1024" version="1.1" xmlns="http://www.w3.org/2000/svg" p-id="6620" xmlns:xlink="http://www.w3.org/1999/xlink" width="16" height="16"><defs><style type="text/css"></style></defs><path d="M583.835496 878.7456l139.499141 0c38.676859 0 70.145896-31.683319 70.145896-70.625659L793.480533 608.646637c0-4.970193 4.022044-9.016889 8.96-9.016889l63.994311 0c16.952889 0 32.096711-10.181215 38.585837-25.960296 6.491022-15.771496 2.931674-33.763556-9.058607-45.820207l-334.373926-361.919526c-13.253215-13.344237-30.85843-20.677215-49.593837-20.677215-18.744889 0-36.357689 7.332978-49.586252 20.677215L128.030341 527.849244c-11.9808 12.056652-15.540148 30.048711-9.049126 45.820207 6.491022 15.779081 21.625363 25.960296 38.585837 25.960296l63.994311 0c4.93037 0 8.96 4.046696 8.96 9.016889l0 199.473304c0 38.942341 31.461452 70.625659 70.12883 70.625659l139.516207 0c0 0 14.846104-4.16237 16.406756-33.037274L456.573156 667.291496l110.846104 0 0 178.41683C567.419259 845.708326 563.448415 878.7456 583.835496 878.7456zM874.7008 561.026844c-0.684563 1.676326-2.865304 5.56563-8.265956 5.56563l-63.994311 0c-23.038104 0-41.773511 18.868148-41.773511 42.054163l0 199.473304c0 20.734104-16.738607 37.588385-37.332385 37.588385l-123.092385 0 0-194.939259c0-9.124978-7.340563-16.52243-16.406756-16.52243L440.1664 634.246637c-9.066193 0-16.406756 7.399348-16.406756 16.52243l0 194.939259-123.109452 0c-20.576711 0-37.322904-16.852385-37.322904-37.588385L263.327289 608.646637c0-23.186015-18.727822-42.054163-41.765926-42.054163l-63.994311 0c-5.408237 0-7.579496-3.889304-8.273541-5.56563-0.684563-1.676326-1.873541-5.969541 1.939911-9.826607l334.373926-361.911941c7.052326-7.10163 16.423822-10.998519 26.390756-10.998519 9.966933 0 19.347911 3.896889 26.390756 10.998519L872.768474 551.200237C876.583822 555.057304 875.394844 559.350519 874.7008 561.026844z" p-id="6621" fill="#ffffff"></path></svg>