<?xml version="1.0" standalone="no"?><!DOCTYPE svg PUBLIC "-//W3C//DTD SVG 1.1//EN" "http://www.w3.org/Graphics/SVG/1.1/DTD/svg11.dtd"><svg t="1487817458214" class="icon" style="" viewBox="0 0 1024 1024" version="1.1" xmlns="http://www.w3.org/2000/svg" p-id="4006" xmlns:xlink="http://www.w3.org/1999/xlink" width="16" height="16"><defs><style type="text/css"></style></defs><path d="M937.34912 237.407232c-10.435584-16.570368-28.356608-26.463232-47.940608-26.463232l-546.297856 0c-11.876352 0-21.504 9.627648-21.504 21.504s9.627648 21.504 21.504 21.504l546.297856 0c6.79936 0 10.341376 4.457472 11.548672 6.3744 1.207296 1.916928 3.697664 7.037952 0.759808 13.169664l-117.700608 245.725184c-9.578496 19.997696-30.096384 32.919552-52.27008 32.919552l-342.076416 0-110.205952-330.615808c-12.684288-38.055936-48.15872-63.624192-88.272896-63.624192l-91.793408 0c-11.877376 0-21.504 9.627648-21.504 21.504s9.626624 21.504 21.504 21.504l91.793408 0c21.572608 0 40.650752 13.751296 47.471616 34.215936l118.709248 356.12672c18.212864 54.637568 69.143552 91.346944 126.736384 91.346944l297.68192 0c11.876352 0 21.504-9.627648 21.504-21.504 0-11.876352-9.627648-21.504-21.504-21.504l-297.68192 0c-32.520192 0-61.896704-17.272832-77.948928-44.4416l325.584896 0c38.628352 0 74.371072-22.510592 91.058176-57.34912l117.700608-245.725184C948.964352 274.414592 947.784704 253.9776 937.34912 237.407232z" p-id="4007" fill="#ffffff"></path><path d="M426.259456 699.8016c-45.922304 0-83.1488 37.226496-83.1488 83.1488s37.226496 83.1488 83.1488 83.1488c45.92128 0 83.1488-37.226496 83.1488-83.1488S472.180736 699.8016 426.259456 699.8016zM426.259456 823.0912c-22.13376 0-40.1408-18.00704-40.1408-40.1408s18.00704-40.1408 40.1408-40.1408 40.1408 18.00704 40.1408 40.1408S448.393216 823.0912 426.259456 823.0912z" p-id="4008" fill="#ffffff"></path><path d="M767.456256 699.8016c-45.922304 0-83.1488 37.226496-83.1488 83.1488s37.226496 83.1488 83.1488 83.1488c45.92128 0 83.1488-37.226496 83.1488-83.1488S813.377536 699.8016 767.456256 699.8016zM767.456256 823.0912c-22.13376 0-40.1408-18.00704-40.1408-40.1408s18.00704-40.1408 40.1408-40.1408 40.1408 18.00704 40.1408 40.1408S789.590016 823.0912 767.456256 823.0912z" p-id="4009" fill="#ffffff"></path></svg>