<?xml version="1.0" encoding="utf-8"?>
<!-- Generator: Adobe Illustrator 15.0.0, SVG Export Plug-In . SVG Version: 6.00 Build 0)  -->
<!DOCTYPE svg PUBLIC "-//W3C//DTD SVG 1.1//EN" "http://www.w3.org/Graphics/SVG/1.1/DTD/svg11.dtd">
<svg version="1.1" id="图层_1" xmlns="http://www.w3.org/2000/svg" xmlns:xlink="http://www.w3.org/1999/xlink" x="0px" y="0px"
	 width="109px" height="73px" viewBox="0 0 109 73" enable-background="new 0 0 109 73" xml:space="preserve">
<path fill="#FFFFFF" d="M8,0C3.582,0,0,3.582,0,8s3.582,8,8,8s8-3.582,8-8S12.418,0,8,0z M8,14.281c-3.464,0-6.28-2.817-6.28-6.281
	S4.536,1.719,8,1.719S14.282,4.536,14.282,8S11.464,14.281,8,14.281z"/>
<path fill="#FFFFFF" d="M8,2.435C4.926,2.435,2.435,4.926,2.435,8S4.926,13.564,8,13.564s5.564-2.49,5.564-5.564
	S11.074,2.435,8,2.435z M12.055,9.727c-0.005-0.002-0.009-0.01-0.013-0.013l-2.017-1.332C10.048,8.258,10.064,8.131,10.064,8
	s-0.014-0.257-0.039-0.382l2.017-1.332c0.004-0.003,0.009-0.01,0.013-0.013C12.281,6.804,12.407,7.387,12.407,8
	C12.408,8.611,12.281,9.195,12.055,9.727z M11.492,5.321c-0.002,0.001-0.006,0.001-0.008,0.002L9.32,6.429
	C9.137,6.274,8.93,6.151,8.699,6.067L8.574,3.644c0-0.003-0.002-0.007-0.002-0.011C9.758,3.788,10.796,4.415,11.492,5.321z
	 M7.999,8.982c-0.543,0-0.982-0.44-0.982-0.982s0.439-0.982,0.982-0.982c0.541,0,0.979,0.44,0.979,0.982S8.54,8.982,7.999,8.982z
	 M7.465,3.627C7.464,3.632,7.461,3.639,7.461,3.643L7.317,6.061C7.073,6.147,6.853,6.276,6.661,6.44L4.493,5.357
	C4.49,5.356,4.485,5.356,4.483,5.354C5.186,4.421,6.248,3.775,7.465,3.627z M3.929,6.313C3.931,6.315,3.934,6.319,3.936,6.32
	L5.97,7.638C5.95,7.755,5.934,7.875,5.934,8c0,0.124,0.016,0.244,0.037,0.362L3.937,9.68C3.935,9.682,3.931,9.686,3.929,9.688
	C3.712,9.167,3.592,8.598,3.592,8S3.713,6.834,3.929,6.313z M4.483,10.646c0.002,0,0.008-0.002,0.011-0.002L6.661,9.56
	c0.192,0.166,0.412,0.293,0.656,0.379l0.144,2.418c0,0.004,0.004,0.011,0.004,0.016C6.249,12.225,5.186,11.58,4.483,10.646z
	 M8.573,12.367c0-0.003,0.002-0.008,0.002-0.01L8.7,9.934C8.93,9.85,9.139,9.727,9.322,9.572l2.164,1.104
	c0.002,0.002,0.005,0.002,0.007,0.002C10.796,11.585,9.758,12.212,8.573,12.367z"/>
<path fill="#FFFFFF" d="M44.339,14.54c0.007,1.581-1.583,1.457-1.583,1.457s-4.675-0.002-7.123,0
	c-2.449,0.001-2.217-1.669-2.217-1.669l0.007-7.604c0.054-1.361,1.296-2.07,1.319-2.053c0,0,4.865-3.008,5.639-3.478
	c0.773-0.471,1.188-0.53,1.188-0.53s0.002,0.168,0-0.231c-0.002-0.37,0.264-0.431,0.264-0.431s1.043,0.002,1.418,0
	c0.372-0.002,0.462,0.232,0.462,0.232v0.629c0,0,0.122,0.045,0.362,0.231c0.265,0.204,0.265,0.729,0.265,0.729
	S44.332,12.958,44.339,14.54z M38.826,13.642c0.855,0,1.551-0.684,1.551-1.525c0-0.125-0.018-0.244-0.045-0.359h0.01
	c0,0-0.301-0.998-0.592-1.646c-0.363-0.808-0.906-1.679-0.906-1.679s-0.441,0.73-0.801,1.508c-0.371,0.799-0.732,1.816-0.732,1.816
	h0.011c-0.028,0.115-0.046,0.234-0.046,0.359C37.275,12.958,37.971,13.642,38.826,13.642z M41.023,3.469
	c0-0.159-0.258-0.477-0.715-0.461l-3.63,2.304C36.54,5.396,35.939,5.754,35.935,5.8v0.202c0.016,0.144,0.214,0.288,0.371,0.288
	l3.888-0.029c0.505-0.059,0.804-0.729,0.829-0.979V3.469z"/>
<path fill="#FFFFFF" d="M76.755,13.806h-1.493H63.343h-1.526c-0.391,0-0.707-0.309-0.707-0.69v-0.114c0-0.382,0.316-0.69,0.707-0.69
	h0.353V6.438c0-0.636,0.524-1.15,1.177-1.15h11.92c0.647,0,1.176,0.515,1.176,1.15v5.872h0.315c0.392,0,0.706,0.309,0.706,0.69
	v0.114C77.461,13.497,77.145,13.806,76.755,13.806z M66.184,8.621c0-0.094-0.076-0.169-0.172-0.169h-0.814V7.645
	c0-0.092-0.074-0.166-0.17-0.166H64.91c-0.094,0-0.17,0.074-0.17,0.166v0.808h-0.85c-0.098,0-0.174,0.075-0.174,0.169v0.114
	c0,0.093,0.076,0.168,0.174,0.168h0.85v0.842c0,0.092,0.076,0.167,0.17,0.167h0.117c0.095,0,0.17-0.075,0.17-0.167V8.903h0.814
	c0.096,0,0.172-0.075,0.172-0.168V8.621L66.184,8.621z M74.816,8.621c0-0.094-0.076-0.169-0.172-0.169h-2.121
	c-0.096,0-0.174,0.075-0.174,0.169v0.114c0,0.093,0.078,0.168,0.174,0.168h2.121c0.096,0,0.172-0.075,0.172-0.168V8.621z
	 M76.227,4.732H62.379c-0.391,0-0.705-0.31-0.705-0.69V3.927c0-0.381,0.314-0.689,0.705-0.689h1.378
	c-0.047-0.088-0.075-0.186-0.075-0.29V2.832c0-0.353,0.293-0.638,0.652-0.638h0.246c0.359,0,0.652,0.285,0.652,0.638v0.115
	c0,0.104-0.029,0.202-0.075,0.29h8.323c-0.045-0.088-0.072-0.186-0.072-0.29V2.832c0-0.353,0.292-0.638,0.652-0.638h0.244
	c0.359,0,0.651,0.285,0.651,0.638v0.115c0,0.104-0.026,0.202-0.074,0.29h1.343c0.391,0,0.707,0.309,0.707,0.689v0.115
	C76.932,4.423,76.615,4.732,76.227,4.732z"/>
<path fill="#FFFFFF" d="M105.282,3.872l0.215,0.573l0.573,0.215l-0.573,0.215l-0.215,0.572l-0.216-0.572l-0.571-0.215l0.571-0.215
	L105.282,3.872z M92.197,7.342l0.216,0.572l0.571,0.215l-0.571,0.215l-0.216,0.573l-0.215-0.573L91.41,8.129l0.572-0.215
	L92.197,7.342z M94.109,2.739l0.356,0.931l0.933,0.358l-0.933,0.358l-0.356,0.931l-0.358-0.931l-0.933-0.358l0.933-0.358
	L94.109,2.739z M102.71,1.012l0.396,1.021l1.021,0.394l-1.021,0.396l-0.396,1.021l-0.394-1.021l-1.021-0.396l1.021-0.394
	L102.71,1.012z"/>
<path fill="#FFFFFF" d="M105.648,13.025c0.349-0.505,0.535-1.137,0.535-1.834c0-1.111-0.463-2.066-1.341-2.569
	c-0.25-2.034-1.37-3.526-2.76-3.526h-5.342c-1.39,0-2.513,1.492-2.765,3.526c-0.877,0.502-1.34,1.458-1.34,2.569
	c0,0.697,0.189,1.329,0.537,1.834v1.645h0.002c0,0.002-0.002,0.004-0.002,0.007v0.002c0,0.171,0.139,0.31,0.311,0.31h2.313
	c0.171,0,0.311-0.139,0.311-0.31v-0.002c0-0.003-0.002-0.005-0.002-0.007h0.002v-0.531h6.61c0,0-0.024,0.203,0,0.531h0.003
	c0,0.002,0,0.004,0,0.007v0.002c0,0.171,0.137,0.31,0.309,0.31h2.313c0.172,0,0.311-0.139,0.311-0.31v-0.002
	c0-0.005-0.002-0.009-0.004-0.013V13.025L105.648,13.025z M104.66,11.191c0.002,0.529-0.43,0.957-0.956,0.957
	c-0.53,0-0.959-0.428-0.959-0.957s0.431-0.958,0.959-0.958C104.23,10.233,104.66,10.662,104.66,11.191z M95.124,12.148
	c-0.528,0-0.957-0.428-0.957-0.957s0.429-0.958,0.957-0.958c0.53,0,0.957,0.429,0.957,0.958S95.652,12.148,95.124,12.148z
	 M95.467,8.244c-0.191,0-0.365,0.022-0.537,0.049c0.275-1.336,0.994-2.32,1.814-2.32h5.343c0.82,0,1.537,0.984,1.813,2.32
	c-0.09-0.015-0.189-0.02-0.285-0.026c0-0.009,0.002-0.016,0.002-0.023c0-0.844-0.686-1.531-1.531-1.531
	c-0.845,0-1.531,0.687-1.531,1.531H95.467L95.467,8.244z M101.781,12.043h-4.737c-0.162,0-0.293-0.131-0.293-0.293
	s0.132-0.293,0.293-0.293h4.737c0.162,0,0.293,0.131,0.293,0.293C102.075,11.912,101.943,12.043,101.781,12.043z M101.781,11.205
	h-4.737c-0.162,0-0.293-0.132-0.293-0.294c0-0.161,0.132-0.293,0.293-0.293h4.737c0.162,0,0.293,0.132,0.293,0.293
	C102.075,11.073,101.943,11.205,101.781,11.205z M101.143,8.244c0-0.521,0.424-0.945,0.944-0.945s0.945,0.424,0.945,0.945H101.143z"
	/>
<path fill="#FFFFFF" d="M14.656,38.313L14.656,38.313c-0.805,0.043-1.527-0.342-1.887-0.742l-0.017-0.018l-0.015-0.02
	c-0.01-0.012-0.466-0.581-0.984-1.226c0.008,0.098,0.011,0.195,0.011,0.295c0,2.32-1.884,4.203-4.208,4.203
	c-2.323,0-4.207-1.883-4.207-4.203c0-1.948,1.327-3.587,3.128-4.063c-0.138-0.679-0.138-1.422-0.105-2.121
	c0.027-0.615,0.471-0.919,0.872-0.94c0.38-0.02,0.648,0.198,0.745,0.293l0.021,0.02c0,0,0.882,0.986,1.225,1.367
	c0.017,0.002,0.034,0.004,0.05,0.005c0.254-0.017,0.523-0.046,0.719-0.076c0.049-0.2,0.104-0.483,0.143-0.744
	c-0.26-0.288-0.855-0.949-1.111-1.231c-0.477-0.093-0.969-0.143-1.473-0.143c-4.215,0-7.632,3.417-7.632,7.633
	c0,4.214,3.417,7.632,7.632,7.632c3.645,0,6.692-2.555,7.451-5.971C14.896,38.289,14.777,38.305,14.656,38.313z M2.817,31.858
	l1.794,0.84l-0.477,0.477l-1.794-0.84L2.817,31.858z M2.661,36.602l-1.974,0.636v-0.636l1.974-0.637V36.602z M3.41,41.957
	l-0.46-0.463l0.818-1.748l0.462,0.467L3.41,41.957z M7.562,43.434l-0.636-1.977h0.636l0.636,1.977H7.562z M12.386,41.426
	l-1.795-0.84l0.478-0.479l1.794,0.842L12.386,41.426z"/>
<path fill="#FFFFFF" d="M15.562,35.045l-2.717-2.664c0.695-0.906,0.686-2.188-0.119-3.085l-0.145-0.158
	c-0.695-0.773-2.21-0.868-2.956-0.903c-0.231-0.01-0.081,0.177-0.081,0.177s1.181,1.308,1.34,1.484
	c0.158,0.177,0.109,0.514,0.109,0.514s-0.178,1.212-0.353,1.371c-0.177,0.159-1.347,0.231-1.347,0.231s-0.441-0.01-0.564-0.146
	c-0.123-0.138-1.332-1.486-1.332-1.486s-0.17-0.166-0.18,0.077c-0.036,0.761-0.089,2.265,0.586,3.015l0.143,0.159
	c0.814,0.904,2.099,1.036,3.069,0.413c0.466,0.567,2.382,2.96,2.382,2.96c0.324,0.359,1.312,0.781,2.059,0.105
	C16.205,36.433,15.886,35.405,15.562,35.045z"/>
<path fill="#FFFFFF" d="M16.071,37.332"/>
<path fill="#FFFFFF" d="M67.072,28.5h-3.985c-0.993,0-1.802,0.804-1.802,1.792v3.987c0,0.994,0.808,1.803,1.802,1.803h3.987
	c0.99,0,1.798-0.809,1.798-1.803v-3.986C68.871,29.304,68.064,28.5,67.072,28.5z"/>
<path fill="#FFFFFF" d="M75.486,28.5h-3.984c-0.99,0-1.799,0.804-1.799,1.792v3.987c0,0.994,0.807,1.803,1.799,1.803h3.984
	c0.992,0,1.799-0.809,1.799-1.803v-3.986C77.285,29.304,76.479,28.5,75.486,28.5z M76.344,34.279c0,0.483-0.377,0.863-0.857,0.863
	h-3.983c-0.479,0-0.856-0.379-0.856-0.863v-3.986c0-0.478,0.377-0.852,0.856-0.852h3.983c0.48,0,0.857,0.375,0.857,0.852V34.279z"/>
<path fill="#FFFFFF" d="M67.072,36.912h-3.985c-0.993,0-1.802,0.807-1.802,1.799v3.987c0,0.993,0.808,1.802,1.802,1.802h3.987
	c0.99,0,1.798-0.809,1.798-1.803V38.71C68.871,37.719,68.064,36.912,67.072,36.912z M67.93,42.697c0,0.482-0.375,0.861-0.855,0.861
	h-3.986c-0.48,0-0.859-0.379-0.859-0.861v-3.988c0-0.48,0.379-0.855,0.859-0.855h3.987c0.479,0,0.856,0.375,0.856,0.855
	L67.93,42.697L67.93,42.697z"/>
<path fill="#FFFFFF" d="M75.486,36.912h-3.984c-0.99,0-1.799,0.807-1.799,1.799v3.987c0,0.993,0.807,1.802,1.799,1.802h3.984
	c0.992,0,1.799-0.809,1.799-1.803V38.71C77.285,37.719,76.479,36.912,75.486,36.912z M76.344,42.697
	c0,0.482-0.377,0.861-0.857,0.861h-3.983c-0.479,0-0.856-0.379-0.856-0.861v-3.988c0-0.48,0.377-0.855,0.856-0.855h3.983
	c0.48,0,0.857,0.375,0.857,0.855V42.697z"/>
<path fill="#FFFFFF" d="M99.41,29.021c-3.894,0-7.062,3.167-7.062,7.061s3.168,7.062,7.062,7.062s7.062-3.168,7.062-7.062
	S103.304,29.021,99.41,29.021z M100.663,30.725c1.074,0.251,2.027,0.817,2.758,1.597c0.17,0.182,0.121,0.476-0.094,0.6l-1.422,0.822
	c-0.342,0.196-0.763,0.198-1.101-0.004c-0.022-0.014-0.046-0.027-0.069-0.04c-0.342-0.19-0.546-0.557-0.546-0.947v-1.646
	C100.189,30.857,100.421,30.668,100.663,30.725z M101.017,35.427c-0.045,0.046-0.106,0.071-0.172,0.071s-0.127-0.025-0.172-0.071
	c-0.016-0.016-0.029-0.033-0.039-0.051c-0.021-0.037-0.033-0.078-0.033-0.122c0-0.065,0.025-0.126,0.072-0.173
	c0.045-0.046,0.107-0.071,0.172-0.071s0.127,0.025,0.172,0.071c0.047,0.046,0.072,0.107,0.072,0.173S101.063,35.38,101.017,35.427z
	 M101.081,36.974c-0.018,0.063-0.058,0.115-0.114,0.148c-0.057,0.032-0.122,0.041-0.185,0.023c-0.063-0.016-0.116-0.057-0.148-0.113
	c-0.033-0.057-0.041-0.122-0.025-0.186c0.006-0.021,0.015-0.041,0.025-0.059c0.021-0.037,0.051-0.067,0.089-0.089
	c0.057-0.033,0.122-0.042,0.185-0.024c0.063,0.017,0.116,0.057,0.148,0.113C101.089,36.845,101.098,36.911,101.081,36.974z
	 M99.198,34.304c0.033-0.057,0.086-0.097,0.148-0.113c0.021-0.006,0.043-0.009,0.064-0.009c0.041,0,0.084,0.011,0.121,0.032l0,0
	c0.057,0.033,0.098,0.086,0.113,0.148c0.018,0.063,0.009,0.129-0.023,0.186c-0.033,0.057-0.086,0.097-0.148,0.113
	c-0.063,0.018-0.129,0.009-0.186-0.023C99.171,34.569,99.132,34.421,99.198,34.304z M94.146,37.679
	c-0.154-0.506-0.238-1.041-0.238-1.597c0-0.555,0.084-1.091,0.238-1.596c0.072-0.237,0.352-0.342,0.566-0.218l1.393,0.805
	c0.357,0.207,0.578,0.589,0.578,1.002v0.007v0.007c0,0.414-0.221,0.796-0.578,1.002l-1.393,0.805
	C94.497,38.02,94.218,37.915,94.146,37.679z M98.632,41.058c0,0.25-0.231,0.439-0.474,0.383c-1.075-0.252-2.028-0.818-2.759-1.598
	c-0.17-0.182-0.121-0.476,0.094-0.6l1.423-0.821c0.341-0.196,0.763-0.199,1.101,0.003c0.022,0.014,0.045,0.027,0.068,0.041
	c0.342,0.189,0.547,0.557,0.547,0.947V41.058z M97.804,36.737c0.046-0.046,0.107-0.071,0.172-0.071c0.065,0,0.127,0.025,0.173,0.071
	c0.046,0.047,0.071,0.107,0.071,0.173c0,0.135-0.109,0.244-0.244,0.244c-0.064,0-0.126-0.025-0.172-0.071
	c-0.016-0.016-0.029-0.032-0.039-0.051c-0.021-0.037-0.033-0.078-0.033-0.121V36.91C97.731,36.845,97.757,36.784,97.804,36.737z
	 M97.74,35.19c0.005-0.021,0.014-0.041,0.024-0.059c0.021-0.037,0.052-0.067,0.09-0.089v-0.001c0.057-0.031,0.121-0.041,0.185-0.023
	c0.063,0.017,0.116,0.057,0.148,0.113s0.041,0.123,0.024,0.186c-0.018,0.063-0.058,0.115-0.113,0.148
	c-0.117,0.066-0.267,0.027-0.334-0.09C97.731,35.319,97.724,35.254,97.74,35.19z M98.632,32.752c0,0.391-0.205,0.757-0.547,0.947
	c-0.023,0.013-0.046,0.026-0.068,0.04c-0.338,0.202-0.76,0.2-1.101,0.004l-1.423-0.822c-0.215-0.124-0.264-0.418-0.094-0.6
	c0.73-0.779,1.684-1.346,2.759-1.597c0.242-0.057,0.474,0.133,0.474,0.382V32.752L98.632,32.752z M99.622,37.86
	c-0.033,0.057-0.086,0.098-0.148,0.113c-0.063,0.018-0.129,0.009-0.186-0.023c-0.057-0.033-0.097-0.086-0.113-0.148
	c-0.018-0.063-0.008-0.129,0.024-0.186s0.085-0.097,0.147-0.113c0.021-0.006,0.043-0.009,0.064-0.009
	c0.042,0,0.084,0.011,0.121,0.033c0.057,0.032,0.098,0.085,0.113,0.147C99.663,37.738,99.654,37.804,99.622,37.86z M99.41,36.765
	c-0.377,0-0.683-0.306-0.683-0.683s0.306-0.683,0.683-0.683s0.683,0.306,0.683,0.683S99.787,36.765,99.41,36.765z M103.421,39.843
	c-0.73,0.779-1.684,1.346-2.758,1.598c-0.242,0.057-0.474-0.133-0.474-0.383v-1.645c0-0.391,0.204-0.758,0.546-0.947
	c0.023-0.014,0.047-0.027,0.069-0.041c0.338-0.202,0.759-0.199,1.101-0.003l1.422,0.821
	C103.542,39.367,103.591,39.661,103.421,39.843z M104.109,37.896l-1.394-0.805c-0.357-0.206-0.578-0.588-0.578-1.002v-0.007v-0.007
	c0-0.413,0.221-0.795,0.578-1.002l1.394-0.805c0.215-0.124,0.493-0.02,0.565,0.218c0.154,0.505,0.238,1.041,0.238,1.596
	c0,0.556-0.084,1.091-0.238,1.597C104.603,37.915,104.324,38.02,104.109,37.896z"/>
<path fill="#FFFFFF" d="M42.217,35.776h-6.682c-0.223,0-0.404,0.18-0.404,0.402v4.206c0,0.224,0.181,0.404,0.404,0.404h6.682
	c0.222,0,0.403-0.181,0.403-0.404v-4.206C42.62,35.956,42.439,35.776,42.217,35.776z M41.338,39.644h-4.888v-2.694h4.888V39.644z"/>
<path fill="#FFFFFF" d="M44.634,35.158l-1.282-1.36c-0.077-0.081-0.183-0.126-0.256-0.126h-2.091v-1.453h1.051h0.385
	c0.097,0,0.19-0.036,0.264-0.099l0.702-0.612c0.089-0.077,0.139-0.188,0.139-0.304v-1.396c0-0.107-0.042-0.211-0.121-0.287
	l-0.703-0.691c-0.076-0.073-0.177-0.114-0.282-0.114H35.31c-0.105,0-0.206,0.042-0.282,0.114l-0.703,0.691
	c-0.076,0.075-0.121,0.179-0.121,0.287v1.396c0,0.116,0.052,0.227,0.139,0.304l0.703,0.612c0.073,0.063,0.167,0.099,0.209,0.099
	h1.491v1.453h-2.018c-0.146,0-0.253,0.046-0.33,0.126l-1.283,1.36c-0.07,0.075-0.11,0.174-0.11,0.277v7.438
	c0,0.111,0.047,0.218,0.127,0.293l1.283,1.211c0.074,0.07,0.173,0.11,0.277,0.11h8.367c0.103,0,0.201-0.04,0.277-0.11l1.283-1.211
	c0.081-0.075,0.126-0.182,0.126-0.293v-7.438C44.745,35.332,44.705,35.232,44.634,35.158z M35.416,30.789v-0.691l0.414-0.358h6.046
	l0.415,0.358v0.691l-0.402,0.315h-6.07L35.416,30.789z M37.973,32.219h1.842v1.453h-1.842V32.219z M43.645,42.608l-0.746,0.725
	h-7.993l-0.745-0.707v-7.012l0.832-0.808h7.764l0.888,0.808V42.608L43.645,42.608z"/>
</svg>
