<?xml version="1.0" encoding="utf-8"?>
<!-- Generator: Adobe Illustrator 15.0.0, SVG Export Plug-In . SVG Version: 6.00 Build 0)  -->
<!DOCTYPE svg PUBLIC "-//W3C//DTD SVG 1.1//EN" "http://www.w3.org/Graphics/SVG/1.1/DTD/svg11.dtd">
<svg version="1.1" id="图层_1" xmlns="http://www.w3.org/2000/svg" xmlns:xlink="http://www.w3.org/1999/xlink" x="0px" y="0px"
	 width="29px" height="90px" viewBox="0 0 29 90" enable-background="new 0 0 29 90" xml:space="preserve">
<path fill="#F66516" d="M8.552,7.425C8.077,6.95,7.515,6.597,6.901,6.38c0.323-0.161,0.623-0.375,0.886-0.638
	c0.635-0.636,0.985-1.48,0.985-2.379c0-0.899-0.35-1.743-0.985-2.379C7.151,0.35,6.307,0,5.408,0C4.51,0,3.666,0.35,3.03,0.984
	C2.395,1.62,2.044,2.465,2.044,3.363S2.395,5.106,3.03,5.742C3.293,6.005,3.592,6.219,3.916,6.38
	C3.302,6.597,2.739,6.95,2.265,7.425c-0.8,0.801-1.257,1.853-1.298,2.978h0.589C1.597,9.435,1.993,8.53,2.681,7.842
	C3.355,7.168,4.235,6.773,5.18,6.72c0.076,0.004,0.152,0.007,0.229,0.007c0.077,0,0.153-0.003,0.229-0.007
	c0.944,0.054,1.824,0.448,2.499,1.122c0.688,0.688,1.085,1.593,1.126,2.561h0.589C9.809,9.277,9.353,8.226,8.552,7.425z
	 M2.634,3.363c0-1.53,1.245-2.775,2.774-2.775c1.53,0,2.774,1.245,2.774,2.775c0,1.454-1.124,2.65-2.549,2.766
	c-0.075-0.003-0.15-0.006-0.225-0.006c-0.075,0-0.15,0.003-0.225,0.006C3.758,6.014,2.634,4.817,2.634,3.363z"/>
<path fill="#F66516" d="M8.209,33.409H2.608c-0.417,0-0.755-0.34-0.755-0.758v-9.378c0-0.418,0.338-0.758,0.755-0.758h5.601
	c0.416,0,0.755,0.34,0.755,0.758v9.378C8.964,33.069,8.625,33.409,8.209,33.409z M2.608,22.887c-0.211,0-0.384,0.174-0.384,0.387
	v9.378c0,0.214,0.172,0.387,0.384,0.387h5.601c0.211,0,0.384-0.173,0.384-0.387v-9.378c0-0.213-0.173-0.387-0.384-0.387H2.608z"/>
<path fill="#F66516" d="M5.409,32.598c-0.272,0-0.494-0.223-0.494-0.494c0-0.273,0.221-0.496,0.494-0.496s0.494,0.223,0.494,0.496
	C5.902,32.375,5.681,32.598,5.409,32.598z M5.409,31.979c-0.067,0-0.122,0.055-0.122,0.125c0,0.136,0.245,0.136,0.245,0
	C5.531,32.033,5.476,31.979,5.409,31.979z"/>
<path fill="#F66516" d="M8.066,31.249H2.717c-0.102,0-0.186-0.083-0.186-0.186v-7.508c0-0.103,0.083-0.186,0.186-0.186h5.349
	c0.103,0,0.186,0.083,0.186,0.186v7.508C8.252,31.166,8.169,31.249,8.066,31.249z M2.903,30.878h4.979v-7.137H2.903V30.878z"/>
<path fill="#F66516" d="M5.409,44.747C2.427,44.747,0,47.173,0,50.156c0,2.982,2.427,5.408,5.409,5.408
	c2.982,0,5.409-2.426,5.409-5.408C10.818,47.173,8.392,44.747,5.409,44.747z M5.409,55.117c-2.736,0-4.961-2.227-4.961-4.961
	c0-2.736,2.225-4.961,4.961-4.961c2.736,0,4.961,2.225,4.961,4.961S8.146,55.117,5.409,55.117z"/>
<path fill="#F66516" d="M5.501,50.211l0.006-3.429c0.001-0.095-0.075-0.169-0.167-0.171H5.339c-0.092,0-0.167,0.076-0.167,0.168
	l-0.006,3.5c0,0.002,0,0.002,0,0.002c0,0.021,0.005,0.043,0.013,0.063c0.009,0.021,0.021,0.04,0.036,0.055c0.001,0,0.001,0,0.001,0
	l1.461,1.461c0.065,0.064,0.171,0.064,0.237,0h0.001c0.065-0.063,0.065-0.174,0-0.235L5.501,50.211z"/>
<path fill="#F66516" d="M1.204,76.396c-0.157,0-0.304,0.063-0.414,0.176c-0.225,0.229-0.225,0.604,0,0.834
	c0.11,0.111,0.257,0.175,0.414,0.175c0.156,0,0.303-0.063,0.414-0.175c0.225-0.23,0.225-0.604,0-0.834
	C1.507,76.459,1.359,76.396,1.204,76.396z M1.361,77.155c-0.042,0.043-0.098,0.063-0.157,0.063c-0.06,0-0.116-0.021-0.157-0.063
	c-0.09-0.093-0.09-0.241,0-0.332c0.042-0.044,0.098-0.067,0.158-0.067c0.059,0,0.115,0.023,0.157,0.067
	C1.451,76.914,1.451,77.063,1.361,77.155z"/>
<path fill="#F66516" d="M10.552,69.066c-0.022-0.058-0.072-0.098-0.131-0.106s-0.12,0.007-0.162,0.049l-1.572,1.584l-1.176-1.202
	l1.572-1.584c0.041-0.041,0.06-0.103,0.048-0.16c-0.012-0.059-0.052-0.105-0.107-0.131c-0.337-0.142-0.694-0.213-1.062-0.213
	c-0.749,0-1.453,0.299-1.982,0.84c-0.475,0.483-0.762,1.129-0.808,1.813c-0.042,0.619,0.115,1.233,0.444,1.754l-5.191,4.44
	c-0.004,0.004-0.008,0.007-0.012,0.012c-0.382,0.39-0.382,1.025,0,1.417l0.286,0.291c0.186,0.19,0.435,0.296,0.698,0.296
	c0.265,0,0.513-0.104,0.7-0.296c0.001-0.001,0.003-0.004,0.005-0.005l4.616-5.151c0.391,0.197,0.823,0.302,1.261,0.302
	c0.744,0,1.442-0.295,1.968-0.832c0.399-0.406,0.666-0.92,0.771-1.482C10.817,70.146,10.761,69.585,10.552,69.066z M9.69,71.934
	c-0.456,0.467-1.065,0.726-1.712,0.726c-0.424,0-0.842-0.112-1.21-0.324c-0.073-0.043-0.167-0.024-0.223,0.036l-4.708,5.254
	c-0.118,0.119-0.274,0.188-0.44,0.188s-0.323-0.066-0.443-0.188l-0.285-0.291c-0.245-0.251-0.247-0.658-0.005-0.912L5.97,71.88
	c0.071-0.062,0.084-0.165,0.03-0.241c-0.72-1.004-0.621-2.367,0.236-3.242c0.461-0.473,1.074-0.729,1.726-0.729
	c0.228,0,0.45,0.028,0.666,0.094l-1.496,1.511c-0.069,0.067-0.069,0.182-0.001,0.252l1.427,1.459
	c0.034,0.031,0.079,0.054,0.128,0.054l0,0c0.048,0,0.094-0.021,0.128-0.054l1.496-1.51C10.559,70.338,10.328,71.281,9.69,71.934z"/>
<path fill="#F66516" d="M1.154,70.523h0.752l2.115,2.156c0.035,0.033,0.082,0.053,0.127,0.053s0.091-0.019,0.125-0.051
	c0.07-0.068,0.072-0.185,0.002-0.256l-2.167-2.21c-0.034-0.03-0.08-0.053-0.128-0.053H1.255l-0.831-1.367l0.572-0.585l1.367,0.854
	l0.01,0.729c0,0.047,0.019,0.093,0.051,0.123l2.222,2.28c0.07,0.068,0.183,0.07,0.254,0.003c0.07-0.069,0.072-0.185,0.003-0.255
	L2.73,69.723l-0.009-0.756c-0.001-0.062-0.033-0.117-0.084-0.15l-1.573-0.98C0.992,67.789,0.899,67.8,0.84,67.859l-0.77,0.787
	c-0.057,0.06-0.067,0.147-0.025,0.221l0.956,1.57C1.034,70.491,1.092,70.523,1.154,70.523z"/>
<path fill="#F66516" d="M7.595,73.494c-0.109-0.112-0.256-0.174-0.413-0.174l0,0c-0.156,0-0.304,0.062-0.414,0.174l-0.18,0.186
	l-0.14-0.146c-0.069-0.07-0.182-0.072-0.253-0.003c-0.071,0.068-0.072,0.184-0.003,0.254l0.268,0.273
	c0.034,0.033,0.08,0.056,0.128,0.056l0,0c0.048,0,0.094-0.021,0.128-0.054l0.308-0.315c0.042-0.043,0.099-0.065,0.157-0.065
	c0.059,0,0.115,0.022,0.157,0.065l2.502,2.581c0.09,0.092,0.09,0.24,0,0.332l-1.142,1.167c-0.043,0.043-0.099,0.065-0.157,0.065
	c-0.06,0-0.116-0.022-0.157-0.065l-2.502-2.581c-0.089-0.092-0.089-0.24,0-0.333l0.282-0.287c0.069-0.069,0.069-0.183,0-0.251
	L5.878,74.08c-0.069-0.071-0.183-0.071-0.253-0.003c-0.071,0.069-0.073,0.183-0.003,0.254l0.164,0.168L5.627,74.66
	c-0.225,0.23-0.225,0.604-0.001,0.835l2.502,2.58c0.11,0.112,0.257,0.176,0.414,0.176l0,0c0.155-0.001,0.302-0.063,0.412-0.176
	l1.143-1.166c0.226-0.229,0.226-0.604,0-0.833L7.595,73.494z"/>
<path fill="#F66516" d="M25.995,6.02h-2.021c-0.224,0-0.404,0.181-0.404,0.404V8.04c0,0.222,0.182,0.404,0.404,0.404h2.021
	c0.223,0,0.403-0.182,0.403-0.404V6.424C26.398,6.201,26.218,6.02,25.995,6.02z M25.995,8.04h-2.021V6.424h2.021V8.04z"/>
<path fill="#F66516" d="M26.602,2.383H20.54c-0.121,0-0.202,0.08-0.202,0.201c0,0.122,0.081,0.203,0.202,0.203h6.062
	c0.121,0,0.203-0.081,0.203-0.203C26.805,2.463,26.723,2.383,26.602,2.383z"/>
<path fill="#F66516" d="M28.42,3.19c0-0.06,0-0.101,0-0.162c0-0.101-0.02-0.222-0.061-0.363l-0.565-1.799
	c-0.103-0.283-0.323-0.505-0.506-0.505h-7.437c-0.182,0-0.402,0.222-0.504,0.505l-0.565,1.799c-0.041,0.141-0.062,0.283-0.062,0.404
	c0,0.04,0,0.08,0,0.101c0,0.667,0.323,1.252,0.809,1.616l0,0V9.03c0,0.564,0.443,1.01,0.97,1.01h6.144
	c0.525,0,0.971-0.445,0.971-1.01V4.808l0,0C28.098,4.443,28.42,3.858,28.42,3.19L28.42,3.19z M22.357,6.424v3.233h-1.211V6.424
	H22.357z M27.208,9.05c0,0.344-0.263,0.606-0.565,0.606h-3.879V6.424c0-0.223-0.183-0.404-0.404-0.404h-1.213
	c-0.223,0-0.403,0.181-0.403,0.404v3.233H20.5c-0.303,0-0.566-0.262-0.566-0.606V5.049c0.244,0.102,0.526,0.162,0.811,0.162
	c0.545,0,1.05-0.222,1.414-0.586c0.363,0.364,0.867,0.586,1.414,0.586s1.052-0.222,1.414-0.586c0.365,0.364,0.869,0.586,1.414,0.586
	c0.283,0,0.566-0.061,0.81-0.162V9.05H27.208z M26.398,4.808c-0.424,0-0.828-0.162-1.131-0.465c-0.08-0.081-0.183-0.121-0.283-0.121
	c-0.102,0-0.201,0.04-0.282,0.121c-0.304,0.303-0.707,0.465-1.132,0.465c-0.424,0-0.828-0.162-1.131-0.465
	c-0.082-0.081-0.184-0.121-0.283-0.121s-0.202,0.04-0.282,0.121c-0.304,0.303-0.708,0.465-1.132,0.465
	c-0.891,0-1.617-0.728-1.617-1.617c0-0.02,0-0.041,0-0.041V3.11c0-0.021,0-0.04,0-0.061c0-0.04,0-0.121,0.04-0.243l0.567-1.818
	c0.039-0.121,0.101-0.203,0.141-0.222h7.375c0.04,0.02,0.102,0.101,0.143,0.222l0.565,1.798c0.04,0.102,0.04,0.182,0.04,0.223
	c0,0.02,0,0.02,0,0.04c0,0.04,0,0.081,0,0.122C28.016,4.08,27.288,4.808,26.398,4.808L26.398,4.808z"/>
<path fill="#F66516" d="M26.422,31.955h-5.497c-0.857,0-1.555-0.698-1.555-1.555v-5.496c0-0.857,0.697-1.555,1.555-1.555h3.709
	v0.363h-3.709c-0.657,0-1.191,0.535-1.191,1.192v5.496c0,0.658,0.534,1.193,1.191,1.193h5.497c0.657,0,1.192-0.535,1.192-1.193
	v-3.184h0.363v3.184C27.978,31.257,27.278,31.955,26.422,31.955z"/>
<path fill="#F66516" d="M28.234,24.014"/>
<path fill="#F66516" d="M22.313,29.073l0.697-2.429l3.206-3.179l0,0l0.296-0.294c0.229-0.226,0.616-0.234,0.833-0.018l0.931,0.924
	c0.105,0.105,0.163,0.246,0.163,0.397c0,0.16-0.065,0.317-0.182,0.433L27.69,25.47l-0.001,0l-2.935,2.916L22.313,29.073z
	 M23.334,26.835l-0.491,1.712l1.724-0.485l3.108-3.089v0.001l0.326-0.324c0.048-0.048,0.075-0.112,0.075-0.175
	c0-0.054-0.019-0.104-0.056-0.14l-0.93-0.924c-0.08-0.08-0.233-0.071-0.323,0.018l-0.551,0.549v0L23.334,26.835z"/>
</svg>
