<?xml version="1.0" encoding="utf-8"?>
<!-- Generator: Adobe Illustrator 15.0.0, SVG Export Plug-In . SVG Version: 6.00 Build 0)  -->
<!DOCTYPE svg PUBLIC "-//W3C//DTD SVG 1.1//EN" "http://www.w3.org/Graphics/SVG/1.1/DTD/svg11.dtd">
<svg version="1.1" id="图层_1" xmlns="http://www.w3.org/2000/svg" xmlns:xlink="http://www.w3.org/1999/xlink" x="0px" y="0px"
	 width="200px" height="75.833px" viewBox="0 0 200 75.833" enable-background="new 0 0 200 75.833" xml:space="preserve">
<g>
	<g transform="scale(0.1953125, 0.1953125)">
		<path fill="#FFFFFF" d="M66.435,97.412c-0.847,0-1.562-0.715-1.562-1.565v-5.47H15.51v5.47c0,0.452-0.137,0.81-0.412,1.063
			l-0.037,0.035l-0.033,0.035c-0.257,0.285-0.617,0.425-1.077,0.425H8.185c-0.847,0-1.565-0.715-1.565-1.56v-5.767
			c0-0.11,0.017-0.227,0.05-0.36l0.17-0.69l-0.572-0.425c-2.55-1.897-4.135-5.01-4.135-8.122V65.11
			c0-5.072,2.777-11.907,8.877-14.912l-0.267-1.147l0.185,0.185V40.14c0-4.89,4.7-9.18,10.057-9.18h38.412
			c5.152,0,9.182,4.032,9.182,9.18v8.022h-3.085l3.53,2.005C74.78,53.435,77.37,60.87,77.37,65.11v7.775l0.09,0.205
			c0.09,0.205,0.135,0.423,0.135,0.65c0,0.925-0.752,1.675-1.675,1.675c-0.86,0-1.565-0.67-1.635-1.55h-0.037v-8.75
			c0-2.96-2.75-13.43-11.485-13.43h-44.18C5.625,51.685,5.26,64.98,5.26,65.115v15.37c0,3.602,2.86,6.76,6.117,6.76h57.627
			c1.405,0,2.655-0.63,3.62-1.825l0.12-0.155l0.065-0.19c0.225-0.7,0.853-1.175,1.555-1.175c0.925,0,1.675,0.753,1.675,1.677
			c0,0.275-0.1,0.557-0.31,0.885l-0.06,0.095l-0.055,0.14c-0.457,0.695-0.99,1.305-1.59,1.82L73.5,88.972l0.195,0.665
			c0.048,0.158,0.07,0.307,0.07,0.447v5.765c0,0.45-0.135,0.8-0.418,1.065l-0.035,0.035l-0.03,0.033
			c-0.257,0.287-0.622,0.433-1.085,0.433L66.435,97.412L66.435,97.412z M20.985,34.09c-3.27,0-6.925,2.585-6.925,6.047v8.897
			l1.255-0.217c1.042-0.182,2.142-0.272,3.27-0.272h44.177c0.493,0,0.995,0.028,1.498,0.085l1.192,0.13v-8.622
			c0-3.392-2.657-6.047-6.052-6.047H20.985L20.985,34.09z M20.147,76.047c-4.375,0-7.932-3.557-7.932-7.927
			c0-4.375,3.56-7.935,7.932-7.935c4.375,0,7.932,3.56,7.932,7.935C28.08,72.49,24.522,76.047,20.147,76.047z M20.147,63.315
			c-2.647,0-4.8,2.155-4.8,4.805c0,2.645,2.152,4.8,4.8,4.8s4.802-2.155,4.802-4.8C24.95,65.47,22.795,63.315,20.147,63.315z
			 M59.277,75.417c-4.2,0-7.617-3.417-7.617-7.617c0-4.197,3.417-7.615,7.617-7.615s7.617,3.417,7.617,7.615
			C66.895,72,63.477,75.417,59.277,75.417z M59.275,63.315c-2.472,0-4.485,2.012-4.485,4.485c0,2.47,2.012,4.482,4.485,4.482
			c2.472,0,4.482-2.012,4.482-4.482C63.757,65.327,61.747,63.315,59.275,63.315z M52.057,24.58c-0.435,0-0.867-0.11-1.25-0.315
			c-0.912-0.495-1.48-1.467-1.48-2.537c0-0.37,0.162-0.817,0.497-1.365c0.405-0.667,0.885-1.317,1.39-2.002
			c0.28-0.38,0.565-0.765,0.84-1.165c0.27,0.39,0.55,0.77,0.825,1.14c0.515,0.695,0.995,1.35,1.405,2.022
			c0.335,0.547,0.498,0.995,0.498,1.365c0,1.082-0.572,2.06-1.497,2.552C52.912,24.475,52.485,24.58,52.057,24.58L52.057,24.58z
			 M27.445,24.58c-0.432,0-0.865-0.11-1.25-0.315c-0.91-0.497-1.48-1.47-1.477-2.537c0-0.37,0.163-0.817,0.497-1.362
			c0.407-0.67,0.885-1.32,1.392-2.005c0.28-0.38,0.565-0.77,0.842-1.165c0.27,0.39,0.555,0.775,0.83,1.15
			c0.51,0.69,0.99,1.345,1.4,2.012c0.335,0.55,0.5,0.995,0.5,1.365c0,1.08-0.575,2.057-1.5,2.55
			C28.302,24.475,27.875,24.58,27.445,24.58L27.445,24.58z M39.752,9.092c-0.435,0-0.867-0.11-1.25-0.317
			c-0.915-0.492-1.485-1.465-1.485-2.537c0-0.372,0.16-0.805,0.502-1.365c0.405-0.665,0.88-1.312,1.39-2
			c0.28-0.38,0.565-0.767,0.84-1.165c0.275,0.392,0.56,0.777,0.835,1.152c0.505,0.69,0.99,1.342,1.395,2.01
			c0.335,0.55,0.5,0.995,0.5,1.365c0,1.08-0.575,2.057-1.5,2.55C40.607,8.987,40.18,9.092,39.752,9.092L39.752,9.092z"/>
	</g>
</g>
<g>
	<g transform="scale(0.1953125, 0.1953125)">
		<path fill="#FFFFFF" d="M208.477,25.08c0,1.875,1.455,3.397,3.255,3.397c1.798,0,3.255-1.522,3.255-3.397
			c0-1.877-1.46-3.4-3.255-3.4C209.932,21.68,208.477,23.202,208.477,25.08z M211.732,22.22c1.512,0,2.737,1.282,2.737,2.86
			c0,1.575-1.227,2.855-2.737,2.855c-1.512,0-2.737-1.28-2.737-2.855C208.994,23.502,210.219,22.22,211.732,22.22z M206.244,17.797
			c2.875,0,5.205-2.432,5.205-5.437c0-3-2.33-5.435-5.205-5.435c-2.877,0-5.207,2.435-5.207,5.435
			C201.037,15.365,203.367,17.797,206.244,17.797z M206.244,7.79c2.415,0,4.375,2.047,4.375,4.57c0,2.525-1.96,4.572-4.375,4.572
			c-2.42,0-4.38-2.047-4.38-4.572C201.864,9.837,203.824,7.79,206.244,7.79z M195.174,26.427l-5.432-3.69
			C189.742,24.777,192.172,26.427,195.174,26.427z M206.717,15.732l-3.518-2.387C203.199,14.665,204.774,15.732,206.717,15.732z
			 M254.299,30.36l6.22-2.01c0.84-0.272,0.555-1.387,0.445-1.757c-0.11-0.375-0.48-1.465-1.32-1.192l-6.22,2.007
			c-0.84,0.272-0.1,0.412,0.268,1.53C254.057,30.047,253.459,30.63,254.299,30.36z M241.552,15.51l-2.387-1.622
			C239.164,14.785,240.232,15.51,241.552,15.51z M242.784,34.69l1.165-0.595c0.51-0.165,0.475-1.217,0.21-2.125
			c-0.205-0.687-0.762-1.63-1.272-1.465l-1.283,0.195c-0.92,0.295-0.102,1.067,0.195,2.08
			C242.129,33.895,241.867,34.987,242.784,34.69z M237.304,28.482c2.26,0,4.095-1.917,4.095-4.277c0-2.362-1.835-4.277-4.095-4.277
			c-2.262,0-4.097,1.915-4.097,4.277C233.207,26.565,235.042,28.482,237.304,28.482z M237.304,20.607c1.9,0,3.445,1.61,3.445,3.597
			c0,1.985-1.542,3.595-3.445,3.595c-1.905,0-3.447-1.61-3.447-3.595C233.857,22.217,235.402,20.607,237.304,20.607z
			 M241.169,17.012c2.003,0,3.625-1.695,3.625-3.787c0-2.09-1.622-3.785-3.625-3.785c-2.005,0-3.627,1.695-3.627,3.785
			C237.542,15.317,239.164,17.012,241.169,17.012z M241.169,10.042c1.68,0,3.048,1.425,3.048,3.182c0,1.76-1.365,3.185-3.048,3.185
			c-1.685,0-3.052-1.425-3.052-3.185C238.117,11.467,239.484,10.042,241.169,10.042z M224.824,24.087l-5.735-3.892
			C219.089,22.345,221.654,24.087,224.824,24.087z M240.639,30.705c-0.1-0.332-0.432-0.515-0.755-0.415l-2.675,0.865
			c-0.315,0.103-0.495,0.455-0.395,0.785c0,0,0.555,1.037,0.89,2.16c0.34,1.15,0.455,2.385,0.455,2.385
			c0.1,0.333,0.43,0.517,0.75,0.415l2.68-0.865c0.315-0.103,0.493-0.452,0.395-0.785c0,0-0.045-1.287-0.39-2.45
			C241.267,31.69,240.639,30.705,240.639,30.705z M212.239,27.005l-2.287-1.552C209.952,26.31,210.974,27.005,212.239,27.005z
			 M223.729,27.115c4.52,0,8.18-3.822,8.18-8.54c0-4.72-3.66-8.545-8.18-8.545c-4.522,0-8.185,3.825-8.185,8.545
			C215.544,23.292,219.207,27.115,223.729,27.115z M223.729,11.39c3.8,0,6.88,3.217,6.88,7.185s-3.077,7.182-6.88,7.182
			c-3.8,0-6.882-3.215-6.882-7.182S219.929,11.39,223.729,11.39z M237.972,26.875l-2.775-1.88
			C235.197,26.032,236.437,26.875,237.972,26.875z M251.542,29.59c-0.098-0.33-0.365-0.54-0.695-0.432l-6.617,2.137
			c-0.33,0.105,0,0.292,0.097,0.625l0.048,0.16c0.098,0.327-0.075,0.677,0.258,0.57l6.617-2.135c0.333-0.108,0.44-0.435,0.342-0.767
			L251.542,29.59z M233.362,35.785c0.182-0.057,0.283-0.257,0.225-0.445c-0.053-0.193-0.247-0.298-0.428-0.237l-5.102,1.647
			c-0.182,0.055-0.285,0.26-0.227,0.445c0.057,0.188,0.247,0.29,0.43,0.235L233.362,35.785z M219.302,39.875
			c-0.055-0.188-0.247-0.295-0.427-0.237l-5.105,1.65c-0.18,0.057-0.28,0.257-0.225,0.447c0.055,0.188,0.247,0.292,0.427,0.235
			l5.105-1.647C219.257,40.262,219.357,40.062,219.302,39.875z M226.824,40.537l-4.89,2.247c-0.175,0.08-0.252,0.29-0.175,0.47
			c0.075,0.18,0.275,0.265,0.45,0.185l4.89-2.247c0.175-0.08,0.255-0.292,0.175-0.472C227.199,40.54,226.999,40.46,226.824,40.537z
			 M219.537,44.015l-4.887,2.245c-0.175,0.08-0.253,0.29-0.178,0.47c0.077,0.185,0.28,0.262,0.452,0.185l4.885-2.247
			c0.175-0.08,0.25-0.29,0.175-0.47C219.909,44.017,219.709,43.935,219.537,44.015z M226.629,37.507
			c-0.055-0.188-0.245-0.292-0.425-0.233l-5.105,1.645c-0.18,0.06-0.28,0.26-0.227,0.445c0.057,0.19,0.25,0.292,0.43,0.237
			l5.102-1.65C226.587,37.895,226.687,37.697,226.629,37.507z M265.497,47.112c-0.5-2.035-2.875-4.187-4.115-5.97
			c-1.02-1.827-0.233-4.46-0.233-4.46c0.04-0.33,0.013-0.395-0.092-0.345c0.38-0.325,0.435-0.75,0.142-1.472
			c-0.472-1.16-1.4-4.577-1.4-4.577l0.75-1.857l-4.707,1.52c0,0,2.402,4.447,2.56,5.947c0.085,0.81,0.44,1.127,0.98,1.105
			c-0.205,0.042-0.238,0.103-0.265,0.597c0,0-0.477,2.635,0.353,4.16c1.115,1.755,3.592,3.765,4.115,5.97
			c0.772,2.585,0.575,5.05,0.575,5.05c0.133,0.445,0.19,0.822,0.508,0.72l0.763-0.247c0.32-0.103,0.59-0.28,0.642-1.09
			C266.072,52.162,266.377,50.685,265.497,47.112z M260.319,36.745c0.13-0.052,0.255-0.11,0.36-0.165
			C260.579,36.64,260.454,36.702,260.319,36.745z M246.299,56.19l-6.937-18.537l-0.145-0.023c-1.8,1.125-2.417-4.51-2.422-4.485
			c-1.385-2.435-5.1-4.015-6.582-4.015h-37.825c-0.622,0-1.492,0.195-2.445,0.575c-2.182,0.872-4.807,2.73-5.925,5.497l-0.927,2.532
			l-1.405,3.82l-5.38,14.635c0,0-1.87,1.57-2.555,2.95c-0.68,1.377-1.425,2.607-1.425,11.915c0,9.07,1.785,12.3,3.93,13.417
			l1.69,0.97v8.42c0,2.735,0.64,3.545,3.192,3.545h5.727c2.552,0,3.19-0.81,3.19-3.545v-8.42h42.49v8.42
			c0,2.735,0.64,3.545,3.19,3.545h5.73c2.552,0,3.19-0.81,3.19-3.545v-8.42l1.695-0.97c2.145-1.118,3.93-4.347,3.93-13.417
			c0-9.305-0.743-10.535-1.428-11.915C248.167,57.762,246.299,56.19,246.299,56.19z M187.404,75.427
			c-2.745,0-4.977-2.327-4.977-5.187c0-2.857,2.232-5.182,4.977-5.182s4.975,2.325,4.975,5.182
			C192.379,73.1,190.149,75.427,187.404,75.427z M235.382,75.427c-2.742,0-4.975-2.327-4.975-5.187c0-2.857,2.232-5.182,4.975-5.182
			c2.747,0,4.98,2.325,4.98,5.182C240.362,73.1,238.129,75.427,235.382,75.427z M240.919,56.19h-59.237c0,0-1.415,0.137-0.982-1.445
			c0.36-1.335,5.45-14.512,6.517-18.132c0.432-1.245,2.892-4.102,6.217-3.89h35.73c0.935-0.06,1.8,0.122,2.57,0.445
			c0.145-0.18,0.35-0.295,0.59-0.295c0.425,0,0.765,0.358,0.765,0.798c0,0.08-0.015,0.155-0.035,0.227
			c0.003,0.003,0.005,0.005,0.005,0.005c0.215,0.15,0.41,0.305,0.59,0.462c0.095,0.077,0.18,0.158,0.265,0.237
			c0.77,0.725,1.285,1.502,1.46,2.01c1.075,3.62,6.16,16.797,6.525,18.132C242.332,56.327,240.919,56.19,240.919,56.19z
			 M253.582,30.81c0,0,1.182,2.957-0.8,6.637c1.912-1.332,3.502-4.36,2.78-7.317L253.582,30.81z M253.544,28.987
			c-0.175-0.585-0.622-1.59-1.09-1.442l-1.027,0.552c-0.462,0.455-0.055,0.322,0.295,1.522c0.36,1.235-0.07,1.245,0.568,1.39
			l1.157-0.112C253.914,30.747,253.749,29.68,253.544,28.987z M171.624,40.587c0,1.365,1.625,2.472,3.635,2.472L171.624,40.587z
			 M217.822,35.95c-0.033-0.197-0.207-0.327-0.393-0.297l-5.275,0.887c-0.19,0.03-0.315,0.215-0.285,0.41
			c0.033,0.195,0.208,0.325,0.395,0.295l5.275-0.887C217.724,36.327,217.852,36.145,217.822,35.95z M180.482,20.517
			c2.518,0,4.557-2.13,4.557-4.757s-2.04-4.757-4.557-4.757c-2.517,0-4.557,2.13-4.557,4.757S177.964,20.517,180.482,20.517z
			 M180.482,11.76c2.115,0,3.832,1.79,3.832,4c0,2.207-1.717,3.997-3.832,3.997c-2.117,0-3.832-1.79-3.832-3.997
			C176.649,13.55,178.364,11.76,180.482,11.76z M181.282,30.93l-2.39-1.622C178.892,30.205,179.962,30.93,181.282,30.93z
			 M180.387,19.005l-2.797-2.92C177.589,17.697,178.844,19.005,180.387,19.005z M180.667,25.565c-1.797,0-3.255,1.52-3.255,3.395
			c0,1.88,1.458,3.4,3.255,3.4c1.798,0,3.255-1.52,3.255-3.4C183.922,27.085,182.464,25.565,180.667,25.565z M180.667,31.82
			c-1.512,0-2.737-1.28-2.737-2.86c0-1.575,1.225-2.855,2.737-2.855c1.51,0,2.738,1.28,2.738,2.855
			C183.404,30.54,182.177,31.82,180.667,31.82z M180.574,39.445c0-3.162-2.457-5.727-5.487-5.727c-3.03,0-5.487,2.565-5.487,5.727
			c0,3.165,2.458,5.73,5.487,5.73C178.117,45.175,180.574,42.61,180.574,39.445z M170.472,39.445c0-2.66,2.065-4.815,4.615-4.815
			c2.548,0,4.612,2.155,4.612,4.817c0,2.657-2.065,4.812-4.612,4.812C172.537,44.26,170.472,42.105,170.472,39.445z M219.457,36.12
			l5.275-0.887c0.188-0.03,0.313-0.215,0.285-0.41c-0.03-0.193-0.205-0.327-0.393-0.298l-5.275,0.887
			c-0.19,0.035-0.315,0.218-0.285,0.413C219.094,36.017,219.269,36.152,219.457,36.12z M227.197,34.895l5.272-0.89
			c0.19-0.03,0.315-0.213,0.288-0.408c-0.033-0.195-0.208-0.327-0.395-0.297l-5.272,0.89c-0.19,0.03-0.315,0.213-0.288,0.408
			C226.834,34.792,227.009,34.925,227.197,34.895z M193.874,28.67c3.85,0,6.975-3.26,6.975-7.28c0-4.022-3.125-7.282-6.975-7.282
			c-3.852,0-6.975,3.26-6.975,7.282C186.899,25.41,190.022,28.67,193.874,28.67z M193.874,15.265c3.235,0,5.865,2.745,5.865,6.125
			s-2.63,6.122-5.865,6.122c-3.24,0-5.867-2.74-5.867-6.122C188.007,18.01,190.634,15.265,193.874,15.265z M233.327,37.317
			l-4.89,2.245c-0.173,0.08-0.25,0.292-0.175,0.475c0.077,0.18,0.278,0.263,0.45,0.183l4.89-2.25c0.173-0.08,0.252-0.29,0.175-0.47
			C233.702,37.32,233.499,37.237,233.327,37.317z"/>
	</g>
</g>
<g>
	<g transform="scale(0.1953125, 0.1953125)">
		<path fill="#FFFFFF" d="M401.929,93.732c-23.19,0-42.055-18.867-42.055-42.06c0-23.19,18.865-42.055,42.055-42.055
			s42.055,18.865,42.055,42.055C443.989,74.865,425.124,93.732,401.929,93.732z M401.929,12.547
			c-21.575,0-39.125,17.552-39.125,39.125c0,21.577,17.55,39.13,39.125,39.13c21.575,0,39.125-17.552,39.125-39.13
			C441.059,30.1,423.509,12.547,401.929,12.547z M423.669,51.177h-23.44V29.202c0-0.81-0.655-1.465-1.465-1.465
			c-0.807,0-1.465,0.655-1.465,1.465v23.44c0,0.81,0.658,1.465,1.465,1.465h24.905c0.81,0,1.465-0.655,1.465-1.465
			C425.134,51.835,424.479,51.177,423.669,51.177z"/>
	</g>
</g>
<g>
	<g transform="scale(0.1953125, 0.1953125)">
		<path fill="#FFFFFF" d="M562.838,64.105c-0.91,0-1.64,0.735-1.64,1.642c0,0.907,0.73,1.645,1.64,1.645h18.74
			c0.91,0,1.65-0.74,1.65-1.645c0-0.91-0.74-1.642-1.65-1.642H562.838z M562.838,45.022h51.94c0.91,0,1.65-0.737,1.65-1.645
			c0-0.91-0.74-1.645-1.65-1.645h-51.94c-0.91,0-1.64,0.735-1.64,1.645C561.198,44.285,561.928,45.022,562.838,45.022z
			 M621.358,13.835h-65.81c-2.73,0-4.94,2.207-4.94,4.937V84.58c0,2.727,2.21,4.937,4.94,4.937h20.44h5.26h13.47
			c0.91,0,1.65-0.737,1.65-1.645c0-0.91-0.74-1.642-1.65-1.642h-13.65c0-0.002,0-0.002,0-0.002h-23.88c-1.81,0-3.28-1.473-3.28-3.29
			V20.415c0-1.817,1.47-3.29,3.28-3.29h62.53c1.81,0,3.29,1.472,3.29,3.29v53.617l-12.29,12.192h-3.82v-9.762
			c0.27-2.772,2.44-5.512,6.08-5.512c0.87,0,3.05,0,5.9,0v-3.26h-7.23c-4.44,0-8.04,3.595-8.04,8.04v5.67l0,0v8.117
			c0.03,0,0.05,0,0.07,0h3.22h4.8l14.6-14.45V18.77C626.298,16.042,624.088,13.835,621.358,13.835z M562.838,33.577h27.04
			c0.91,0,1.65-0.735,1.65-1.645s-0.74-1.645-1.65-1.645h-27.04c-0.91,0-1.64,0.735-1.64,1.645S561.928,33.577,562.838,33.577z
			 M604.808,54.822c0-0.912-0.74-1.642-1.65-1.642h-40.32c-0.91,0-1.64,0.732-1.64,1.642c0,0.91,0.73,1.642,1.64,1.642h40.32
			C604.068,56.465,604.808,55.727,604.808,54.822z"/>
	</g>
</g>
<g>
	<g transform="scale(0.1953125, 0.1953125)">
		<path fill="#FFFFFF" d="M803.118,51.597V84.73c0,0.877-0.37,1.685-0.94,2.267c0,0,0,0.005-0.01,0.01l0.01-0.01
			c0,0,0,0.005-0.01,0.01c-0.58,0.588-1.38,0.952-2.26,0.952h-2.83v-2.855h2.83c0.09,0,0.18-0.045,0.24-0.1l0.01-0.007
			c0.06-0.067,0.1-0.165,0.1-0.27v-33.13C800.258,49.562,803.118,49.56,803.118,51.597L803.118,51.597z M797.078,47.98v-2.87
			c0.43,0.033,0.86,0.03,1.29-0.002c3.06-0.243,5.41-2.137,4.66-5.532l-2.56-11.635h-3.39v-2.855h3.18v-5
			c0-0.47-0.39-0.85-0.85-0.85h-2.33V16.38h2.33c2.02,0,3.71,1.67,3.71,3.705v6.43c0,0.058,0,0.118-0.01,0.177l2.7,12.272
			c1.14,5.155-2.43,8.625-7.23,8.995C798.078,48,797.578,48.007,797.078,47.98z M797.078,87.96h-14.94v-2.855h5.66V58.097h-5.66
			V55.24h7.09c0.71,0,1.43,0.715,1.43,1.43v28.435h6.42V87.96L797.078,87.96z M797.078,16.38v2.855h-14.94V16.38H797.078
			L797.078,16.38z M797.078,25.085v2.855h-6.08v11.33c0,3.587,2.92,5.605,6.08,5.84v2.87c-2.99-0.165-5.79-1.522-7.43-3.837
			c-1.56,2.45-4.3,3.935-7.51,3.935V45.22c3.42,0,6-2.347,6-5.95V27.94h-6v-2.855H797.078z M782.138,87.96h-14.86v-2.855h1.59V56.67
			c0-0.712,0.72-1.43,1.43-1.43h11.84v2.857h-10.42v27.007h10.42V87.96L782.138,87.96L782.138,87.96z M782.138,16.38v2.855h-14.86
			V16.38H782.138L782.138,16.38z M782.138,25.085v2.855h-6v11.33c0,3.61,2.58,5.95,6,5.95l0,0v2.857l0,0
			c-3.15,0-5.86-1.44-7.42-3.82c-1.57,2.382-4.28,3.82-7.44,3.82l0,0V45.22l0,0c3.42,0,6-2.345,6-5.95V27.94h-6v-2.855H782.138z
			 M767.278,87.96h-14.85v-2.855h14.85V87.96L767.278,87.96z M767.278,16.38v2.855h-14.85V16.38H767.278L767.278,16.38z
			 M767.278,25.085v2.855h-5.99v11.33c0,3.602,2.58,5.95,5.99,5.95v2.857c-3.15,0-5.86-1.44-7.42-3.817
			c-1.57,2.377-4.27,3.817-7.43,3.817V45.22c3.42,0,6-2.347,6-5.95V27.94h-6v-2.855H767.278z M752.428,87.96h-14.96v-2.855h14.96
			V87.96L752.428,87.96z M752.428,16.38v2.855h-14.96V16.38H752.428L752.428,16.38z M752.428,25.085v2.855h-6v11.33
			c0,3.61,2.59,5.95,6,5.95l0,0v2.857l0,0c-3.21,0-5.96-1.487-7.5-3.945c-1.66,2.307-4.47,3.655-7.45,3.827v-2.872
			c3.14-0.247,6.1-2.23,6.1-5.817V27.94h-6.1v-2.855H752.428z M737.468,87.96h-2.52c-0.88,0-1.69-0.365-2.27-0.962
			c-0.58-0.58-0.94-1.382-0.94-2.267V51.597c0-2.035,2.86-2.037,2.86,0V84.73c0,0.11,0.04,0.205,0.11,0.277
			c0.06,0.06,0.15,0.1,0.24,0.1h2.52V87.96L737.468,87.96z M737.468,16.38v2.855h-2.02c-0.47,0-0.85,0.377-0.85,0.85v5h2.88v2.855
			h-3.1l-2.84,11.665c-0.82,3.36,1.48,5.215,4.53,5.477c0.47,0.038,0.94,0.043,1.41,0.005v2.872c-0.55,0.033-1.1,0.025-1.64-0.025
			c-4.78-0.41-8.32-3.872-7.07-9l2.98-12.26c0-0.052-0.01-0.11-0.01-0.16v-6.43c0-2.035,1.69-3.705,3.71-3.705H737.468
			L737.468,16.38z"/>
	</g>
</g>
<g>
	<g transform="scale(0.1953125, 0.1953125)">
		<path fill="#FFFFFF" d="M933.597,90.232c-5.24,0-10.33-1.03-15.12-3.052c-4.63-1.96-8.78-4.76-12.35-8.327
			s-6.37-7.717-8.32-12.347c-2.03-4.79-3.06-9.875-3.06-15.12s1.03-10.325,3.06-15.12c1.95-4.625,4.75-8.78,8.32-12.345
			c3.57-3.57,7.72-6.37,12.35-8.325c4.79-2.025,9.88-3.052,15.12-3.052c5.25,0,10.33,1.027,15.12,3.052
			c4.63,1.955,8.78,4.755,12.35,8.325c3.57,3.565,6.37,7.715,8.32,12.345c2.03,4.79,3.06,9.875,3.06,15.12s-1.03,10.33-3.06,15.12
			c-1.95,4.63-4.75,8.78-8.32,12.347c-3.57,3.567-7.72,6.367-12.35,8.327C943.927,89.205,938.847,90.232,933.597,90.232
			L933.597,90.232z M933.597,15.222c-19.94,0-36.16,16.222-36.16,36.16c0,19.94,16.22,36.162,36.16,36.162
			s36.16-16.222,36.16-36.162C969.757,31.445,953.537,15.222,933.597,15.222L933.597,15.222z M954.397,53.622h-41.42
			c-0.74,0-1.34-0.603-1.34-1.342c0-0.742,0.6-1.345,1.34-1.345h41.42c0.74,0,1.34,0.603,1.34,1.345
			C955.737,53.02,955.137,53.622,954.397,53.622L954.397,53.622z M954.397,64.932h-41.42c-0.74,0-1.34-0.602-1.34-1.342
			c0-0.74,0.6-1.342,1.34-1.342h41.42c0.74,0,1.34,0.602,1.34,1.342C955.737,64.33,955.137,64.932,954.397,64.932L954.397,64.932z
			 M933.597,75.277c-0.74,0-1.34-0.603-1.34-1.342V51.232c0-0.742,0.6-1.345,1.34-1.345s1.35,0.603,1.35,1.345v22.702
			C934.938,74.675,934.337,75.277,933.597,75.277L933.597,75.277z M933.607,54.36l-18.11-23.807c-0.45-0.592-0.34-1.432,0.25-1.882
			c0.6-0.45,1.44-0.335,1.88,0.252l15.96,20.972l15.61-20.96c0.45-0.592,1.28-0.715,1.89-0.275c0.59,0.445,0.71,1.287,0.27,1.88
			L933.607,54.36L933.607,54.36z"/>
	</g>
</g>
<g>
	<g transform="scale(0.1953125, 0.1953125)">
		<path fill="#FFFFFF" d="M35.467,168.744C15.91,168.744,0,184.407,0,203.662c0,30.545,32.907,60.54,34.31,61.8
			c0.32,0.29,0.737,0.43,1.157,0.43c0.412,0,0.825-0.14,1.147-0.425c1.402-1.235,34.32-30.75,34.32-61.805
			C70.935,184.407,55.025,168.744,35.467,168.744L35.467,168.744z M35.475,262.222c-5.87-5.645-32.172-32.425-32.172-58.56
			c0-17.587,14.427-31.895,32.165-31.895c17.735,0,32.165,14.307,32.165,31.895C67.632,230.227,41.362,256.642,35.475,262.222
			L35.475,262.222z M35.467,181.424c-12.967,0-23.512,10.545-23.512,23.517c0,12.965,10.545,23.51,23.512,23.51
			c12.965,0,23.512-10.545,23.512-23.51C58.98,191.969,48.432,181.424,35.467,181.424L35.467,181.424z M35.467,225.147
			c-11.145,0-20.21-9.06-20.21-20.205s9.065-20.215,20.21-20.215c11.142,0,20.21,9.07,20.21,20.215S46.61,225.147,35.467,225.147
			L35.467,225.147z"/>
	</g>
</g>
<g>
	<g transform="scale(0.1953125, 0.1953125)">
		<path fill="#FFFFFF" d="M239.297,173.739h-19.985c0.292,1.077,0.347,2.255,0,3.317h19.985c2.747,0,4.98,2.235,4.98,4.977v69.692
			c0,2.745-2.232,4.975-4.98,4.975h-53.11c-2.747,0-4.98-2.23-4.98-4.975v-69.692c0-2.742,2.232-4.977,4.98-4.977h19.737
			c-0.348-1.063-0.268-2.24,0.027-3.317h-19.765c-4.575,0-8.3,3.72-8.3,8.295v69.692c0,4.57,3.725,8.295,8.3,8.295h53.11
			c4.577,0,8.3-3.725,8.3-8.295v-69.692C247.597,177.459,243.874,173.739,239.297,173.739z M212.482,178.699
			c-4.56,0-6.53,0.575-6.53-3.29c0-3.662,3.01-6.665,6.67-6.665c3.662,0,6.64,2.98,6.64,6.64
			C219.262,179.042,217.162,178.699,212.482,178.699z M212.622,172.077c-1.83,0-3.317,1.487-3.317,3.32
			c0,1.83,1.487,3.315,3.317,3.315c1.832,0,3.322-1.485,3.322-3.315C215.944,173.564,214.454,172.077,212.622,172.077z
			 M226.022,182.029h-26.56c-0.915,0-1.657-0.742-1.657-1.658c0-0.917,0.742-1.662,1.657-1.662h26.56
			c0.917,0,1.658,0.745,1.658,1.662C227.679,181.287,226.939,182.029,226.022,182.029z M226.022,187.007h-26.56
			c-0.915,0-1.657-0.74-1.657-1.655c0-0.92,0.742-1.663,1.657-1.663h26.56c0.917,0,1.658,0.743,1.658,1.663
			C227.679,186.267,226.939,187.007,226.022,187.007z M201.127,201.942c-0.917,0-1.662-0.74-1.662-1.66
			c0-0.915,0.745-1.655,1.662-1.655l35.96-0.005c0.915,0,1.658,0.74,1.658,1.66c0,0.91-0.74,1.655-1.658,1.655L201.127,201.942z
			 M191.492,203.602h-0.652c-1.65,0-2.992-1.34-2.992-2.995v-0.645c0-1.655,1.342-2.995,2.992-2.995h0.652
			c1.65,0,2.992,1.34,2.992,2.995v0.645C194.484,202.262,193.142,203.602,191.492,203.602z M191.492,216.877h-0.652
			c-1.65,0-2.992-1.345-2.992-2.995v-0.65c0-1.65,1.342-2.99,2.992-2.99h0.652c1.65,0,2.992,1.34,2.992,2.99v0.65
			C194.484,215.532,193.142,216.877,191.492,216.877z M191.492,230.152h-0.652c-1.65,0-2.992-1.34-2.992-2.99v-0.65
			c0-1.655,1.342-3,2.992-3h0.652c1.65,0,2.992,1.345,2.992,3v0.65C194.484,228.812,193.142,230.152,191.492,230.152z
			 M191.492,243.427h-0.652c-1.65,0-2.992-1.345-2.992-2.995v-0.65c0-1.65,1.342-2.995,2.992-2.995h0.652
			c1.65,0,2.992,1.345,2.992,2.995v0.65C194.484,242.082,193.142,243.427,191.492,243.427z M201.127,215.222
			c-0.917,0-1.662-0.745-1.662-1.66c0-0.92,0.745-1.66,1.662-1.66l35.96-0.005c0.915,0,1.658,0.74,1.658,1.655
			c0,0.92-0.74,1.66-1.658,1.66L201.127,215.222z M201.124,228.492c-0.915,0-1.66-0.74-1.66-1.655s0.745-1.66,1.66-1.66
			l35.962-0.005c0.915,0,1.658,0.74,1.658,1.66c0,0.91-0.74,1.66-1.658,1.66H201.124z M201.124,241.772
			c-0.915,0-1.66-0.74-1.66-1.66c0-0.915,0.745-1.66,1.66-1.66l35.962-0.005c0.915,0,1.658,0.74,1.658,1.66
			c0,0.91-0.74,1.655-1.658,1.655L201.124,241.772z"/>
	</g>
</g>
</svg>
