<?xml version="1.0" encoding="utf-8"?>
<!-- Generator: Adobe Illustrator 15.0.0, SVG Export Plug-In  -->
<!DOCTYPE svg PUBLIC "-//W3C//DTD SVG 1.1//EN" "http://www.w3.org/Graphics/SVG/1.1/DTD/svg11.dtd" [
	<!ENTITY ns_flows "http://ns.adobe.com/Flows/1.0/">
]>
<svg version="1.1"
	 xmlns="http://www.w3.org/2000/svg" xmlns:xlink="http://www.w3.org/1999/xlink" xmlns:a="http://ns.adobe.com/AdobeSVGViewerExtensions/3.0/"
	 x="0px" y="0px" width="200px" height="200px" viewBox="0 -1.037 200 200" enable-background="new 0 -1.037 200 200"
	 xml:space="preserve">
<defs>
</defs>
<path d="M133.15,197.926c-3.438,0-6.233-2.779-6.249-6.222c-0.003-0.737-0.336-74.041-0.336-99.033l-0.001-0.389
	c-0.01-2.674,0.053-5.252,0.94-7.394c0.86-2.076,2.524-3.822,4.302-5.575l0.326-0.324c12.136-12.136,46.563-46.565,52.092-52.095
	c0.178-0.252,0.377-0.494,0.598-0.723c0.084-0.087,0.17-0.172,0.258-0.254c1.561-1.498,2.42-3.485,2.42-5.603
	c0-4.309-3.505-7.815-7.814-7.815H20.314c-4.309,0-7.814,3.506-7.814,7.815c0,2.137,0.875,4.141,2.464,5.644
	c0.323,0.306,0.611,0.643,0.859,1.004c5.365,5.549,39.212,40.483,51.756,51.723c2.517,2.256,4.166,4.418,4.9,6.428
	c0.81,2.212,0.996,5.733,0.956,7c-0.52,16.879-0.004,53.313,0.001,53.679c0.049,3.452-2.708,6.29-6.16,6.339
	c-0.031,0.001-0.062,0.001-0.092,0.001c-3.41,0-6.198-2.739-6.248-6.159c-0.022-1.507-0.525-37.082,0.003-54.247
	c0.015-0.457-0.087-1.535-0.193-2.167c-0.276-0.351-0.822-0.947-1.51-1.564C45.327,75.531,7.703,36.551,6.109,34.898
	c-0.222-0.23-0.424-0.475-0.606-0.733C1.945,30.385,0,25.513,0,20.315C0,9.113,9.113,0,20.314,0h159.371
	C190.887,0,200,9.113,200,20.315c0,5.19-1.939,10.056-5.486,13.833c-0.207,0.294-0.439,0.572-0.697,0.83
	c0,0-39.633,39.637-52.844,52.849c-0.117,0.116-0.246,0.244-0.385,0.381c-0.342,0.337-1.043,1.03-1.465,1.517
	c-0.066,0.756-0.061,1.983-0.059,2.507l0.002,0.438c0,24.964,0.332,98.24,0.335,98.977c0.016,3.451-2.77,6.263-6.222,6.278
	C133.17,197.926,133.16,197.926,133.15,197.926z"/>
</svg>
