<?xml version="1.0" encoding="utf-8"?>
<!-- Generator: Adobe Illustrator 15.0.0, SVG Export Plug-In  -->
<!DOCTYPE svg PUBLIC "-//W3C//DTD SVG 1.1//EN" "http://www.w3.org/Graphics/SVG/1.1/DTD/svg11.dtd" [
	<!ENTITY ns_flows "http://ns.adobe.com/Flows/1.0/">
]>
<svg version="1.1"
	 xmlns="http://www.w3.org/2000/svg" xmlns:xlink="http://www.w3.org/1999/xlink" xmlns:a="http://ns.adobe.com/AdobeSVGViewerExtensions/3.0/"
	 x="0px" y="0px" width="200px" height="200px" viewBox="-25.233 -25.22 200 200" enable-background="new -25.233 -25.22 200 200"
	 xml:space="preserve">
<defs>
</defs>
<path d="M65.917,131.907c-17.62,0-34.182-6.861-46.639-19.319C-6.426,86.874-6.426,45.036,19.277,19.321
	C31.735,6.861,48.297,0,65.917,0c17.62,0,34.182,6.861,46.639,19.321c25.706,25.715,25.706,67.553,0,93.267
	C100.099,125.045,83.537,131.907,65.917,131.907z M65.917,9.363c-15.117,0-29.33,5.887-40.019,16.577
	C3.846,48.004,3.846,83.905,25.9,105.967c10.688,10.689,24.9,16.576,40.017,16.576c15.118,0,29.33-5.887,40.019-16.576
	c22.055-22.063,22.055-57.963,0-80.027C95.247,15.25,81.034,9.363,65.917,9.363z"/>
<path d="M142.913,149.559l-26.193-26.19l6.619-6.62l26.193,26.19L142.913,149.559z"/>
</svg>
