<?xml version="1.0" encoding="utf-8"?>
<!-- Generator: Adobe Illustrator 15.0.0, SVG Export Plug-In  -->
<!DOCTYPE svg PUBLIC "-//W3C//DTD SVG 1.1//EN" "http://www.w3.org/Graphics/SVG/1.1/DTD/svg11.dtd" [
	<!ENTITY ns_flows "http://ns.adobe.com/Flows/1.0/">
]>
<svg version="1.1"
	 xmlns="http://www.w3.org/2000/svg" xmlns:xlink="http://www.w3.org/1999/xlink" xmlns:a="http://ns.adobe.com/AdobeSVGViewerExtensions/3.0/"
	 x="0px" y="0px" width="16px" height="16px" viewBox="0 -0.32 16 16" enable-background="new 0 -0.32 16 16" xml:space="preserve">
<defs>
</defs>
<path fill="#FFFFFF" d="M14.408,11.13H5.336c-0.86,0-1.074-0.472-1.126-0.755L4.12,9.88C3.19,4.66,2.66,1.758,2.542,1.254
	C2.44,0.854,2.27,0.71,2.148,0.71H0.354C0.158,0.71,0,0.55,0,0.354C0,0.158,0.158,0,0.354,0h1.794c0.188,0,0.824,0.078,1.084,1.084
	c0.184,0.784,1.24,6.72,1.588,8.67l0.088,0.494c0.008,0.046,0.032,0.172,0.428,0.172h9.074c0.195,0,0.354,0.158,0.354,0.354
	C14.764,10.972,14.604,11.13,14.408,11.13L14.408,11.13z M13.374,8.258h-9.17C4.008,8.258,3.85,8.1,3.85,7.904
	c0-0.196,0.158-0.354,0.354-0.354h9.168c0.632,0,0.76-0.492,0.765-0.514c0.037-0.142,0.893-3.334,1.127-4.128
	c0.028-0.094,0.051-0.22,0-0.298c-0.052-0.08-0.176-0.116-0.234-0.128H3.078c-0.196,0-0.354-0.158-0.354-0.354
	c0-0.196,0.158-0.354,0.354-0.354h11.982c0.012,0,0.023,0,0.037,0.002c0.053,0.006,0.508,0.064,0.76,0.44
	c0.113,0.168,0.221,0.46,0.093,0.896c-0.234,0.786-1.112,4.068-1.122,4.102C14.738,7.568,14.32,8.258,13.374,8.258L13.374,8.258z
	 M6.068,15.054c-0.812,0-1.474-0.66-1.474-1.474c0-0.814,0.662-1.475,1.474-1.475s1.472,0.66,1.472,1.475
	C7.54,14.394,6.88,15.054,6.068,15.054L6.068,15.054z M6.068,12.819c-0.422,0-0.764,0.342-0.764,0.764s0.342,0.764,0.764,0.764
	c0.42,0,0.762-0.342,0.762-0.764S6.488,12.819,6.068,12.819L6.068,12.819z M12.682,15.054c-0.812,0-1.474-0.66-1.474-1.474
	c0-0.814,0.662-1.475,1.474-1.475c0.813,0,1.475,0.66,1.475,1.475C14.156,14.394,13.494,15.054,12.682,15.054L12.682,15.054z
	 M12.682,12.819c-0.42,0-0.764,0.342-0.764,0.764s0.342,0.764,0.764,0.764c0.42,0,0.764-0.342,0.764-0.764
	S13.102,12.819,12.682,12.819L12.682,12.819z"/>
</svg>
