<?xml version="1.0" encoding="utf-8"?>
<!-- Generator: Adobe Illustrator 15.0.0, SVG Export Plug-In  -->
<!DOCTYPE svg PUBLIC "-//W3C//DTD SVG 1.1//EN" "http://www.w3.org/Graphics/SVG/1.1/DTD/svg11.dtd" [
	<!ENTITY ns_flows "http://ns.adobe.com/Flows/1.0/">
]>
<svg version="1.1"
	 xmlns="http://www.w3.org/2000/svg" xmlns:xlink="http://www.w3.org/1999/xlink" xmlns:a="http://ns.adobe.com/AdobeSVGViewerExtensions/3.0/"
	 x="0px" y="0px" width="200px" height="200px" viewBox="-14.879 -21.765 200 200" enable-background="new -14.879 -21.765 200 200"
	 xml:space="preserve">
<defs>
</defs>
<path fill="#4B4B4B" d="M149.675,91.888c-0.004,0-0.007,0-0.011,0c-2.316,0-4.196,1.874-4.202,4.191l-0.12,47.59
	c0,2.316-1.885,4.201-4.202,4.201H27.686c-2.317,0-4.202-1.885-4.202-4.201v-47.16c0-2.32-1.881-4.201-4.202-4.201
	c-2.321,0-4.202,1.881-4.202,4.201v47.16c0,6.951,5.655,12.605,12.606,12.605h113.455c6.95,0,12.605-5.654,12.605-12.596
	l0.12-47.579C153.872,93.779,151.995,91.894,149.675,91.888z"/>
<path fill="#4B4B4B" d="M168.279,59.699l-14.414-38.781L14.844,21.013L0.792,57.84c-0.309,0.485-0.519,1.038-0.607,1.632
	c-0.268,0.875-0.238,1.778,0.042,2.593c1.049,11.281,11,20.157,23.083,20.157c8.269,0,15.54-4.159,19.641-10.4
	c4.307,6.422,12.133,10.725,21.055,10.725c8.669,0,16.305-4.064,20.681-10.187c4.396,6.019,11.965,10,20.547,10
	c8.125,0,15.342-3.57,19.817-9.06c4.122,6.25,11.435,10.416,19.753,10.416c12.285,0,22.378-9.086,23.23-20.558
	C168.59,62.13,168.719,60.88,168.279,59.699z M144.806,75.311c-8.21,0-14.89-6.157-14.89-13.726c0-0.328-0.042-0.646-0.113-0.952
	c0.003-0.134,0.006-0.268,0.006-0.402c0-2.321-1.881-4.202-4.201-4.202c-2.321,0-4.203,1.881-4.203,4.202
	c0,7.568-7.254,13.726-16.17,13.726c-8.918,0-16.174-6.158-16.174-13.726c0-2.321-1.881-4.202-4.202-4.202
	c-0.617,0-1.201,0.136-1.728,0.375c-1.71,0.532-2.953,2.127-2.953,4.013c0,7.569-7.254,13.727-16.17,13.727
	c-8.918,0-16.173-6.158-16.173-13.727c0-2.216-1.717-4.027-3.893-4.187c-0.509-0.219-1.069-0.341-1.658-0.341
	c-2.32,0-4.202,1.881-4.202,4.202c0,7.569-6.626,13.727-14.77,13.727c-7.811,0-14.222-5.664-14.735-12.802l12.058-31.602
	l127.391-0.087l11.729,31.556c-0.037,0.229-0.063,0.462-0.063,0.702C159.69,69.153,153.014,75.311,144.806,75.311z"/>
<path fill="#4B4B4B" d="M22.78,8.404h124.194c2.32,0,4.202-1.881,4.202-4.202S149.295,0,146.975,0H22.78
	c-2.321,0-4.202,1.881-4.202,4.202S20.459,8.404,22.78,8.404z"/>
</svg>
