<?xml version="1.0" encoding="utf-8"?>
<!-- Generator: Adobe Illustrator 15.0.0, SVG Export Plug-In . SVG Version: 6.00 Build 0)  -->
<!DOCTYPE svg PUBLIC "-//W3C//DTD SVG 1.1//EN" "http://www.w3.org/Graphics/SVG/1.1/DTD/svg11.dtd">
<svg version="1.1" id="图层_1" xmlns="http://www.w3.org/2000/svg" xmlns:xlink="http://www.w3.org/1999/xlink" x="0px" y="0px"
	 width="713px" height="493px" viewBox="0 0 713 493" enable-background="new 0 0 713 493" xml:space="preserve">
<path fill="#FFFFFF" d="M35.125,13.408H12.112c-0.727,0-1.211,0.484-1.211,1.211s0.484,1.211,1.211,1.211h23.014
	c0.727,0,1.211-0.484,1.211-1.211C36.336,14.134,35.852,13.408,35.125,13.408z M35.125,20.675H12.112
	c-0.727,0-1.211,0.484-1.211,1.211c0,0.727,0.484,1.211,1.211,1.211h23.014c0.727,0,1.211-0.484,1.211-1.211
	C36.336,21.401,35.852,20.675,35.125,20.675z M39.97,0.084H7.267C3.149,0.084,0,3.234,0,7.352V36.42
	c0,4.118,3.148,7.267,7.267,7.267H39.97c4.118,0,7.267-3.149,7.267-7.267V7.352C47.237,3.476,43.846,0.084,39.97,0.084z
	 M44.814,36.42c0,2.665-2.18,4.845-4.845,4.845H7.267c-2.665,0-4.845-2.18-4.845-4.845V7.352c0-2.665,2.18-4.845,4.845-4.845H39.97
	c2.665,0,4.845,2.18,4.845,4.845L44.814,36.42L44.814,36.42z M35.125,27.942H12.112c-0.727,0-1.211,0.485-1.211,1.211
	c0,0.727,0.484,1.211,1.211,1.211h23.014c0.727,0,1.211-0.484,1.211-1.211C36.336,28.669,35.852,27.942,35.125,27.942z"/>
<path fill="#FFFFFF" d="M110.064,23.251H96.475c-1.876,0-3.396,1.526-3.396,3.407v13.625c0,1.881,1.521,3.407,3.396,3.407h13.589
	c1.876,0,3.397-1.526,3.397-3.407V26.658C113.461,24.777,111.94,23.251,110.064,23.251z M111.762,39.261
	c0,1.505-1.218,2.726-2.718,2.726h-11.55c-1.5,0-2.719-1.221-2.719-2.726v-11.58c0-1.505,1.218-2.726,2.719-2.726h11.551
	c1.5,0,2.718,1.22,2.718,2.726L111.762,39.261L111.762,39.261z M120.66,19.796c2.774,2.782,7.274,2.782,10.05,0l3.77-3.776
	c2.774-2.782,2.774-7.291,0-10.072l-3.77-3.777c-2.774-2.781-7.274-2.781-10.05,0l-3.77,3.777c-2.774,2.781-2.774,7.291,0,10.073
	L120.66,19.796z M118.398,6.955l3.267-3.273c2.221-2.225,5.819-2.225,8.042,0l3.266,3.273c2.221,2.225,2.221,5.833,0,8.058
	l-3.266,3.274c-2.223,2.224-5.821,2.224-8.042,0l-3.267-3.274C116.178,12.788,116.178,9.18,118.398,6.955z M132.485,23.251h-13.59
	c-1.876,0-3.396,1.526-3.396,3.407v13.625c0,1.881,1.521,3.407,3.396,3.407h13.59c1.876,0,3.396-1.526,3.396-3.407V26.658
	C135.881,24.777,134.361,23.251,132.485,23.251z M134.182,39.261c0,1.505-1.217,2.726-2.718,2.726h-11.549
	c-1.501,0-2.719-1.221-2.719-2.726v-11.58c0-1.505,1.218-2.726,2.719-2.726h11.549c1.501,0,2.718,1.22,2.718,2.726V39.261z
	 M110.064,0.77H96.475c-1.876,0-3.396,1.525-3.396,3.407v13.625c0,1.881,1.521,3.407,3.396,3.407h13.589
	c1.876,0,3.397-1.525,3.397-3.407V4.177C113.461,2.295,111.94,0.77,110.064,0.77z M111.762,16.78c0,1.505-1.218,2.725-2.718,2.725
	h-11.55c-1.5,0-2.719-1.22-2.719-2.725V5.198c0-1.505,1.218-2.725,2.719-2.725h11.551c1.5,0,2.718,1.22,2.718,2.725L111.762,16.78
	L111.762,16.78z"/>
<path fill="#FFFFFF" d="M230.933,40.374H187.4V8.89h43.533V40.374z M189.253,38.522h39.828V10.741h-39.828V38.522z"/>
<path fill="#FFFFFF" d="M216.357,24.63h-0.488c-2.419,0-4.388-1.967-4.388-4.386v-0.485c0-2.419,1.969-4.388,4.388-4.388h0.488
	c2.418,0,4.387,1.969,4.387,4.388v0.485C220.744,22.663,218.776,24.63,216.357,24.63z M215.869,17.224
	c-1.398,0-2.535,1.137-2.535,2.535v0.485c0,1.399,1.137,2.536,2.535,2.536h0.488c1.397,0,2.534-1.138,2.534-2.536v-0.485
	c0-1.398-1.137-2.535-2.534-2.535H215.869z"/>
<path fill="#FFFFFF" d="M188.871,35.561l-1.323-1.297L200.971,20.6l1.321,1.298L188.871,35.561z"/>
<path fill="#FFFFFF" d="M213.797,33.892l-13.044-13.039l1.311-1.31l13.043,13.04L213.797,33.892z"/>
<path fill="#FFFFFF" d="M214.591,34.684l-1.326-1.295l8.327-8.513l1.323,1.294L214.591,34.684z"/>
<path fill="#FFFFFF" d="M229.486,33.554l-8.242-8.313l1.317-1.305l8.24,8.315L229.486,33.554z"/>
<path fill="#FFFFFF" d="M192.031,5.186V3.333h43.533v1.852H192.031z"/>
<path fill="#FFFFFF" d="M234.637,3.333h1.853v32.41h-1.853V3.333z"/>
<path fill="#FFFFFF" d="M192.031,5.186h1.853v2.778h-1.853V5.186z"/>
<path fill="#FFFFFF" d="M234.637,33.891v1.853h-2.778v-1.853H234.637z"/>
<path fill="#FFFFFF" d="M308.923,5.11h32.462v5.425h2.526V2.583h-37.514v39.163h10.032V39.22h-7.506V5.11z"/>
<path fill="#FFFFFF" d="M345.725,28.276c-1.297-1.296-2.786-2.331-4.404-3.077c1.423-1.558,2.292-3.629,2.292-5.901
	c0-4.832-3.931-8.763-8.764-8.763c-4.832,0-8.763,3.931-8.763,8.763c0,2.299,0.891,4.393,2.344,5.958
	c-1.571,0.741-3.02,1.755-4.285,3.02c-2.881,2.883-4.469,6.714-4.469,10.79h2.269c0-3.47,1.351-6.731,3.804-9.185
	c1.353-1.352,2.952-2.369,4.696-3.009c0.187,0.109,0.377,0.212,0.574,0.307c1.157,0.565,2.458,0.884,3.831,0.884
	c1.326,0,2.582-0.297,3.709-0.826c0.26-0.123,0.513-0.257,0.758-0.403c1.787,0.638,3.422,1.668,4.803,3.047
	c2.454,2.454,3.806,5.715,3.806,9.185h2.268C350.194,34.992,348.607,31.159,345.725,28.276z M338.827,24.034
	c-0.085,0.072-0.173,0.14-0.263,0.208c-0.059-0.015-0.121-0.029-0.182-0.043l-0.016,0.187c-0.999,0.693-2.21,1.1-3.516,1.1
	c-1.833,0-3.48-0.8-4.614-2.071c-0.978-1.094-1.572-2.536-1.572-4.115c0-3.411,2.776-6.186,6.186-6.186
	c3.411,0,6.187,2.776,6.187,6.186C341.036,21.197,340.177,22.898,338.827,24.034z"/>
<path fill="#FFFFFF" d="M311.882,13.755h11.368v2.527h-11.368V13.755z"/>
<path fill="#FFFFFF" d="M311.882,22.15h9.095v2.527h-9.095V22.15L311.882,22.15z"/>
<path fill="#FFFFFF" d="M417.086,11.547c-0.538-0.096-1.083-0.145-1.631-0.146c-5.771,0-10.45,4.679-10.45,10.45
	c0,5.772,4.679,10.45,10.45,10.45c0.559,0,1.102-0.052,1.631-0.146c3.683,6.872,10.93,11.547,19.271,11.547
	c0.294,0,0.581-0.028,0.872-0.043l0.077,0.043V0.048C436.99,0.035,436.677,0,436.358,0C428.016,0,420.769,4.676,417.086,11.547
	L417.086,11.547z M415.816,29.314c-3.642-0.042-8.097-1.368-8.097-7.463c0-6.017,4.335-7.736,8.008-7.736
	c0.063,0,0.126,0.006,0.189,0.008c-0.937,2.47-1.412,5.088-1.41,7.729C414.504,24.396,414.947,26.922,415.816,29.314z
	 M434.593,40.742c-8.611-1.37-17.373-7.476-17.373-18.891c0-11.335,8.762-17.521,17.373-18.89V40.742z M440.022,4.453v2.89
	c5.53,1.958,10.857,6.41,10.857,14.508c0,8.188-5.327,12.551-10.857,14.509v2.89c7.66-2.087,13.302-9.076,13.302-17.398
	C453.323,13.529,447.682,6.541,440.022,4.453L440.022,4.453z M445.722,21.851c0-4.051-2.33-7.524-5.7-9.259v3.529
	c2.172,0.889,2.986,3.92,2.986,5.729c0,1.81-0.814,4.298-2.986,5.731v3.528C443.392,29.376,445.722,25.903,445.722,21.851z"/>
<path fill="#FFFFFF" d="M517.137,40.245l15.542-37.754c0.463-1.118,2.044-1.118,2.507,0l15.543,37.754
	c0.541,1.314-1.052,2.472-2.143,1.542l-14.654-12.632l-14.66,12.632C518.19,42.717,516.591,41.56,517.137,40.245"/>
<path fill="#FFFFFF" d="M619.452,23.373c-0.4,0-0.722,0.333-0.722,0.744c0,0.413,0.326,0.747,0.722,0.747s0.719-0.334,0.719-0.747
	C620.171,23.706,619.848,23.373,619.452,23.373z M622.079,26.18c-0.398,0-0.719,0.337-0.719,0.748c0,0.409,0.32,0.743,0.719,0.743
	s0.719-0.334,0.719-0.743C622.798,26.517,622.478,26.18,622.079,26.18z M626.189,20.653c0.374,0,0.682-0.323,0.682-0.726
	c0-0.399-0.305-0.724-0.682-0.724c-0.376,0-0.679,0.325-0.679,0.724C625.513,20.327,625.813,20.653,626.189,20.653z M623.52,20.697
	c0.4,0,0.722-0.342,0.722-0.77c0-0.423-0.323-0.766-0.722-0.766c-0.396,0-0.719,0.342-0.719,0.766
	C622.798,20.352,623.124,20.697,623.52,20.697z M628.083,23.353c0-1.504-1.49-2.726-3.324-2.726c-1.835,0-3.324,1.221-3.324,2.726
	c0,1.506,1.489,2.814,3.324,2.814C626.593,26.167,628.083,24.861,628.083,23.353z M620.788,20.564c-0.408,0-0.742,0.334-0.742,0.744
	c0,0.412,0.334,0.746,0.742,0.746c0.409,0,0.74-0.334,0.74-0.746C621.529,20.898,621.195,20.564,620.788,20.564z M627.546,26.18
	c-0.376,0-0.679,0.337-0.679,0.748c0,0.409,0.303,0.743,0.679,0.743c0.374,0,0.677-0.334,0.677-0.743
	C628.223,26.517,627.92,26.18,627.546,26.18z M630.259,23.416c-0.374,0-0.679,0.334-0.679,0.744c0,0.411,0.305,0.746,0.679,0.746
	s0.679-0.334,0.679-0.746C630.938,23.75,630.633,23.416,630.259,23.416z M630.855,17.619l0.083-1.18c0-2.852-2.758-2.81-2.758-2.81
	h-6.779c-2.755,0-2.632,2.588-2.632,2.588v1.464c-2.197,0.831-4.361,2.191-5.462,4.418c0,0-2.764,10.034-2.713,9.158v4.829
	c0,0-0.227,2.809,2.713,2.809h22.943c0,0,2.824-0.118,2.824-2.809v-4.593l-2.937-9.365C634.63,19.826,632.683,18.444,630.855,17.619
	z M624.893,29.034h-0.016c0.374-0.003,0.679-0.315,0.679-0.7c0-0.39-0.305-0.706-0.679-0.706c-0.377,0-0.679,0.315-0.679,0.706
	c0,0.385,0.299,0.697,0.673,0.7c-4.206-0.008-7.61-2.549-7.61-5.676c0-3.136,3.415-5.677,7.627-5.677
	c4.217,0,7.632,2.542,7.632,5.677C632.52,26.496,629.105,29.034,624.893,29.034z M628.88,20.609c-0.385,0-0.7,0.323-0.7,0.723
	s0.315,0.726,0.7,0.726c0.39,0,0.7-0.323,0.7-0.726C629.58,20.932,629.268,20.609,628.88,20.609z M643.187,13.601l-2.821-1.57
	c0,0-3.832-2.658-14.853-2.658h-1.696c-8.688,0-14.516,2.658-14.516,2.658l-2.822,1.57c-3.471,1.872-1.659,5.033-1.659,5.033
	l1.654,3.447l9.644-5.063c0,0-0.868-1.557-1.148-2.277c-0.311-0.58-0.097-0.454,0.117-0.585c0,0,4.494-1.976,8.73-1.976h2.036
	c0,0,6.175-0.008,8.775,2.282c0.285,0.255,0.274-0.173,0.062,0.362c-0.444,1.133-1.139,2.194-1.139,2.194l9.644,5.063l1.654-3.447
	C644.849,18.634,646.66,15.473,643.187,13.601z"/>
</svg>
